<?xml version="1.0" encoding="utf-8"?>
<!-- Generator: Adobe Illustrator 23.0.2, SVG Export Plug-In . SVG Version: 6.00 Build 0)  -->
<svg version="1.1" id="Capa_1" xmlns="http://www.w3.org/2000/svg" xmlns:xlink="http://www.w3.org/1999/xlink" x="0px" y="0px"
	 viewBox="0 0 1835.6 1829.3" style="enable-background:new 0 0 1835.6 1829.3;" xml:space="preserve">
<style type="text/css">
	.st0{fill:#121E4C;}
</style>
<g id="Background">
</g>
<g>
	<path class="st0" d="M1280.5,42.7c-1.9-32.7-35.8-46.7-60.8-26.9c-70.5,56-99.2,143-133.9,224.1c-40.5,94.5-79.3,189.8-113.8,286.7
		c-36.3,102.2-67.3,206.2-90.9,311.8C834.3,712.2,780,589.4,711,472.7c-18.3-31-70-12.9-59.8,23.9c59.6,213.7,133,423.2,189.2,638
		c19.8,75.8,122.7,57.9,130.3-15c20.9-199,68.6-389.3,136.2-577.2c32.2-89.3,68.1-177.3,105.3-264.6
		C1245.2,200.6,1285.5,128.6,1280.5,42.7z"/>
	<path class="st0" d="M1377.4,201.3c-61.3-11.6-83.7,67.6-27.4,92.5c372.2,165.1,420.9,630.3,152,911.9
		c-124.4,130.3-289.4,231.4-445.6,318.3c-158.5,88.2-335.4,155.5-519.3,136.9c-426.3-43.2-484.2-480.5-356.8-818
		c122.6-324.6,385.1-575.2,706.5-695.3c41.5-15.5,25.4-83.6-17.1-68.3c-301.6,109-558.2,324.1-717.2,605.5
		c-146.3,258.9-234,624-42.5,883.9c198.1,268.9,574.2,273.7,857.5,161.6c311.7-123.3,699.7-352,823.8-684
		C1921.1,698.4,1760.7,273.6,1377.4,201.3z"/>
</g>
</svg>
