<?xml version="1.0" encoding="utf-8"?>
<!-- Generator: Adobe Illustrator 23.0.2, SVG Export Plug-In . SVG Version: 6.00 Build 0)  -->
<svg version="1.1" xmlns="http://www.w3.org/2000/svg" xmlns:xlink="http://www.w3.org/1999/xlink" x="0px" y="0px"
	 viewBox="0 0 2442.5 1829.3" style="enable-background:new 0 0 2442.5 1829.3;" xml:space="preserve">
<style type="text/css">
	.st0{fill:url(#SVGID_1_);}
	.st1{fill:url(#SVGID_2_);}
	.st2{fill:url(#SVGID_3_);}
	.st3{fill:#BDD0FB;}
	.st4{opacity:0.65;}
	.st5{opacity:0.72;fill:#FFFFFF;}
	.st6{fill:#FFFFFF;}
	.st7{fill:#91B3FA;}
	.st8{fill:url(#SVGID_4_);}
	.st9{fill:url(#SVGID_5_);}
	.st10{fill:url(#SVGID_6_);}
	.st11{fill:url(#SVGID_7_);}
</style>
<g id="Background">
</g>
<g id="Illustration">
	<linearGradient id="SVGID_1_" gradientUnits="userSpaceOnUse" x1="2280.1628" y1="-21.8737" x2="2240.0422" y2="1471.8156">
		<stop  offset="0" style="stop-color:#09005D"/>
		<stop  offset="1" style="stop-color:#1A0F91"/>
	</linearGradient>
	<path class="st0" d="M2441.8,1594.4c-35.7-362.9-125-1264.1-144.5-1395.8c-24.5-165.6-225.8-129-225.8-129L2028.5,1745h280.6
		c37.7,0,73.7-16.4,98.9-45.1C2433.3,1671.1,2445.6,1632.9,2441.8,1594.4z"/>
	
		<linearGradient id="SVGID_2_" gradientUnits="userSpaceOnUse" x1="-3513.5166" y1="3294.5498" x2="-5659.3628" y2="6113.0591" gradientTransform="matrix(2.120000e-02 -0.9997 0.9997 2.120000e-02 -3131.9094 -3499.5134)">
		<stop  offset="0" style="stop-color:#09005D"/>
		<stop  offset="1" style="stop-color:#1A0F91"/>
	</linearGradient>
	<path class="st1" d="M171.6,1787.2c-87.6-1.9-157.1-75-155.3-163.3L45,263.7c1.6-75,61.2-135.7,135.6-137.9l1958.2-58.6
		c58.2-1.7,106.3,45.5,106.2,104.2l-4.7,1559.5c-0.2,55.2-45.2,99.5-99.9,98.3L171.6,1787.2z"/>
	<g>
		
			<linearGradient id="SVGID_3_" gradientUnits="userSpaceOnUse" x1="-5390.7988" y1="5869.9829" x2="-3812.499" y2="3541.4358" gradientTransform="matrix(2.120000e-02 -0.9997 0.9997 2.120000e-02 -3131.9094 -3499.5134)">
			<stop  offset="0" style="stop-color:#4F52FF"/>
			<stop  offset="1" style="stop-color:#4042E2"/>
		</linearGradient>
		<path class="st2" d="M45.4,1673c-28-0.4-49.2-25.8-44.9-53.7c28.9-185.2,119.6-822.3,90.5-1351.2c-1.3-24.1,17.2-44.6,41.2-45.4
			l1967.1-63.3c27-0.9,49.6,20.4,50.6,47.5c8.4,222.4,39.5,1138.2-1.2,1463.7c-2.5,19.8-19.4,34.5-39.2,34.2L45.4,1673z"/>
		<path class="st3" d="M95.1,1652.2c-27-0.4-47.4-24.8-43.2-51.7c27.8-178.2,115.1-791.3,87.1-1300.3c-1.3-23.2,16.6-43,39.6-43.7
			l1893-60.9c26-0.8,47.7,19.6,48.7,45.8c8.1,214,38,1095.3-1.2,1408.6c-2.4,19.1-18.7,33.2-37.7,32.9L95.1,1652.2z"/>
	</g>
	<g class="st4">
		<path class="st5" d="M3697.7-105l-2.9,137.4c-0.4,21,16.2,38.3,37.1,38.4l139.8,0.8c20.4,0.1,37-16.3,37.5-36.8l3-144.5
			c0.5-21.7-17.4-39.3-38.9-38.3l-140,6.3C3713.7-140.8,3698.2-124.8,3697.7-105z"/>
		<path class="st5" d="M3208.8,69.7l139.8,0.8c20.4,0.1,37-16.3,37.5-36.8l2.6-122.9c0.5-21.6-17.2-39.1-38.6-38.4l-140,5.1
			c-19.7,0.7-35.5,16.8-35.9,36.8l-2.5,117C3171.3,52.3,3188,69.6,3208.8,69.7z"/>
		<path class="st5" d="M3331.4,681.9l-133-1.3c-22.3-0.2-40.6,17.7-41.1,40.1l-2.6,125.6c-0.5,22.3,16.8,40.9,38.9,41.8l132.9,5.7
			c22.8,1,41.9-17.1,42.4-40.1l2.7-129.9C3372.1,700.9,3354,682.1,3331.4,681.9z"/>
		<path class="st5" d="M3107.6,843.3l2.6-122.8c0.5-22.4-17.3-40.9-39.6-41.2l-134.4-1.3c-21.9-0.2-39.9,17.4-40.4,39.4l-2.5,118.4
			c-0.5,21.9,16.5,40.2,38.3,41.1l134.3,5.7C3088.3,883.6,3107.1,865.9,3107.6,843.3z"/>
		<path class="st5" d="M3119.2,289l2.1-100.8c0.5-24.3-18.9-44.3-43.1-44.3l-128.4,0.2c-23.4,0-42.4,18.9-42.9,42.5l-2,96.3
			c-0.5,23.8,18.1,43.5,41.6,44.3l128.3,4.2C3098.7,332.2,3118.7,313.1,3119.2,289z"/>
		<path class="st5" d="M3113.1,581.9l3.2-154.2c0.5-22.1-16.8-40.4-38.7-41.1l-131.3-4.3c-23.9-0.8-43.9,18.3-44.4,42.4l-3.3,155.5
			c-0.5,22.6,17.6,41.2,40,41.2l134.4,0C3094.8,621.3,3112.6,603.8,3113.1,581.9z"/>
		<path class="st5" d="M3470.4,71.2l139.8,0.8c20.4,0.1,37-16.3,37.5-36.8l2.8-133.9c0.5-21.6-17.2-39.1-38.6-38.4l-140,5.1
			c-19.7,0.7-35.5,16.8-35.9,36.8l-2.7,128C3432.9,53.8,3449.5,71.1,3470.4,71.2z"/>
		<path class="st5" d="M3374.6,581.2l3-144.2c0.5-22.5-17.1-41.1-39.3-41.9l-133-4.4c-22.6-0.7-41.5,17.3-42,40.1l-3.1,148.6
			c-0.5,23,17.9,41.9,40.7,41.9l133,0C3356.1,621.3,3374.2,603.5,3374.6,581.2z"/>
		<path class="st5" d="M3613.8,142.9l-152.7,0.3c-16.8,0-30.4,13.5-30.8,30.4l-2.9,138.6c-0.4,17,12.9,31.2,29.8,31.7l152.6,5
			c17.2,0.6,31.5-13.1,31.9-30.4l3-144C3645.1,157.2,3631.1,142.9,3613.8,142.9z"/>
		<path class="st5" d="M3691.7,181l-2.8,132c-0.5,21.4,16.3,39.2,37.5,39.9l136.8,4.5c21.6,0.7,39.6-16.5,40-38.2l2.9-136.8
			c0.5-21.9-17.1-40-38.8-39.9l-136.9,0.3C3709.4,142.7,3692.2,159.7,3691.7,181z"/>
		<path class="st5" d="M3195.9,335.4l152.6,5c17.2,0.6,31.5-13.1,31.9-30.4l2.8-134.9c0.4-17.5-13.6-31.8-30.9-31.8l-152.7,0.3
			c-16.8,0-30.4,13.5-30.8,30.4l-2.7,129.5C3165.7,320.7,3179,334.8,3195.9,335.4z"/>
		<path class="st5" d="M3599.7,403.8l-133-4.4c-22.6-0.7-41.5,17.3-42,40.1l-2.9,140c-0.5,23,17.9,41.9,40.7,41.9l133,0
			c22.1,0,40.2-17.8,40.7-40.1l2.9-135.6C3639.5,423.2,3622,404.5,3599.7,403.8z"/>
		<path class="st5" d="M3865.7,412.6l-142.3-4.7c-20-0.7-36.8,15.3-37.2,35.5l-3,140.9c-0.4,20.4,15.8,37.1,36,37.1l142.4,0
			c19.6,0,35.6-15.8,36-35.5l2.9-136.2C3900.9,429.7,3885.4,413.2,3865.7,412.6z"/>
		<path class="st5" d="M2966.9,66.5l106.1,0.6c28.2,0.2,51.4-22.5,52-51l1.9-88.3c0.6-26.7-21.2-48.3-47.7-47.4l-118.1,4.3
			c-26.8,1-48.2,22.9-48.8,49.9l-1.6,73.7C2910,40.1,2935.3,66.3,2966.9,66.5z"/>
		<path class="st5" d="M2848.6,721c0.5-24.1-18.6-44.1-42.6-44.3l-46.2-0.5c-35.1-0.3-63.9,23.1-64.5,52.6l-1.8,85.3
			c-0.6,29.2,26.7,53.8,61.5,55.2l49.6,2.1c22.4,1,41.2-16.8,41.7-39.4L2848.6,721z"/>
		<path class="st5" d="M4335.3,691.7l-90.9-0.9c-22.3-0.2-40.6,17.7-41.1,40.2l-3.4,159.9c-0.5,22.3,16.9,40.9,39,41.9l90.5,3.9
			c36.1,1.5,66.4-22.2,67-52.5l2.9-137.1C4399.9,716.9,4371.1,692.1,4335.3,691.7z"/>
		<path class="st5" d="M2763.4,621.3l45.1,0c23.4,0,42.5-18.9,43-42.5l3.3-156.7c0.5-23.8-18.1-43.5-41.6-44.3l-45.4-1.5
			c-35.8-1.2-65.6,22.5-66.3,52.5l-2.9,137.1C2698.1,596.3,2727.3,621.3,2763.4,621.3z"/>
		<path class="st5" d="M2767.2,321.2l56.8,1.9c18.1,0.6,33.2-13.8,33.6-32.1l2.4-113.2c0.4-18.4-14.3-33.5-32.6-33.5l-57.4,0.1
			c-34.8,0.1-63,23.4-63.6,52.6l-1.5,69C2704.4,295.5,2732.1,320.1,2767.2,321.2z"/>
		<path class="st5" d="M4349.8-165.6l-91.2,3.3c-20.5,0.7-36.9,17.5-37.4,38.2l-3.3,157.9c-0.5,21.8,16.9,39.8,38.5,39.9l93.9,0.5
			c35,0.2,63.6-23.2,64.2-52.6l2.8-132.1C4418-141.5,4387-166.9,4349.8-165.6z"/>
		<path class="st5" d="M3592.8,684.4l-133-1.3c-22.3-0.2-40.6,17.7-41.1,40.1l-2.8,134.2c-0.5,22.3,16.8,40.9,38.9,41.8l132.9,5.7
			c22.8,1,41.9-17.1,42.4-40.1l2.9-138.5C3633.6,703.5,3615.5,684.7,3592.8,684.4z"/>
		<path class="st5" d="M4346,141.6l-92.4,0.2c-21.1,0-38.3,17-38.7,38.3l-3.2,150.2c-0.5,21.4,16.3,39.2,37.5,39.9l92.8,3.1
			c35.8,1.2,65.6-22.5,66.3-52.5l2.6-123.8C4411.5,166.5,4382.1,141.5,4346,141.6z"/>
		<path class="st5" d="M4342.6,428.3l-96.5-3.2c-20-0.7-36.8,15.3-37.2,35.5l-2.6,123.7c-0.4,20.4,15.8,37.1,36,37.1l96.9,0
			c34.8,0,63.1-23.3,63.7-52.6l1.8-85.3C4405.4,454.1,4377.7,429.5,4342.6,428.3z"/>
		<path class="st5" d="M3947.6,452l-2.8,132.3c-0.4,20.4,15.8,37.1,36,37.1l142.4,0c19.6,0,35.6-15.8,36-35.5l2.7-127.6
			c0.4-19.9-15.1-36.4-34.8-37.1l-142.3-4.7C3964.7,415.8,3948,431.8,3947.6,452z"/>
		<path class="st5" d="M4115.8,689.6l-133-1.3c-22.3-0.2-40.6,17.7-41.1,40.2l-3.2,151.3c-0.5,22.3,16.9,40.9,39,41.9l132.9,5.7
			c22.8,1,41.9-17.1,42.4-40.1l3.3-155.7C4156.6,708.6,4138.5,689.8,4115.8,689.6z"/>
		<path class="st5" d="M2774.7,65.4l55.6,0.3c17.8,0.1,32.3-14.2,32.7-32.1l2.3-110.7c0.4-18.8-15-34.2-33.7-33.5l-58.9,2.1
			c-33.7,1.2-60.4,24.2-61,52.5l-1.4,66C2709.8,40.3,2738.7,65.2,2774.7,65.4z"/>
		<path class="st5" d="M3854.3,687l-130.7-1.3c-23.5-0.2-42.9,18.7-43.4,42.4l-3,140.4c-0.5,22.3,16.9,40.9,39,41.9l132.9,5.7
			c22.8,1,41.9-17.1,42.4-40.1l3.1-147.1C3895.1,706.1,3877,687.2,3854.3,687z"/>
		<path class="st5" d="M3959.5-114.5l-3.1,147c-0.5,21.8,16.9,39.8,38.5,39.9l136.8,0.8c21.2,0.1,38.5-16.9,39-38.3l3.2-152.7
			c0.5-22.5-17.9-40.7-40.2-39.9l-137,5C3976.3-152,3959.9-135.3,3959.5-114.5z"/>
		<path class="st5" d="M3953.3,180.5l-3,141.1c-0.5,21.4,16.3,39.2,37.5,39.9l136.8,4.5c21.6,0.7,39.6-16.5,40-38.2l3.1-145.9
			c0.5-21.9-17.1-40-38.8-39.9l-136.9,0.2C3970.9,142.3,3953.7,159.2,3953.3,180.5z"/>
		<path class="st6" d="M2759.5-227.5l6.3,46.5c2,14.9,14.5,26.1,29.4,26.4l2.2,0c16.7,0.4,30.6-13,31-29.9l1-47.6
			c0.4-18.5-15.4-33.1-33.6-31l-9.5,1.1C2769.3-260.2,2757.2-244.5,2759.5-227.5z"/>
		<path class="st6" d="M2973.8-239.5l6.3,46.5c2,14.9,14.5,26.1,29.4,26.4l2.2,0c16.7,0.4,30.6-13,31-29.9l1-47.6
			c0.4-18.5-15.4-33.1-33.6-31l-9.5,1.1C2983.6-272.1,2971.5-256.5,2973.8-239.5z"/>
		<path class="st6" d="M3237.5-235.8l6.3,46.5c2,14.9,14.5,26.1,29.4,26.4l2.2,0c16.7,0.4,30.6-13,31-29.9l1-47.6
			c0.4-18.5-15.4-33.1-33.6-31l-9.5,1.1C3247.2-268.5,3235.1-252.9,3237.5-235.8z"/>
		<path class="st6" d="M3494.3-247.4l6.3,46.5c2,14.9,14.5,26.1,29.4,26.4l2.2,0c16.7,0.4,30.6-13,31-29.9l1-47.6
			c0.4-18.5-15.4-33.1-33.6-31l-9.5,1.1C3504.1-280.1,3492-264.5,3494.3-247.4z"/>
		<path class="st6" d="M3758.1-281.3l6.3,46.5c2,14.9,14.5,26.1,29.4,26.4l2.2,0c16.7,0.4,30.6-13,31-29.9l1-47.6
			c0.4-18.5-15.4-33.1-33.6-31l-9.5,1.1C3767.9-313.9,3755.8-298.3,3758.1-281.3z"/>
		<path class="st6" d="M4037.6-275.3l6.3,46.5c2,14.9,14.5,26.1,29.4,26.4l2.2,0c16.7,0.4,30.6-13,31-29.9l1-47.6
			c0.4-18.5-15.4-33.1-33.6-31l-9.5,1.1C4047.4-307.9,4035.3-292.3,4037.6-275.3z"/>
		<path class="st6" d="M4273.5-280.3l6.3,46.5c2,14.9,14.5,26.1,29.4,26.4l2.2,0c16.7,0.4,30.6-13,31-29.9l1-47.6
			c0.4-18.5-15.4-33.1-33.6-31l-9.5,1.1C4283.3-312.9,4271.2-297.3,4273.5-280.3z"/>
	</g>
	<g>
		<path class="st7" d="M2245,1719.1c-2.7,0-4.9-2.2-5-5l-6-878.1c0-2.8,2.2-5,4.9-5c0,0,0,0,0,0c2.7,0,4.9,2.2,5,5l6,878.1
			C2250,1716.9,2247.8,1719.1,2245,1719.1C2245,1719.1,2245,1719.1,2245,1719.1z"/>
		<path class="st7" d="M2237.6,639.4c-2.7,0-4.9-2.2-5-5l-2.1-306.7c0-2.8,2.2-5,4.9-5c0,0,0,0,0,0c2.7,0,4.9,2.2,5,5l2.1,306.7
			C2242.6,637.1,2240.4,639.3,2237.6,639.4C2237.6,639.4,2237.6,639.4,2237.6,639.4z"/>
	</g>
	<ellipse class="st7" cx="373.2" cy="328.4" rx="53.1" ry="53.5"/>
	<ellipse class="st7" cx="808.1" cy="324.2" rx="53.1" ry="53.5"/>
	<ellipse class="st7" cx="1247" cy="309.8" rx="53.1" ry="53.5"/>
	<ellipse class="st7" cx="1681.9" cy="289.3" rx="53.1" ry="53.5"/>
	<g>
		<linearGradient id="SVGID_4_" gradientUnits="userSpaceOnUse" x1="1702.4008" y1="-623.3459" x2="1738.5878" y2="50.6439">
			<stop  offset="0" style="stop-color:#4F52FF"/>
			<stop  offset="1" style="stop-color:#4042E2"/>
		</linearGradient>
		<path class="st8" d="M1843.5,76.7c-18.8-40.2-55.1-86.6-121.2-74.9c-89.3,15.9-80.9,207-73.7,284.6c1.7,18.3,20.4,32.3,42.9,32.3
			c6.2,0,12.2-2.2,16.4-6c4.2-3.8,6.2-8.8,5.5-13.9c-7.7-58.7-24.1-227.6,41.6-236.6c0,0,16.7-2.4,31.9,11.3
			C1805.7,73.4,1824.6,75.4,1843.5,76.7z"/>
		<linearGradient id="SVGID_5_" gradientUnits="userSpaceOnUse" x1="1269.7704" y1="-600.117" x2="1305.9573" y2="73.8717">
			<stop  offset="0" style="stop-color:#4F52FF"/>
			<stop  offset="1" style="stop-color:#4042E2"/>
		</linearGradient>
		<path class="st9" d="M1412,94.2c-17.6-41.6-54.3-95.1-124.7-82.6c-89.3,15.9-80.9,207.1-73.7,284.7c1.7,18.3,20.4,32.4,42.9,32.4
			c6.3,0,12.2-2.2,16.4-6c4.2-3.8,6.2-8.8,5.5-13.9c-7.7-58.7-24.1-227.7,41.6-236.7c0,0,24.7-2.8,41.3,23.2
			C1378.3,95.6,1395.2,95.1,1412,94.2z"/>
		<linearGradient id="SVGID_6_" gradientUnits="userSpaceOnUse" x1="836.4208" y1="-576.8491" x2="872.6078" y2="97.1403">
			<stop  offset="0" style="stop-color:#4F52FF"/>
			<stop  offset="1" style="stop-color:#4042E2"/>
		</linearGradient>
		<path class="st10" d="M979,108.5c-16.8-42.1-53.6-99.9-126.5-87c-89.3,15.9-80.9,207.1-73.7,284.7c1.7,18.3,20.4,32.4,42.9,32.4
			c6.2,0,12.2-2.2,16.4-5.9c4.2-3.8,6.2-8.8,5.5-13.9c-7.7-58.7-24.1-227.8,41.6-236.8c0,0,25.4-2.3,42.1,25.4
			C944.4,108.8,961.9,109.5,979,108.5z"/>
		<linearGradient id="SVGID_7_" gradientUnits="userSpaceOnUse" x1="401.823" y1="-553.5173" x2="438.0099" y2="120.4718">
			<stop  offset="0" style="stop-color:#4F52FF"/>
			<stop  offset="1" style="stop-color:#4042E2"/>
		</linearGradient>
		<path class="st11" d="M417.6,33c-89.3,15.9-80.9,207.2-73.7,284.8c1.7,18.3,20.4,32.5,42.9,32.5c6.3,0,12.2-2.1,16.4-5.9
			c4.2-3.8,6.2-8.8,5.5-13.9c-7.7-58.7-24.1-228,41.6-237c0,0,23.6-2.8,40.2,21.3c17.6,0.6,35.2,3,52.8,2.9
			C526.1,75.8,489.4,20.2,417.6,33z"/>
	</g>
	<path class="st5" d="M472.2,1536.4l1293.2,44.7c142.6,0.2,258.6-81.1,257.9-180.9l-11.9-831.8c-0.7-100.6-119.6-180.8-263.3-177.5
		L487.1,473.8c-139.1,3.1-249.7,83.4-249.1,180.8l5.1,721.9C243.9,1474.7,331.8,1536.1,472.2,1536.4z"/>
</g>
</svg>
