<?xml version="1.0" encoding="utf-8"?>
<!-- Generator: Adobe Illustrator 23.0.2, SVG Export Plug-In . SVG Version: 6.00 Build 0)  -->
<svg version="1.1" id="Capa_1" xmlns="http://www.w3.org/2000/svg" xmlns:xlink="http://www.w3.org/1999/xlink" x="0px" y="0px"
	 viewBox="0 0 2750.8 2800" style="enable-background:new 0 0 2750.8 2800;" xml:space="preserve">
<style type="text/css">
	.st0{fill:url(#SVGID_1_);}
	.st1{fill:#BDD0FB;}
	.st2{opacity:0.45;fill:#FFFFFF;enable-background:new    ;}
	.st3{fill:#91B3FA;}
	.st4{fill:url(#SVGID_2_);}
	.st5{fill:url(#SVGID_3_);}
	.st6{opacity:0.58;fill:#FFFFFF;enable-background:new    ;}
	.st7{opacity:0.25;fill:#FFFFFF;enable-background:new    ;}
	.st8{fill:#FFFFFF;}
	.st9{fill:url(#SVGID_4_);}
	.st10{fill:url(#SVGID_5_);}
	.st11{fill:url(#SVGID_6_);}
	.st12{fill:url(#SVGID_7_);}
	.st13{fill:url(#SVGID_8_);}
	.st14{fill:url(#SVGID_9_);}
	.st15{fill:url(#SVGID_10_);}
	.st16{fill:url(#SVGID_11_);}
	.st17{fill:url(#SVGID_12_);}
	.st18{fill:url(#SVGID_13_);}
	.st19{fill:url(#SVGID_14_);}
	.st20{fill:url(#SVGID_15_);}
	.st21{fill:url(#SVGID_16_);}
	.st22{fill:url(#SVGID_17_);}
	.st23{fill:url(#SVGID_18_);}
	.st24{fill:url(#SVGID_19_);}
	.st25{fill:url(#SVGID_20_);}
	.st26{fill:url(#SVGID_21_);}
	.st27{fill:#00114C;}
</style>
<g id="Background">
</g>
<g>
	
		<linearGradient id="SVGID_1_" gradientUnits="userSpaceOnUse" x1="5102.4297" y1="-193.4762" x2="3394.0278" y2="1625.1448" gradientTransform="matrix(-1 0 0 -1 4909.4194 2797.7961)">
		<stop  offset="0" style="stop-color:#DAE3FE"/>
		<stop  offset="1" style="stop-color:#E9EFFD"/>
	</linearGradient>
	<path class="st0" d="M319.9,2261.7c63,65,119.5,103.2,162.7,132.1c421.4,281.4,903,200.2,1052,172.5
		c240.2-44.8,443.1-76.2,617.4-233.7c396-357.7,376.7-1104,74.1-1566.3c-35.9-54.8-338-502.6-820.7-565.7
		c-11.8-1.6-20.6-2.5-28.3-3.3c-74.7-7.9-537.4-49.6-914.7,266.5c-54.1,45.3-141,126.9-221.6,251.4
		C-54,1170.4-54.8,1875.3,319.9,2261.7z"/>
	<g>
		<path class="st1" d="M338.6,273.4C289.8,515.3,63,1934.8,1356.8,2386.8c0,0,389.8-896-983.9-2124.9
			C360.9,251.1,341.8,257.6,338.6,273.4z"/>
		<path class="st2" d="M404.1,538.6c25.2,74.7,52,149,79.3,222.9c27.4,73.9,55.7,147.5,84.8,220.8
			c58.2,146.6,119.8,291.8,185.7,435.2c66,143.2,136.3,284.6,214.2,422.1c38.7,68.8,79.9,136.2,123.7,202.1
			c43.9,65.7,90.4,129.9,142,190.1c3.1,3.5,8.4,4,12,1c3.5-3.1,4-8.4,1-12l0,0l0,0c-51.3-59.3-97.8-122.7-141.7-187.8
			c-43.9-65.2-85.3-132.1-124.2-200.5c-78.3-136.5-149.2-277.2-215.9-419.9c-66.6-142.7-128.7-287.5-187.7-433.7
			c-29.5-73.1-58-146.5-85.8-220.2C463.6,685,436.4,611,410.9,536.5l0,0c-0.6-1.8-2.7-2.9-4.6-2.2
			C404.4,534.6,403.4,536.7,404.1,538.6z"/>
	</g>
	<g>
		<path class="st3" d="M1136.6,2483.4c0,0,16.5-240.8-203.7-505.8c-204.4-245.9-709.5-817.6-810.8-1118.1
			c-4.5-13.3-23.8-11.3-25.2,2.7c-14.9,150-22.9,528.6,202.9,925.8C591,2300.4,1136.6,2483.4,1136.6,2483.4z"/>
		<path class="st2" d="M185.6,1136c1.3,33.3,6.9,66.4,14.1,98.9c0.9,4,1.7,8.2,2.6,12.2l3.1,12.1l6.2,24.3l7.2,24
			c2.5,8,4.7,16.1,7.6,23.8c21.6,63.1,48.4,124.7,80.4,183.3c7.4,15,16.4,29.1,24.7,43.6l12.7,21.5c2.2,3.6,4.1,7.3,6.5,10.7
			l6.9,10.5l27.5,41.9c4.4,7.1,9.6,13.6,14.5,20.4l14.9,20.2l14.9,20.2l7.5,10.1l7.9,9.7l31.7,38.9c5.4,6.4,10.5,13.1,15.9,19.3
			l16.4,18.8l32.8,37.6l33.2,37.3c11.2,12.4,22.2,24.9,33.4,37.1c22.4,24.6,45,49.1,67.9,73.3c22.7,24.4,45.8,48.4,68.8,72.5
			l69.6,71.7c46.4,47.7,92.9,95.2,137.8,144.3c11.3,12.1,22.2,24.7,33.1,37.2c5.5,6.2,10.7,12.7,16,19.1
			c5.2,6.4,10.6,12.8,15.7,19.3c9.8,13.4,20.2,26.3,29.1,40.3l6.9,10.3c1.1,1.8,2.4,3.4,3.4,5.2l3.1,5.4l12.4,21.5l0.1,0.1
			c0.5,0.9,1.6,1.1,2.5,0.7c0.8-0.4,1.1-1.5,0.7-2.4c-15-29.9-33.2-58-53.1-84.9c-4.9-6.7-10.2-13.2-15.3-19.8
			c-5.2-6.6-10.2-13.3-15.7-19.5c-10.7-12.7-21.3-25.8-32.4-38.2l-16.5-18.8c-5.5-6.2-11.3-12.3-16.9-18.5l-16.9-18.4l-17.1-18.2
			c-22.7-24.4-45.7-48.4-68.6-72.6c-45.8-48.3-91.5-96.5-136.8-145.3s-89.8-98-133.9-147.8l-32.7-37.6l-16.4-18.8
			c-5.5-6.2-10.6-12.8-15.9-19.2l-31.6-38.4l-7.9-9.6l-7.5-9.9l-14.9-20c-40.2-52.7-75.9-108.7-108.6-166.4
			c-33-57.5-60.8-118-83.4-180.3c-3.1-7.7-5.4-15.7-8.2-23.5l-7.9-23.6l-6.9-23.9l-3.4-12c-1.1-4-2-8.1-3-12
			c-1.9-8.1-4.1-16.1-5.8-24.2l-5-24.4c-2.8-16.4-5.7-32.8-6.9-49.3c0-0.1-0.1-0.3-0.3-0.3C185.6,1135.8,185.6,1135.9,185.6,1136z"
			/>
	</g>
	<g>
		
			<linearGradient id="SVGID_2_" gradientUnits="userSpaceOnUse" x1="1306.9786" y1="313.067" x2="1187.9865" y2="3835.2974" gradientTransform="matrix(1 0 0 -1 0 2797.7961)">
			<stop  offset="0" style="stop-color:#09005D"/>
			<stop  offset="1" style="stop-color:#1A0F91"/>
		</linearGradient>
		<path class="st4" d="M469.8,629.1C469.8,545,538,477,622,477h1293.8c71.4,0,130.2,55.9,133.8,127.2l95.5,1875.7
			c2.8,55.7-41.1,102.9-96.9,103.8l-1482.9,26.9c-52.5,1-95.5-41.3-95.5-93.8L469.8,629.1L469.8,629.1z"/>
		<path class="st3" d="M782.2,2578.8C782.1,2578.8,782.1,2578.8,782.2,2578.8l-165.9-2.1c-55.5-0.7-100.6-46.4-100.6-101.9v-250.5
			c0-1.9,1.6-3.5,3.5-3.5c1.9,0,3.5,1.6,3.5,3.5v250.5c0,51.6,42,94.2,93.6,94.9l165.9,2.1c1.9,0,3.5,1.7,3.5,3.6
			C785.6,2577.3,784.1,2578.8,782.2,2578.8z"/>
		<path class="st3" d="M519.1,2150.2c-1.9,0-3.5-1.6-3.5-3.5v-40.5c0-1.9,1.6-3.5,3.5-3.5c1.9,0,3.5,1.6,3.5,3.5v40.5
			C522.6,2148.6,521,2150.2,519.1,2150.2z"/>
		<g>
			
				<linearGradient id="SVGID_3_" gradientUnits="userSpaceOnUse" x1="665.0821" y1="-59.0158" x2="2145.6499" y2="3079.7834" gradientTransform="matrix(1 0 0 -1 0 2797.7961)">
				<stop  offset="0" style="stop-color:#4F52FF"/>
				<stop  offset="1" style="stop-color:#4042E2"/>
			</linearGradient>
			<path class="st5" d="M575.9,505.8c-0.2-26.9,23.5-47.7,50.1-44.1c176.7,23.9,784.3,98,1286.5,59.5c22.9-1.8,42.8,15.6,44,38.5
				l100.2,1884.1c1.4,25.9-18.4,47.9-44.1,49.4c-211.3,12.5-1081.3,60.8-1391.7,28.3c-18.9-2-33.2-17.9-33.3-36.8L575.9,505.8z"/>
			<path class="st1" d="M596.7,553c-0.2-25.9,22.6-45.9,48.3-42.4c170.1,23,754.7,94.3,1238.1,57.2c22.1-1.7,41.2,15,42.4,37.1
				l96.4,1813.1c1.3,24.9-17.7,46.2-42.6,47.6c-203.3,12-1040.6,58.6-1339.3,27.3c-18.2-1.9-32-17.2-32.1-35.5L596.7,553z"/>
			<path class="st6" d="M1855.4,823.4H718.9c-5.1,0-9.1-4.1-9.1-9.1V677.2c0-5.1,4.1-9.1,9.1-9.1h1136.4c5.1,0,9.1,4.1,9.1,9.1
				v137.1C1864.5,819.4,1860.5,823.4,1855.4,823.4z"/>
			<path class="st6" d="M1878.3,1551.1h-1166c-2.8,0-5.2-2.3-5.2-5.2v-67.4c0-2.8,2.3-5.2,5.2-5.2h1166c2.8,0,5.2,2.3,5.2,5.2v67.4
				C1883.5,1548.7,1881.2,1551.1,1878.3,1551.1z"/>
			<path class="st6" d="M1879.7,1671H710.9c-2.1,0-3.8-1.7-3.8-3.8V1597c0-2.1,1.7-3.8,3.8-3.8h1168.8c2.1,0,3.8,1.7,3.8,3.8v70.2
				C1883.5,1669.3,1881.8,1671,1879.7,1671z"/>
			<path class="st6" d="M1904.5,2355.8H712.7c-2.5,0-4.6-2-4.6-4.6v-68.7c0-2.5,2-4.6,4.6-4.6h1191.8c2.5,0,4.6,2,4.6,4.6v68.7
				C1909.1,2353.7,1907.1,2355.8,1904.5,2355.8z"/>
			<path class="st7" d="M1854,1392H735.4c-15.6,0-28.2-12.7-28.2-28.2V944.9c0-15.6,12.7-28.2,28.2-28.2H1835
				c15,0,27.5,11.9,28.1,26.9l19,418.8C1882.9,1378.5,1870,1392,1854,1392z"/>
			<path class="st8" d="M1854.7,1396.4H736.1c-17.9,0-32.6-14.6-32.6-32.6V944.9c0-17.9,14.6-32.6,32.6-32.6h1099.7
				c17.5,0,31.7,13.6,32.5,31.1l19,418.8c0.4,9-2.8,17.5-9,24C1872,1392.8,1863.6,1396.4,1854.7,1396.4z M736.1,921.1
				c-13.1,0-23.8,10.7-23.8,23.8v418.8c0,13.1,10.6,23.8,23.8,23.8h1118.6c6.6,0,12.7-2.6,17.2-7.4c4.6-4.7,6.9-11,6.6-17.5
				l-19-418.8c-0.6-12.7-11-22.8-23.8-22.8L736.1,921.1L736.1,921.1z"/>
			<path class="st7" d="M1871.9,2230.6h-1128c-19.8,0-35.8-16-35.8-35.8v-403.7c0-19.8,16-35.8,35.8-35.8h1112.3
				c19.3,0,35,15.2,35.7,34.4l15.7,403.7C1908.4,2213.8,1892.2,2230.6,1871.9,2230.6z"/>
			<path class="st8" d="M1871.9,2235h-1128c-22.2,0-40.2-18-40.2-40.2v-403.7c0-22.2,18-40.2,40.2-40.2h1112.3
				c21.6,0,39.3,17,40.1,38.6l15.7,403.7c0.4,11-3.5,21.5-11.2,29.4C1893.2,2230.6,1882.9,2235,1871.9,2235z M743.9,1759.8
				c-17.3,0-31.4,14.1-31.4,31.4v403.7c0,17.3,14.1,31.4,31.4,31.4h1127.9c8.6,0,16.6-3.4,22.6-9.6c6-6.2,9.1-14.3,8.7-22.9
				l-15.7-403.7c-0.6-16.9-14.4-30.2-31.4-30.2L743.9,1759.8L743.9,1759.8z"/>
			
				<rect x="1055.2" y="916.7" transform="matrix(0.9999 -1.660860e-02 1.660860e-02 0.9999 -19.0262 17.7581)" class="st8" width="8.8" height="475.3"/>
			
				<rect x="1487.9" y="916.6" transform="matrix(0.9996 -2.699235e-02 2.699235e-02 0.9996 -30.6134 40.702)" class="st8" width="8.8" height="475.4"/>
			
				<rect x="1059.5" y="1056.6" transform="matrix(0.9999 -1.431974e-02 1.431974e-02 0.9999 -15.043 21.0758)" class="st8" width="809.4" height="8.8"/>
			<rect x="1061.3" y="1241.9" class="st8" width="815.4" height="8.8"/>
			
				<rect x="820.9" y="1988.6" transform="matrix(1.236496e-02 -0.9999 0.9999 1.236496e-02 -947.4295 3026.7732)" class="st8" width="475.3" height="8.8"/>
			<rect x="1064.2" y="1864.4" class="st8" width="833" height="8.8"/>
			<rect x="1058.3" y="1978.4" class="st8" width="841.7" height="8.8"/>
			
				<rect x="1477.6" y="1685.4" transform="matrix(1.247353e-02 -0.9999 0.9999 1.247353e-02 -644.2194 3563.4324)" class="st8" width="8.8" height="845"/>
		</g>
		
			<linearGradient id="SVGID_4_" gradientUnits="userSpaceOnUse" x1="1493.4493" y1="2769.7488" x2="898.3528" y2="1986.9131" gradientTransform="matrix(1 0 0 -1 0 2797.7961)">
			<stop  offset="0" style="stop-color:#09005D"/>
			<stop  offset="1" style="stop-color:#1A0F91"/>
		</linearGradient>
		<path class="st9" d="M1349.1,221.2c-46.7-32.5-87.4-31.8-116-23.4c-26.1,7.7-43,32.9-40.5,60l12.3,134.6l146.8,13
			C1351.8,405.5,1440.8,285,1349.1,221.2z M1284.6,329.8c-20.2,0-36.6-16.4-36.6-36.6c0-20.2,16.4-36.6,36.6-36.6
			c20.2,0,36.6,16.4,36.6,36.6S1304.8,329.8,1284.6,329.8z"/>
		<path class="st3" d="M1219.6,335.7c-1.8,0-3.3-1.4-3.5-3.3l-1.9-21.5c-0.2-1.9,1.2-3.7,3.2-3.9c2-0.2,3.7,1.2,3.9,3.2l1.9,21.5
			c0.2,1.9-1.2,3.7-3.2,3.9C1219.9,335.7,1219.8,335.7,1219.6,335.7z M1215.8,293.7c-1.8,0-3.3-1.4-3.5-3.3l-1.5-16.3
			c-2.4-25.9,13.9-49.9,38.6-57.2c17.5-5.2,35.6-5.9,53.6-2.2c1.9,0.4,3.2,2.3,2.7,4.2c-0.4,1.9-2.3,3.2-4.2,2.7
			c-17-3.4-33.9-2.8-50.2,2c-21.5,6.3-35.6,27.3-33.6,49.7l1.5,16.3c0.2,1.9-1.2,3.7-3.2,3.9C1216,293.7,1215.9,293.7,1215.8,293.7z
			"/>
		
			<linearGradient id="SVGID_5_" gradientUnits="userSpaceOnUse" x1="1558.7196" y1="2720.1333" x2="963.6223" y2="1937.2969" gradientTransform="matrix(1 0 0 -1 0 2797.7961)">
			<stop  offset="0" style="stop-color:#09005D"/>
			<stop  offset="1" style="stop-color:#1A0F91"/>
		</linearGradient>
		<path class="st10" d="M1004.6,479.4v-67.7c0-23.4,19.3-42.1,42.7-41.3l466.7,16c20.8,0.7,37.5,17.1,38.7,37.7l3.9,65.1
			L1004.6,479.4z"/>
		<path class="st3" d="M1178.6,396h-20c-1.9,0-3.5-1.6-3.5-3.5c0-1.9,1.6-3.5,3.5-3.5h20c1.9,0,3.5,1.6,3.5,3.5
			C1182.2,394.4,1180.7,396,1178.6,396z"/>
		<path class="st3" d="M1029.9,458.1c-1.9,0-3.5-1.6-3.5-3.5v-27.3c0-21.2,17.2-38.3,38.3-38.3h73.8c1.9,0,3.5,1.6,3.5,3.5
			c0,1.9-1.6,3.5-3.5,3.5h-73.8c-17.2,0-31.3,14.1-31.3,31.3v27.3C1033.5,456.6,1031.9,458.1,1029.9,458.1z"/>
		
			<linearGradient id="SVGID_6_" gradientUnits="userSpaceOnUse" x1="1483.7852" y1="2672.2053" x2="1072.8832" y2="1917.7058" gradientTransform="matrix(1 0 0 -1 0 2797.7961)">
			<stop  offset="0" style="stop-color:#4F52FF"/>
			<stop  offset="1" style="stop-color:#4042E2"/>
		</linearGradient>
		<path class="st11" d="M814.4,496.6c1.1-23.5,20.5-41.9,44-41.9h816.2c29.4,0,54.4,21.1,59.4,50l0.7,4
			c5.5,31.7-18.9,60.7-51.1,60.7H846.3c-19.3,0-34.6-16.1-33.7-35.3L814.4,496.6z"/>
	</g>
	<g>
		<g>
			
				<linearGradient id="SVGID_7_" gradientUnits="userSpaceOnUse" x1="-2260.9102" y1="239.1286" x2="-2162.834" y2="239.1286" gradientTransform="matrix(-1 0 0 -1 446.5949 2797.7961)">
				<stop  offset="0" style="stop-color:#09005D"/>
				<stop  offset="1" style="stop-color:#1A0F91"/>
			</linearGradient>
			<path class="st12" d="M2693.9,2524.2c0,0,10.9,17.1,13.6,65.2c0.3,4.5-3.3,8.3-7.7,8.3h-85.3c-3.4,0-5.9-3.3-4.7-6.6
				c5-14.8,20.1-50.8,53.8-71.4L2693.9,2524.2z"/>
			
				<linearGradient id="SVGID_8_" gradientUnits="userSpaceOnUse" x1="-2250.96" y1="284.6866" x2="-2211.2153" y2="284.6866" gradientTransform="matrix(-1 0 0 -1 446.5949 2797.7961)">
				<stop  offset="0" style="stop-color:#FEBBBA"/>
				<stop  offset="1" style="stop-color:#FF928E"/>
			</linearGradient>
			<path class="st13" d="M2697.6,2491.5l-4.8,40.4c-0.4,3.5-3.2,6.2-6.6,6.7c-4.7,0.5-11.4,0.9-18-0.2c-6-1-10.3-6.3-10.3-12.4v-39
				L2697.6,2491.5z"/>
			
				<linearGradient id="SVGID_9_" gradientUnits="userSpaceOnUse" x1="-2052.4158" y1="240.7115" x2="-1898.624" y2="240.7115" gradientTransform="matrix(-1 0 0 -1 446.5949 2797.7961)">
				<stop  offset="0" style="stop-color:#09005D"/>
				<stop  offset="1" style="stop-color:#1A0F91"/>
			</linearGradient>
			<path class="st14" d="M2483,2519.7c0,0,16.3,25.3,16,60.1c-0.1,8.2-6.9,14.7-15.1,14.7h-132.3c-6.2,0-8.7-8-3.6-11.5
				c25.1-17.6,74.3-50.5,109.9-63.3L2483,2519.7L2483,2519.7z"/>
			
				<linearGradient id="SVGID_10_" gradientUnits="userSpaceOnUse" x1="-2050.0386" y1="302.2778" x2="-2010.49" y2="302.2778" gradientTransform="matrix(-1 0 0 -1 446.5949 2797.7961)">
				<stop  offset="0" style="stop-color:#FEBBBA"/>
				<stop  offset="1" style="stop-color:#FF928E"/>
			</linearGradient>
			<path class="st15" d="M2496.6,2476.1l-10.3,49.9c-1.1,5.5-6.6,9.3-12.1,8.1c-3.3-0.8-7.4-2.2-11.6-4.8c-4-2.5-6.1-7.4-5.3-12
				l10.6-60.5L2496.6,2476.1z"/>
			
				<linearGradient id="SVGID_11_" gradientUnits="userSpaceOnUse" x1="-2275.656" y1="653.1415" x2="-2006.0734" y2="653.1415" gradientTransform="matrix(-1 0 0 -1 446.5949 2797.7961)">
				<stop  offset="0" style="stop-color:#09005D"/>
				<stop  offset="1" style="stop-color:#1A0F91"/>
			</linearGradient>
			<path class="st16" d="M2678.6,1782c0,0,35.8,31.5,42.5,69.5c6.8,37.9-19.1,654.2-19.1,654.2s-35.8,6-54.2-5.2
				c0,0-21.9-399.9-38.4-492.3c0,0-87.1,414.3-111.2,489.2c0,0-34.5,4.2-45.5-2.4c0,0,22.9-537.1,51.5-632.5L2678.6,1782z"/>
			
				<linearGradient id="SVGID_12_" gradientUnits="userSpaceOnUse" x1="2606.8577" y1="846.1788" x2="2661.9863" y2="846.1788" gradientTransform="matrix(1 0 0 -1 0 2797.7961)">
				<stop  offset="0" style="stop-color:#4F52FF"/>
				<stop  offset="1" style="stop-color:#4042E2"/>
			</linearGradient>
			<path class="st17" d="M2610.4,1994.8c-0.3,0-0.6,0-0.9-0.1c-1.9-0.5-3.1-2.5-2.6-4.4l15.2-58.2c0.3-0.9,0.8-1.7,1.5-2.1l32.8-21
				c1.7-1.1,3.9-0.6,4.9,1.1c1.1,1.7,0.6,3.9-1.1,4.9l-31.7,20.3l-14.9,56.9C2613.5,1993.8,2612.1,1994.8,2610.4,1994.8z"/>
			
				<linearGradient id="SVGID_13_" gradientUnits="userSpaceOnUse" x1="-305.5181" y1="1762.8093" x2="-802.3893" y2="685.1802" gradientTransform="matrix(-1 0 0 -1 1851.4838 2797.7961)">
				<stop  offset="0" style="stop-color:#FF928E"/>
				<stop  offset="1" style="stop-color:#FE7062"/>
			</linearGradient>
			<path class="st18" d="M2325.9,1426c150.4-12.5,189.8,18.6,189.8,18.6l-72.3,114.1c0,0-147.9-2.9-253.8-84.6
				c19.8-21.4,33.6-44.9,42.5-63.3C2259.3,1422.2,2290.8,1428.9,2325.9,1426z"/>
			
				<linearGradient id="SVGID_14_" gradientUnits="userSpaceOnUse" x1="-1785.2798" y1="1460.3281" x2="-1638.245" y2="1460.3281" gradientTransform="matrix(-1 0 0 -1 446.5949 2797.7961)">
				<stop  offset="0" style="stop-color:#FEBBBA"/>
				<stop  offset="1" style="stop-color:#FF928E"/>
			</linearGradient>
			<path class="st19" d="M2090.2,1205.1c0.2-4.8,6.8-6.2,8.8-1.8l19.2,41c3.7,7.9,4.9,16.8,3.4,25.4l-6.8,23.8
				c-2,11.6,1.1,23.6,8.4,32.8c17.7,22.1,55.2,62.3,108.7,84.6c-8.8,18.4-22.6,41.9-42.5,63.3c-38.9-30-72.1-70.5-90.3-125.4
				c-8.7-2.6-14.6-10.9-14.2-20L2090.2,1205.1z"/>
			
				<linearGradient id="SVGID_15_" gradientUnits="userSpaceOnUse" x1="2924.2996" y1="2400.3442" x2="2678.8147" y2="1760.3302" gradientTransform="matrix(1 0 0 -1 0 2797.7961)">
				<stop  offset="0" style="stop-color:#FF928E"/>
				<stop  offset="1" style="stop-color:#FE7062"/>
			</linearGradient>
			<path class="st20" d="M2276.4,1492.2c52.9-57.1,153.9-82.8,212.3-93.5c25.6-4.7,50.8,9.6,59.9,33.9
				c26.3,70.7,97.8,254.6,111.7,286.1c11.3,25.9,23.2,51.3,30.8,67.1c4.5,9.5,0.5,20.8-8.9,25.3c-49.2,23.7-137.6,50.5-173.5,60.9
				c-7.9,2.3-15.7-3.6-15.7-11.9c0-6.9-1.9-13.8-5.5-19.8l-135.8-226.3c-84.7,93.8-158.8,102.4-215.7,81.9
				c9.6-29.6,15.8-59.3,18.8-88.9C2238.9,1592.8,2276.4,1492.2,2276.4,1492.2z"/>
			
				<linearGradient id="SVGID_16_" gradientUnits="userSpaceOnUse" x1="-1416.9187" y1="1467.781" x2="-1776.3698" y2="1020.5896" gradientTransform="matrix(-1 0 0 -1 446.5949 2797.7961)">
				<stop  offset="0" style="stop-color:#FEBBBA"/>
				<stop  offset="1" style="stop-color:#FF928E"/>
			</linearGradient>
			<path class="st21" d="M1992.1,1574.9l27.5-16.1c49.2,33.8,101.6,54.2,135.2,48.4c-3,29.7-9.2,59.4-18.8,88.9
				C2060.9,1669.1,1992.1,1574.9,1992.1,1574.9z"/>
			
				<linearGradient id="SVGID_17_" gradientUnits="userSpaceOnUse" x1="-1426.6298" y1="1324.8212" x2="-1631.8276" y2="1069.5352" gradientTransform="matrix(-1 0 0 -1 446.5949 2797.7961)">
				<stop  offset="0" style="stop-color:#FEBBBA"/>
				<stop  offset="1" style="stop-color:#FF928E"/>
			</linearGradient>
			<path class="st22" d="M1861.5,1580.7c17.1-9.3,67.9-17.3,67.9-17.3s58.3-34.1,75.1-40.8c14-5.5,20,15.3,21.5,22.5
				c0.4,1.5,0.5,2.4,0.5,2.4l-2.2,13.9l-58.9,26.2c-12.6,5.6-26.6,7.7-40.2,5.8l-63-8.3c-1-0.2-1.8-0.9-2-1.9
				C1860.1,1582.2,1860.5,1581.1,1861.5,1580.7z"/>
			
				<linearGradient id="SVGID_18_" gradientUnits="userSpaceOnUse" x1="-1809.8774" y1="1667.0879" x2="-2117.4587" y2="1101.938" gradientTransform="matrix(-1 0 0 -1 446.5949 2797.7961)">
				<stop  offset="0" style="stop-color:#FEBBBA"/>
				<stop  offset="1" style="stop-color:#FF928E"/>
			</linearGradient>
			<path class="st23" d="M2408.3,1293.8l45.1,110.1c0,0-51.9,35.9-93.6,32.4l-22.5-99L2408.3,1293.8z"/>
			<g>
				
					<linearGradient id="SVGID_19_" gradientUnits="userSpaceOnUse" x1="-1034.267" y1="806.5049" x2="-1170.2004" y2="626.6763" gradientTransform="matrix(-0.817 -0.5767 0.5767 -0.817 1043.3912 1297.2756)">
					<stop  offset="0" style="stop-color:#FEBBBA"/>
					<stop  offset="1" style="stop-color:#FF928E"/>
				</linearGradient>
				<path class="st24" d="M2332.1,1218.8c-1.1,1.5-32.6,115.6-32.6,115.6l65.6,16.7l46.1-103.8
					C2411.1,1247.3,2349.3,1194.3,2332.1,1218.8z"/>
				
					<linearGradient id="SVGID_20_" gradientUnits="userSpaceOnUse" x1="-1138.0703" y1="763.0224" x2="-975.667" y2="763.0224" gradientTransform="matrix(-0.817 -0.5767 0.5767 -0.817 1043.3912 1297.2756)">
					<stop  offset="0" style="stop-color:#09005D"/>
					<stop  offset="1" style="stop-color:#1A0F91"/>
				</linearGradient>
				<path class="st25" d="M2386.4,1263.1l-20,56.5c-0.3,0.7-0.6,1.4-1.1,2c-2.7,3.9-13,16.4-25.2,5.1
					c-11.1-10.3-21.4-19.4-30.8-21.1c-4.2-0.8-8.4,1.8-9.5,6c-2.9,10.4-8.9,33.9-11,55.1c-0.4,4.3,2.5,8.2,6.8,9
					c12.8,2.5,40,6.8,62.6,5.2c3.1-0.2,5.8-2,7-4.8c6.2-13.6,25.4-55,32.5-65.8c6.7-10,23-9.8,30-9.1c2.3,0.2,4.5-0.5,6.2-2
					c6-5.3,17.4-18.7,1.3-34.8c-3.3-3.3-3.3-8.8,0.2-12c6.9-6.5,14.3-18,2.8-32.4c-11.7-14.5-27.2-12.2-36.6-8.8
					c-3.9,1.4-8-0.3-10.1-3.7c-1.1-2-3.3-3.5-6.9-3.2c-4.8,0.4-8.9-3.6-8.8-8.4c0.2-9.3-3.2-21.1-19.3-26.1
					c-28.7-8.9-46.5,18.7-48.3,39.4c-1.8,20.7,29.8,28.6,48.4,27.2c14.2-1.1,24.6,12.9,28.8,19.7
					C2386.9,1258.1,2387.2,1260.8,2386.4,1263.1z"/>
				
					<linearGradient id="SVGID_21_" gradientUnits="userSpaceOnUse" x1="-1233.2848" y1="664.0383" x2="-1124.2543" y2="775.9007" gradientTransform="matrix(-0.817 -0.5767 0.5767 -0.817 1043.3912 1297.2756)">
					<stop  offset="0" style="stop-color:#FEBBBA"/>
					<stop  offset="1" style="stop-color:#FF928E"/>
				</linearGradient>
				<path class="st26" d="M2390.3,1330.8c0,0,4.7-35.9,19.5-37.6c14.9-1.8,29.5,10.5,14.6,30.6
					C2406.1,1348.9,2390.3,1330.8,2390.3,1330.8z"/>
			</g>
		</g>
	</g>
	<g>
		<path class="st27" d="M1055.8,1785.6c-0.4-7.6-8.4-11-14.2-6.3c-16.5,13.1-23.2,33.5-31.4,52.5c-9.5,22.2-18.6,44.5-26.6,67.2
			c-8.5,23.9-15.7,48.3-21.3,73.1c-11-29.5-23.7-58.4-39.8-85.6c-4.3-7.2-16.4-3-14,5.6c14,50.1,31.1,99.1,44.3,149.5
			c4.7,17.8,28.8,13.5,30.5-3.5c4.9-46.6,16.1-91.2,31.9-135.2c7.6-20.9,15.9-41.5,24.6-62
			C1047.5,1822.6,1056.9,1805.7,1055.8,1785.6z"/>
		<path class="st27" d="M1078.5,1822.7c-14.3-2.7-19.6,15.8-6.4,21.7c87.2,38.7,98.6,147.6,35.6,213.7
			c-29.1,30.5-67.8,54.3-104.4,74.6c-37.1,20.7-78.6,36.4-121.7,32.1c-99.9-10.1-113.4-112.6-83.6-191.7
			c28.8-76.1,90.2-134.8,165.5-162.9c9.8-3.6,6-19.6-4-16c-70.7,25.5-130.8,75.9-168,141.8c-34.3,60.7-54.9,146.2-9.9,207.1
			c46.4,63,134.5,64.1,200.9,37.9c73-28.8,163.9-82.5,193-160.3C1205.9,1939.2,1168.3,1839.7,1078.5,1822.7z"/>
	</g>
	<g>
		<path class="st27" d="M970.7,938.9c-0.3-5.1-5.5-7.3-9.5-4.2c-11,8.7-15.5,22.2-20.8,34.9c-6.3,14.7-12.3,29.5-17.7,44.7
			c-5.6,15.9-10.5,32.1-14.2,48.5c-7.3-19.6-15.7-38.8-26.5-56.9c-2.8-4.8-10.9-2-9.3,3.7c9.3,33.2,20.8,65.9,29.5,99.3
			c3.1,11.8,19.1,9.1,20.3-2.3c3.3-31,10.6-60.6,21.2-89.9c5-13.9,10.6-27.6,16.4-41.2C965.2,963.5,971.5,952.2,970.7,938.9z"/>
		<path class="st27" d="M985.8,963.6c-9.6-1.8-13,10.6-4.2,14.4c57.9,25.7,65.5,98.1,23.7,141.9c-19.3,20.3-45,36.1-69.4,49.5
			c-24.6,13.7-52.2,24.2-80.8,21.3c-66.3-6.7-75.4-74.8-55.6-127.3c19.1-50.6,60-89.5,110-108.2c6.4-2.5,4-13-2.6-10.6
			c-47,17.1-87,50.6-111.7,94.3c-22.8,40.3-36.4,97.1-6.6,137.5c30.9,41.9,89.3,42.6,133.5,25.1c48.5-19.2,108.9-54.8,128.2-106.5
			C1070.4,1040.9,1045.4,974.8,985.8,963.6z"/>
	</g>
	<g>
		<path class="st27" d="M1319.9,1020.4c-0.2-3.4-3.8-4.9-6.4-2.8c-7.4,5.9-10.5,15-14.1,23.6c-4.2,9.9-8.4,20-12,30.2
			c-3.8,10.7-7.1,21.7-9.6,32.8c-4.9-13.3-10.6-26.2-17.9-38.5c-1.9-3.3-7.4-1.3-6.3,2.6c6.2,22.5,14,44.5,20,67.2
			c2.1,8,12.9,6.1,13.7-1.6c2.2-20.9,7.2-41,14.3-60.8c3.3-9.4,7.2-18.6,11.1-27.9C1316.3,1037,1320.5,1029.3,1319.9,1020.4z"/>
		<path class="st27" d="M1330.1,1037c-6.4-1.2-8.8,7.1-2.9,9.8c39.1,17.4,44.3,66.3,16,95.9c-13.1,13.7-30.4,24.4-46.9,33.5
			c-16.7,9.3-35.3,16.4-54.7,14.4c-44.8-4.6-51-50.6-37.5-86.1c12.9-34.2,40.5-60.5,74.4-73.2c4.4-1.7,2.6-8.8-1.8-7.2
			c-31.7,11.5-58.7,34.1-75.4,63.7c-15.4,27.3-24.6,65.7-4.5,93c20.8,28.3,60.4,28.8,90.2,17c32.8-13,73.6-37,86.7-72
			C1387.4,1089.3,1370.5,1044.6,1330.1,1037z"/>
	</g>
</g>
</svg>
