<?xml version="1.0" encoding="utf-8"?>
<!-- Generator: Adobe Illustrator 23.0.2, SVG Export Plug-In . SVG Version: 6.00 Build 0)  -->
<svg version="1.1" id="Capa_1" xmlns="http://www.w3.org/2000/svg" xmlns:xlink="http://www.w3.org/1999/xlink" x="0px" y="0px"
	 viewBox="0 0 100 100" style="enable-background:new 0 0 100 100;" xml:space="preserve">
<style type="text/css">
	.st0{fill:url(#SVGID_1_);}
	.st1{fill:url(#SVGID_2_);}
	.st2{fill:#BDC6E3;}
	.st3{fill:url(#SVGID_3_);}
	.st4{fill:none;stroke:url(#SVGID_4_);stroke-miterlimit:10;}
	.st5{fill:url(#SVGID_5_);}
	.st6{fill:url(#SVGID_6_);}
	.st7{fill:url(#SVGID_7_);}
	.st8{opacity:0.72;fill:#FFFFFF;enable-background:new    ;}
	.st9{fill:#FFFFFF;}
	.st10{fill:url(#SVGID_8_);}
	.st11{fill:url(#SVGID_9_);}
	.st12{fill:#93A2CE;}
	.st13{fill:url(#SVGID_10_);}
	.st14{fill:url(#SVGID_11_);}
	.st15{fill:url(#SVGID_12_);}
	.st16{fill:url(#SVGID_13_);}
	.st17{fill:url(#SVGID_14_);}
	.st18{fill:url(#SVGID_15_);}
	.st19{fill:none;stroke:url(#SVGID_16_);stroke-width:3;stroke-miterlimit:10;}
	.st20{fill:none;stroke:url(#SVGID_17_);stroke-width:3;stroke-miterlimit:10;}
	.st21{fill:url(#SVGID_18_);}
	.st22{fill:url(#SVGID_19_);}
	.st23{fill:url(#SVGID_20_);}
	.st24{fill:url(#SVGID_21_);}
	.st25{fill:url(#SVGID_22_);}
	.st26{fill:none;stroke:url(#SVGID_23_);stroke-width:1.5;stroke-miterlimit:10;}
	.st27{fill:url(#SVGID_24_);}
</style>
<g>
	
		<linearGradient id="SVGID_1_" gradientUnits="userSpaceOnUse" x1="215.8239" y1="212.5011" x2="144.639" y2="89.6721" gradientTransform="matrix(1 0 0 -1 0 -146)">
		<stop  offset="0" style="stop-color:#1B2057"/>
		<stop  offset="1" style="stop-color:#23207E"/>
	</linearGradient>
	<circle class="st0" cx="50.2" cy="-72.8" r="49.8"/>
	
		<linearGradient id="SVGID_2_" gradientUnits="userSpaceOnUse" x1="215.824" y1="212.5011" x2="144.6395" y2="89.6728" gradientTransform="matrix(1 0 0 -1 0 -146)">
		<stop  offset="0" style="stop-color:#1B2057"/>
		<stop  offset="1" style="stop-color:#23207E"/>
	</linearGradient>
	<circle class="st1" cx="50.2" cy="-72.8" r="48.1"/>
	<path class="st2" d="M10.6-91.7c-0.2,0-0.3,0-0.5-0.1c-0.5-0.3-0.7-0.9-0.5-1.4c7.8-15.4,23.3-25,40.6-25c2.8,0,5.5,0.3,8.2,0.7
		c0.6,0.1,1,0.7,0.9,1.3c-0.1,0.6-0.7,1-1.3,0.9c-2.6-0.5-5.2-0.7-7.8-0.7c-16.5,0-31.3,9.1-38.7,23.8
		C11.3-91.9,10.9-91.7,10.6-91.7z"/>
	<ellipse class="st2" cx="51.3" cy="-71.7" rx="40.7" ry="40.7"/>
	<g>
		
			<linearGradient id="SVGID_3_" gradientUnits="userSpaceOnUse" x1="217.5382" y1="211.2848" x2="146.3535" y2="88.4562" gradientTransform="matrix(1 0 0 -1 0 -146)">
			<stop  offset="0" style="stop-color:#1B2057"/>
			<stop  offset="1" style="stop-color:#23207E"/>
		</linearGradient>
		<path class="st3" d="M46.9-41.4v-4.4c-4.6-0.2-9.2-1.3-12.4-2.7c-1.2-0.5-1.8-1.8-1.4-3l1.1-4.1c0.4-1.5,2.1-2.3,3.5-1.7
			c3.2,1.4,7.2,2.4,11.5,2.4c4.5,0,7.8-1.5,7.8-4.6c0-2.8-2.6-4.5-8.8-6.1C39.4-68.1,33-72,33-79.7c0-7,5.1-12.4,14-13.8V-98
			c0-1.4,1.2-2.6,2.6-2.6h2.6c1.4,0,2.6,1.2,2.6,2.6v4c4.3,0.2,7.4,0.9,9.8,1.8c1.3,0.4,2,1.8,1.6,3.1l-1,3.8
			c-0.4,1.5-2,2.3-3.4,1.7c-2.3-0.9-5.5-1.8-9.7-1.8c-5.3,0-6.8,2.2-6.8,4.2c0,2.4,3.2,4.1,10,6.2c9.8,2.9,13.9,7,13.9,14.3
			c0,6.7-5,12.7-14.6,14.3v5c0,1.4-1.2,2.6-2.6,2.6h-2.6C48.1-38.9,46.9-40,46.9-41.4z"/>
	</g>
	<g>
		
			<linearGradient id="SVGID_4_" gradientUnits="userSpaceOnUse" x1="65.0166" y1="-51.8898" x2="36.7167" y2="-100.7211" gradientTransform="matrix(1 0 0 -1 0 -146)">
			<stop  offset="0" style="stop-color:#1B2057"/>
			<stop  offset="1" style="stop-color:#23207E"/>
		</linearGradient>
		<path class="st4" d="M46.9-41.4v-4.4c-4.6-0.2-9.2-1.3-12.4-2.7c-1.2-0.5-1.8-1.8-1.4-3l1.1-4.1c0.4-1.5,2.1-2.3,3.5-1.7
			c3.2,1.4,7.2,2.4,11.5,2.4c4.5,0,7.8-1.5,7.8-4.6c0-2.8-2.6-4.5-8.8-6.1C39.4-68.1,33-72,33-79.7c0-7,5.1-12.4,14-13.8V-98
			c0-1.4,1.2-2.6,2.6-2.6h2.6c1.4,0,2.6,1.2,2.6,2.6v4c4.3,0.2,7.4,0.9,9.8,1.8c1.3,0.4,2,1.8,1.6,3.1l-1,3.8
			c-0.4,1.5-2,2.3-3.4,1.7c-2.3-0.9-5.5-1.8-9.7-1.8c-5.3,0-6.8,2.2-6.8,4.2c0,2.4,3.2,4.1,10,6.2c9.8,2.9,13.9,7,13.9,14.3
			c0,6.7-5,12.7-14.6,14.3v5c0,1.4-1.2,2.6-2.6,2.6h-2.6C48.1-38.9,46.9-40,46.9-41.4z"/>
	</g>
</g>
<g>
	
		<linearGradient id="SVGID_5_" gradientUnits="userSpaceOnUse" x1="-39.9533" y1="-5.387" x2="-41.9021" y2="-77.9428" gradientTransform="matrix(1 0 0 -1 0 -146)">
		<stop  offset="0" style="stop-color:#1B2057"/>
		<stop  offset="1" style="stop-color:#23207E"/>
	</linearGradient>
	<path class="st5" d="M-32.1-62.1c-1.7-17.6-6.1-61.4-7-67.8c-1.2-8-11-6.3-11-6.3l-2.1,81.4h13.6c1.8,0,3.6-0.8,4.8-2.2
		C-32.5-58.4-31.9-60.2-32.1-62.1z"/>
	
		<linearGradient id="SVGID_6_" gradientUnits="userSpaceOnUse" x1="-4884.4614" y1="-3935.9736" x2="-4988.6953" y2="-4072.8823" gradientTransform="matrix(2.120000e-02 -0.9997 -0.9997 -2.120000e-02 -3977.7146 -5101.9658)">
		<stop  offset="0" style="stop-color:#1B2057"/>
		<stop  offset="1" style="stop-color:#23207E"/>
	</linearGradient>
	<path class="st6" d="M-142.4-52.7c-4.3-0.1-7.6-3.6-7.5-7.9l1.4-66.1c0.1-3.7,3-6.6,6.6-6.7l95.1-2.8c2.8-0.1,5.2,2.2,5.2,5.1
		l-0.2,75.8c0,2.7-2.2,4.8-4.8,4.8L-142.4-52.7z"/>
	<g>
		
			<linearGradient id="SVGID_7_" gradientUnits="userSpaceOnUse" x1="-4975.6484" y1="-4061.0762" x2="-4898.9829" y2="-3947.9673" gradientTransform="matrix(2.120000e-02 -0.9997 -0.9997 -2.120000e-02 -3977.7146 -5101.9658)">
			<stop  offset="0" style="stop-color:#4B5198"/>
			<stop  offset="1" style="stop-color:#434A94"/>
		</linearGradient>
		<path class="st7" d="M-148.5-58.3c-1.4,0-2.4-1.3-2.2-2.6c1.4-9,5.8-39.9,4.4-65.6c-0.1-1.2,0.8-2.2,2-2.2l95.6-3.1
			c1.3,0,2.4,1,2.5,2.3c0.4,10.8,1.9,55.3-0.1,71.1c-0.1,1-0.9,1.7-1.9,1.7L-148.5-58.3z"/>
		<path class="st2" d="M-146.1-59.3c-1.3,0-2.3-1.2-2.1-2.5c1.4-8.7,5.6-38.4,4.2-63.2c-0.1-1.1,0.8-2.1,1.9-2.1l91.9-3
			c1.3,0,2.3,1,2.4,2.2c0.4,10.4,1.8,53.2-0.1,68.4c-0.1,0.9-0.9,1.6-1.8,1.6L-146.1-59.3z"/>
	</g>
	<path class="st8" d="M-89.6-111.4l-0.1,6.7c0,1,0.8,1.9,1.8,1.9l6.8,0c1,0,1.8-0.8,1.8-1.8l0.2-7c0-1.1-0.8-1.9-1.9-1.9l-6.8,0.3
		C-88.8-113.1-89.6-112.3-89.6-111.4z"/>
	<path class="st8" d="M-113.3-102.9l6.8,0c1,0,1.8-0.8,1.8-1.8l0.1-6c0-1.1-0.8-1.9-1.9-1.9l-6.8,0.3c-1,0-1.7,0.8-1.8,1.8l-0.1,5.7
		C-115.1-103.7-114.3-102.9-113.3-102.9z"/>
	<path class="st8" d="M-107.4-73.2l-6.5-0.1c-1.1,0-2,0.9-2,1.9l-0.1,6.1c0,1.1,0.8,2,1.9,2l6.5,0.3c1.1,0,2-0.8,2.1-2l0.1-6.3
		C-105.4-72.2-106.3-73.2-107.4-73.2z"/>
	<path class="st8" d="M-118.2-65.3l0.1-6c0-1.1-0.8-2-1.9-2l-6.5-0.1c-1.1,0-1.9,0.8-2,1.9l-0.1,5.8c0,1.1,0.8,1.9,1.9,2l6.5,0.3
		C-119.2-63.4-118.3-64.2-118.2-65.3z"/>
	<path class="st8" d="M-117.7-92.3l0.1-4.9c0-1.2-0.9-2.2-2.1-2.2l-6.2,0c-1.1,0-2.1,0.9-2.1,2.1l-0.1,4.7c0,1.2,0.9,2.1,2,2.2
		l6.2,0.2C-118.7-90.2-117.7-91.1-117.7-92.3z"/>
	<path class="st8" d="M-118-78l0.2-7.5c0-1.1-0.8-2-1.9-2l-6.4-0.2c-1.2,0-2.1,0.9-2.2,2.1l-0.2,7.6c0,1.1,0.8,2,1.9,2h6.5
		C-118.8-76.1-118-76.9-118-78z"/>
	<path class="st8" d="M-100.6-102.8l6.8,0c1,0,1.8-0.8,1.8-1.8l0.1-6.5c0-1-0.8-1.9-1.9-1.9l-6.8,0.3c-1,0-1.7,0.8-1.8,1.8l-0.1,6.2
		C-102.4-103.7-101.6-102.8-100.6-102.8z"/>
	<path class="st8" d="M-105.3-78.1l0.2-7c0-1.1-0.8-2-1.9-2l-6.5-0.2c-1.1,0-2,0.8-2,1.9l-0.2,7.2c0,1.1,0.9,2,2,2h6.5
		C-106.2-76.1-105.3-77-105.3-78.1z"/>
	<path class="st8" d="M-93.6-99.3l-7.4,0c-0.8,0-1.5,0.7-1.5,1.5l-0.1,6.7c0,0.8,0.6,1.5,1.4,1.5l7.4,0.2c0.8,0,1.5-0.6,1.6-1.5
		l0.2-7C-92.1-98.7-92.8-99.3-93.6-99.3z"/>
	<path class="st8" d="M-89.9-97.5l-0.1,6.4c0,1,0.8,1.9,1.8,1.9l6.6,0.2c1.1,0,1.9-0.8,1.9-1.9l0.1-6.7c0-1.1-0.8-1.9-1.9-1.9
		l-6.7,0C-89-99.3-89.8-98.5-89.9-97.5z"/>
	<path class="st8" d="M-113.9-90l7.4,0.2c0.8,0,1.5-0.6,1.6-1.5l0.1-6.6c0-0.8-0.7-1.5-1.5-1.5l-7.4,0c-0.8,0-1.5,0.7-1.5,1.5
		l-0.1,6.3C-115.4-90.7-114.8-90-113.9-90z"/>
	<path class="st8" d="M-94.3-86.7l-6.5-0.2c-1.1,0-2,0.8-2,2l-0.1,6.8c0,1.1,0.9,2,2,2h6.5c1.1,0,1.9-0.9,2-2l0.1-6.6
		C-92.4-85.7-93.3-86.6-94.3-86.7z"/>
	<path class="st8" d="M-81.4-86.2l-6.9-0.2c-1,0-1.8,0.7-1.8,1.7l-0.1,6.8c0,1,0.8,1.8,1.8,1.8h6.9c0.9,0,1.7-0.8,1.8-1.7l0.1-6.6
		C-79.7-85.4-80.4-86.2-81.4-86.2z"/>
	<path class="st8" d="M-125.1-103.1l5.2,0c1.4,0,2.5-1.1,2.5-2.5l0.1-4.3c0-1.3-1-2.3-2.3-2.3l-5.7,0.2c-1.3,0-2.3,1.1-2.4,2.4
		l-0.1,3.6C-127.8-104.3-126.6-103.1-125.1-103.1z"/>
	<path class="st8" d="M-130.8-71.3c0-1.2-0.9-2.1-2.1-2.2l-2.3,0c-1.7,0-3.1,1.1-3.1,2.5l-0.1,4.1c0,1.4,1.3,2.6,3,2.7l2.4,0.1
		c1.1,0,2-0.8,2-1.9L-130.8-71.3z"/>
	<path class="st8" d="M-58.6-72.7l-4.4,0c-1.1,0-2,0.9-2,1.9l-0.2,7.8c0,1.1,0.8,2,1.9,2l4.4,0.2c1.8,0.1,3.2-1.1,3.3-2.5l0.1-6.7
		C-55.5-71.5-56.9-72.7-58.6-72.7z"/>
	<path class="st8" d="M-134.9-76.1h2.2c1.1,0,2.1-0.9,2.1-2.1l0.2-7.6c0-1.2-0.9-2.1-2-2.2l-2.2-0.1c-1.7-0.1-3.2,1.1-3.2,2.5
		l-0.1,6.7C-138.1-77.3-136.7-76.1-134.9-76.1z"/>
	<path class="st8" d="M-134.8-90.7l2.8,0.1c0.9,0,1.6-0.7,1.6-1.6l0.1-5.5c0-0.9-0.7-1.6-1.6-1.6l-2.8,0c-1.7,0-3.1,1.1-3.1,2.5
		l-0.1,3.4C-137.8-91.9-136.5-90.7-134.8-90.7z"/>
	<path class="st8" d="M-57.9-114.3l-4.4,0.2c-1,0-1.8,0.8-1.8,1.9l-0.2,7.7c0,1.1,0.8,1.9,1.9,1.9l4.6,0c1.7,0,3.1-1.1,3.1-2.6
		l0.1-6.4C-54.6-113.2-56.1-114.4-57.9-114.3z"/>
	<path class="st8" d="M-94.7-73l-6.5-0.1c-1.1,0-2,0.9-2,2l-0.1,6.5c0,1.1,0.8,2,1.9,2l6.5,0.3c1.1,0,2-0.8,2.1-2l0.1-6.7
		C-92.7-72.1-93.6-73-94.7-73z"/>
	<path class="st8" d="M-58.1-99.4l-4.5,0c-1,0-1.9,0.8-1.9,1.9l-0.2,7.3c0,1,0.8,1.9,1.8,1.9l4.5,0.2c1.7,0.1,3.2-1.1,3.2-2.6l0.1-6
		C-54.9-98.2-56.3-99.4-58.1-99.4z"/>
	<path class="st8" d="M-58.2-85.5l-4.7-0.2c-1,0-1.8,0.7-1.8,1.7l-0.1,6c0,1,0.8,1.8,1.8,1.8h4.7c1.7,0,3.1-1.1,3.1-2.6l0.1-4.1
		C-55.2-84.2-56.5-85.4-58.2-85.5z"/>
	<path class="st8" d="M-77.4-84.3l-0.1,6.4c0,1,0.8,1.8,1.8,1.8h6.9c0.9,0,1.7-0.8,1.8-1.7L-67-84c0-1-0.7-1.8-1.7-1.8l-6.9-0.2
		C-76.6-86.1-77.4-85.3-77.4-84.3z"/>
	<path class="st8" d="M-69.3-72.8l-6.5-0.1c-1.1,0-2,0.9-2,2l-0.2,7.3c0,1.1,0.8,2,1.9,2l6.4,0.3c1.1,0,2-0.8,2.1-2l0.2-7.6
		C-67.3-71.9-68.2-72.8-69.3-72.8z"/>
	<path class="st8" d="M-134.4-103.1l2.7,0c0.9,0,1.6-0.7,1.6-1.6l0.1-5.4c0-0.9-0.7-1.7-1.6-1.6l-2.9,0.1c-1.6,0.1-2.9,1.2-3,2.5
		l-0.1,3.2C-137.6-104.3-136.1-103.1-134.4-103.1z"/>
	<path class="st8" d="M-82-72.9l-6.3-0.1c-1.1,0-2.1,0.9-2.1,2.1l-0.1,6.8c0,1.1,0.8,2,1.9,2l6.4,0.3c1.1,0,2-0.8,2.1-2l0.2-7.1
		C-80-72-80.9-72.9-82-72.9z"/>
	<path class="st8" d="M-76.8-111.8l-0.2,7.1c0,1.1,0.8,1.9,1.9,1.9l6.7,0c1,0,1.9-0.8,1.9-1.9l0.2-7.4c0-1.1-0.9-2-1.9-1.9l-6.7,0.2
		C-76-113.7-76.8-112.8-76.8-111.8z"/>
	<path class="st8" d="M-77.2-97.5l-0.1,6.9c0,1,0.8,1.9,1.8,1.9l6.6,0.2c1.1,0,1.9-0.8,1.9-1.9l0.2-7.1c0-1.1-0.8-1.9-1.9-1.9
		l-6.7,0C-76.3-99.4-77.1-98.6-77.2-97.5z"/>
	<path class="st9" d="M-135.1-117.3l0.3,2.3c0.1,0.7,0.7,1.3,1.4,1.3h0.1c0.8,0,1.5-0.6,1.5-1.4l0.1-2.3c0-0.9-0.8-1.6-1.6-1.5
		l-0.5,0.1C-134.7-118.9-135.3-118.2-135.1-117.3z"/>
	<path class="st9" d="M-124.7-117.9l0.3,2.3c0.1,0.7,0.7,1.3,1.4,1.3h0.1c0.8,0,1.5-0.6,1.5-1.5l0.1-2.3c0-0.9-0.8-1.6-1.6-1.5
		l-0.5,0.1C-124.3-119.5-124.8-118.7-124.7-117.9z"/>
	<path class="st9" d="M-111.9-117.7l0.3,2.3c0.1,0.7,0.7,1.3,1.4,1.3h0.1c0.8,0,1.5-0.6,1.5-1.5l0.1-2.3c0-0.9-0.8-1.6-1.6-1.5
		l-0.5,0.1C-111.4-119.3-112-118.6-111.9-117.7z"/>
	<path class="st9" d="M-99.4-118.3l0.3,2.3c0.1,0.7,0.7,1.3,1.4,1.3h0.1c0.8,0,1.5-0.6,1.5-1.4l0.1-2.3c0-0.9-0.8-1.6-1.6-1.5
		l-0.5,0C-99-119.9-99.6-119.1-99.4-118.3z"/>
	<path class="st9" d="M-86.6-119.9l0.3,2.3c0.1,0.7,0.7,1.3,1.4,1.3h0.1c0.8,0,1.5-0.6,1.5-1.4l0.1-2.3c0-0.9-0.8-1.6-1.6-1.5
		l-0.5,0.1C-86.2-121.5-86.8-120.8-86.6-119.9z"/>
	<path class="st9" d="M-73.1-119.7l0.3,2.3c0.1,0.7,0.7,1.3,1.4,1.3h0.1c0.8,0,1.5-0.6,1.5-1.4l0.1-2.3c0-0.9-0.8-1.6-1.6-1.5
		l-0.5,0.1C-72.6-121.2-73.2-120.5-73.1-119.7z"/>
	<path class="st9" d="M-61.6-119.9l0.3,2.3c0.1,0.7,0.7,1.3,1.4,1.3h0.1c0.8,0,1.5-0.6,1.5-1.4l0-2.3c0-0.9-0.8-1.6-1.6-1.5l-0.5,0
		C-61.1-121.5-61.7-120.7-61.6-119.9z"/>
	<g>
		
			<linearGradient id="SVGID_8_" gradientUnits="userSpaceOnUse" x1="-44.5543" y1="-29.5752" x2="-77.0185" y2="-67.8073" gradientTransform="matrix(1 0 0 -1 0 -146)">
			<stop  offset="0" style="stop-color:#B9493F"/>
			<stop  offset="1" style="stop-color:#C25E58"/>
		</linearGradient>
		<path class="st10" d="M-66.2-94.1c0-0.5-0.5-0.7-0.9-0.4c-1.1,0.8-1.5,2.1-2,3.3c-0.6,1.4-1.2,2.8-1.7,4.3c-0.5,1.5-1,3.1-1.4,4.7
			c-0.7-1.9-1.5-3.7-2.5-5.5c-0.3-0.5-1.1-0.2-0.9,0.4c0.9,3.2,2,6.3,2.8,9.5c0.3,1.1,1.8,0.9,1.9-0.2c0.3-3,1-5.8,2-8.6
			c0.5-1.3,1-2.6,1.6-3.9C-66.7-91.8-66.1-92.8-66.2-94.1z"/>
		
			<linearGradient id="SVGID_9_" gradientUnits="userSpaceOnUse" x1="-42.64" y1="-31.2011" x2="-75.1042" y2="-69.4332" gradientTransform="matrix(1 0 0 -1 0 -146)">
			<stop  offset="0" style="stop-color:#B9493F"/>
			<stop  offset="1" style="stop-color:#C25E58"/>
		</linearGradient>
		<path class="st11" d="M-64.7-91.8c-0.9-0.2-1.3,1-0.4,1.4c5.6,2.5,6.3,9.4,2.3,13.6c-1.9,2-4.3,3.5-6.7,4.8c-2.4,1.3-5,2.3-7.8,2
			c-6.4-0.6-7.2-7.2-5.3-12.2c1.8-4.9,5.8-8.6,10.6-10.4c0.6-0.2,0.4-1.3-0.3-1c-4.5,1.6-8.3,4.8-10.7,9c-2.2,3.9-3.5,9.3-0.6,13.2
			c3,4,8.6,4.1,12.8,2.4c4.7-1.8,10.5-5.3,12.3-10.2C-56.6-84.3-59-90.7-64.7-91.8z"/>
	</g>
	<g>
		<path class="st12" d="M-41.7-56c-0.1,0-0.2-0.1-0.2-0.2l-0.3-42.7c0-0.1,0.1-0.2,0.2-0.2l0,0c0.1,0,0.2,0.1,0.2,0.2l0.3,42.7
			C-41.4-56.2-41.5-56-41.7-56L-41.7-56z"/>
		<path class="st12" d="M-42-108.5c-0.1,0-0.2-0.1-0.2-0.2l-0.1-14.9c0-0.1,0.1-0.2,0.2-0.2l0,0c0.1,0,0.2,0.1,0.2,0.2l0.1,14.9
			C-41.8-108.6-41.9-108.5-42-108.5C-42-108.5-42-108.5-42-108.5z"/>
	</g>
	<ellipse class="st12" cx="-132.6" cy="-123.6" rx="2.6" ry="2.6"/>
	<ellipse class="st12" cx="-111.4" cy="-123.8" rx="2.6" ry="2.6"/>
	<ellipse class="st12" cx="-90.1" cy="-124.5" rx="2.6" ry="2.6"/>
	<ellipse class="st12" cx="-69" cy="-125.5" rx="2.6" ry="2.6"/>
	<g>
		
			<linearGradient id="SVGID_10_" gradientUnits="userSpaceOnUse" x1="-68.0129" y1="23.8291" x2="-66.2551" y2="-8.9099" gradientTransform="matrix(1 0 0 -1 0 -146)">
			<stop  offset="0" style="stop-color:#4B5198"/>
			<stop  offset="1" style="stop-color:#434A94"/>
		</linearGradient>
		<path class="st13" d="M-61.2-135.8c-0.9-1.9-2.7-4.2-5.9-3.6c-4.3,0.8-3.9,10.1-3.6,13.8c0.1,0.9,1,1.6,2.1,1.6
			c0.3,0,0.6-0.1,0.8-0.3c0.2-0.2,0.3-0.4,0.3-0.7c-0.4-2.8-1.2-11,2-11.5c0,0,0.8-0.1,1.5,0.6C-63-136-62.1-135.9-61.2-135.8z"/>
		
			<linearGradient id="SVGID_11_" gradientUnits="userSpaceOnUse" x1="-89.033" y1="22.7004" x2="-87.2753" y2="-10.0385" gradientTransform="matrix(1 0 0 -1 0 -146)">
			<stop  offset="0" style="stop-color:#4B5198"/>
			<stop  offset="1" style="stop-color:#434A94"/>
		</linearGradient>
		<path class="st14" d="M-82.1-135c-0.8-2-2.6-4.6-6.1-4c-4.3,0.8-3.9,10.1-3.6,13.8c0.1,0.9,1,1.6,2.1,1.6c0.3,0,0.6-0.1,0.8-0.3
			c0.2-0.2,0.3-0.4,0.3-0.7c-0.4-2.8-1.2-11.1,2-11.5c0,0,1.2-0.1,2,1.1C-83.8-134.9-82.9-134.9-82.1-135z"/>
		
			<linearGradient id="SVGID_12_" gradientUnits="userSpaceOnUse" x1="-110.0788" y1="21.5705" x2="-108.3211" y2="-11.1684" gradientTransform="matrix(1 0 0 -1 0 -146)">
			<stop  offset="0" style="stop-color:#4B5198"/>
			<stop  offset="1" style="stop-color:#434A94"/>
		</linearGradient>
		<path class="st15" d="M-103.2-134.3c-0.8-2-2.6-4.9-6.2-4.2c-4.3,0.8-3.9,10.1-3.6,13.8c0.1,0.9,1,1.6,2.1,1.6
			c0.3,0,0.6-0.1,0.8-0.3c0.2-0.2,0.3-0.4,0.3-0.7c-0.4-2.9-1.2-11.1,2-11.5c0,0,1.2-0.1,2,1.2C-104.8-134.3-104-134.2-103.2-134.3z
			"/>
		
			<linearGradient id="SVGID_13_" gradientUnits="userSpaceOnUse" x1="-131.19" y1="20.4371" x2="-129.4323" y2="-12.3019" gradientTransform="matrix(1 0 0 -1 0 -146)">
			<stop  offset="0" style="stop-color:#4B5198"/>
			<stop  offset="1" style="stop-color:#434A94"/>
		</linearGradient>
		<path class="st16" d="M-130.4-137.9c-4.3,0.8-3.9,10.1-3.6,13.8c0.1,0.9,1,1.6,2.1,1.6c0.3,0,0.6-0.1,0.8-0.3
			c0.2-0.2,0.3-0.4,0.3-0.7c-0.4-2.8-1.2-11.1,2-11.5c0,0,1.1-0.1,1.9,1c0.8,0,1.7,0.1,2.6,0.1
			C-125.2-135.9-126.9-138.6-130.4-137.9z"/>
	</g>
</g>
<path class="st2" d="M206.4-241.7l-12.7-0.1c-2.1,0-3.9,1.7-3.9,3.9l-0.3,14.5c-0.1,2.1,1.6,3.9,3.7,4l12.7,0.5
	c2.2,0.1,4-1.6,4.1-3.9l0.3-14.9C210.3-239.9,208.6-241.7,206.4-241.7z"/>
<g>
	<g>
		
			<linearGradient id="SVGID_14_" gradientUnits="userSpaceOnUse" x1="335.8237" y1="212.5012" x2="264.6389" y2="89.6722" gradientTransform="matrix(1 0 0 -1 0 -146)">
			<stop  offset="0" style="stop-color:#1B2057"/>
			<stop  offset="1" style="stop-color:#23207E"/>
		</linearGradient>
		<circle class="st17" cx="170.2" cy="-72.8" r="49.8"/>
		
			<linearGradient id="SVGID_15_" gradientUnits="userSpaceOnUse" x1="335.8239" y1="212.5011" x2="264.6394" y2="89.6728" gradientTransform="matrix(1 0 0 -1 0 -146)">
			<stop  offset="0" style="stop-color:#1B2057"/>
			<stop  offset="1" style="stop-color:#23207E"/>
		</linearGradient>
		<circle class="st18" cx="170.2" cy="-72.8" r="48.1"/>
		<path class="st2" d="M130.6-91.7c-0.2,0-0.3,0-0.5-0.1c-0.5-0.3-0.7-0.9-0.5-1.4c7.8-15.4,23.4-25,40.6-25c2.8,0,5.5,0.3,8.2,0.7
			c0.6,0.1,1,0.7,0.9,1.3s-0.7,1-1.3,0.9c-2.6-0.5-5.2-0.7-7.8-0.7c-16.5,0-31.3,9.1-38.7,23.8C131.3-91.9,130.9-91.7,130.6-91.7z"
			/>
		<ellipse class="st2" cx="171.3" cy="-71.7" rx="40.7" ry="40.7"/>
	</g>
	<g>
		<g>
			
				<linearGradient id="SVGID_16_" gradientUnits="userSpaceOnUse" x1="178.3997" y1="-42.5459" x2="163.8149" y2="-81.1527" gradientTransform="matrix(1 0 0 -1 0 -146)">
				<stop  offset="0" style="stop-color:#1B2057"/>
				<stop  offset="1" style="stop-color:#23207E"/>
			</linearGradient>
			<path class="st19" d="M182.6-99.5c-0.1-1-1.1-1.5-1.9-0.8c-2.2,1.7-3.1,4.4-4.2,7c-1.3,2.9-2.5,5.9-3.5,8.9
				c-1.1,3.2-2.1,6.4-2.8,9.7c-1.5-3.9-3.1-7.8-5.3-11.4c-0.6-1-2.2-0.4-1.9,0.7c1.9,6.7,4.1,13.2,5.9,19.9c0.6,2.4,3.8,1.8,4.1-0.5
				c0.6-6.2,2.1-12.1,4.2-18c1-2.8,2.1-5.5,3.3-8.2C181.5-94.6,182.7-96.8,182.6-99.5z"/>
			
				<linearGradient id="SVGID_17_" gradientUnits="userSpaceOnUse" x1="181.7689" y1="-48.1059" x2="160.6543" y2="-103.9971" gradientTransform="matrix(1 0 0 -1 0 -146)">
				<stop  offset="0" style="stop-color:#1B2057"/>
				<stop  offset="1" style="stop-color:#23207E"/>
			</linearGradient>
			<path class="st20" d="M185.6-94.6c-1.9-0.4-2.6,2.1-0.9,2.9c11.6,5.1,13.1,19.6,4.7,28.4c-3.9,4.1-9,7.2-13.9,9.9
				c-4.9,2.8-10.4,4.8-16.2,4.3c-13.3-1.3-15.1-15-11.1-25.5c3.8-10.1,12-17.9,22-21.6c1.3-0.5,0.8-2.6-0.5-2.1
				c-9.4,3.4-17.4,10.1-22.3,18.9c-4.6,8.1-7.3,19.4-1.3,27.5c6.2,8.4,17.9,8.5,26.7,5c9.7-3.8,21.8-11,25.6-21.3
				C202.5-79.1,197.5-92.3,185.6-94.6z"/>
		</g>
		<g>
			
				<linearGradient id="SVGID_18_" gradientUnits="userSpaceOnUse" x1="227.6407" y1="-3.681618e-02" x2="159.9562" y2="-79.7466" gradientTransform="matrix(1 0 0 -1 0 -146)">
				<stop  offset="0" style="stop-color:#1B2057"/>
				<stop  offset="1" style="stop-color:#23207E"/>
			</linearGradient>
			<path class="st21" d="M182.6-99.5c-0.1-1-1.1-1.5-1.9-0.8c-2.2,1.7-3.1,4.4-4.2,7c-1.3,2.9-2.5,5.9-3.5,8.9
				c-1.1,3.2-2.1,6.4-2.8,9.7c-1.5-3.9-3.1-7.8-5.3-11.4c-0.6-1-2.2-0.4-1.9,0.7c1.9,6.7,4.1,13.2,5.9,19.9c0.6,2.4,3.8,1.8,4.1-0.5
				c0.6-6.2,2.1-12.1,4.2-18c1-2.8,2.1-5.5,3.3-8.2C181.5-94.6,182.7-96.8,182.6-99.5z"/>
			
				<linearGradient id="SVGID_19_" gradientUnits="userSpaceOnUse" x1="231.6641" y1="-3.4537" x2="163.9796" y2="-83.1635" gradientTransform="matrix(1 0 0 -1 0 -146)">
				<stop  offset="0" style="stop-color:#1B2057"/>
				<stop  offset="1" style="stop-color:#23207E"/>
			</linearGradient>
			<path class="st22" d="M185.6-94.6c-1.9-0.4-2.6,2.1-0.9,2.9c11.6,5.1,13.1,19.6,4.7,28.4c-3.9,4.1-9,7.2-13.9,9.9
				c-4.9,2.8-10.4,4.8-16.2,4.3c-13.3-1.3-15.1-15-11.1-25.5c3.8-10.1,12-17.9,22-21.6c1.3-0.5,0.8-2.6-0.5-2.1
				c-9.4,3.4-17.4,10.1-22.3,18.9c-4.6,8.1-7.3,19.4-1.3,27.5c6.2,8.4,17.9,8.5,26.7,5c9.7-3.8,21.8-11,25.6-21.3
				C202.5-79.1,197.5-92.3,185.6-94.6z"/>
		</g>
	</g>
</g>
<linearGradient id="SVGID_20_" gradientUnits="userSpaceOnUse" x1="37.0918" y1="383.8711" x2="-54.8766" y2="225.2174">
	<stop  offset="0" style="stop-color:#1B2057"/>
	<stop  offset="1" style="stop-color:#23207E"/>
</linearGradient>
<rect x="-245.6" y="-17.2" class="st23" width="137.5" height="64"/>
<g>
	<g>
		
			<linearGradient id="SVGID_21_" gradientUnits="userSpaceOnUse" x1="215.5942" y1="89.7316" x2="144.4093" y2="-33.0974" gradientTransform="matrix(1 0 0 -1 0 -146)">
			<stop  offset="0" style="stop-color:#1B2057"/>
			<stop  offset="1" style="stop-color:#23207E"/>
		</linearGradient>
		<circle class="st24" cx="50" cy="50" r="49.8"/>
		
			<linearGradient id="SVGID_22_" gradientUnits="userSpaceOnUse" x1="215.5942" y1="89.7316" x2="144.4097" y2="-33.0967" gradientTransform="matrix(1 0 0 -1 0 -146)">
			<stop  offset="0" style="stop-color:#1B2057"/>
			<stop  offset="1" style="stop-color:#23207E"/>
		</linearGradient>
		<circle class="st25" cx="50" cy="50" r="48.1"/>
		<path class="st2" d="M10.3,31.1c-0.2,0-0.3,0-0.5-0.1c-0.5-0.3-0.7-0.9-0.5-1.4c7.8-15.4,23.4-25,40.6-25c2.8,0,5.5,0.3,8.2,0.7
			c0.6,0.1,1,0.7,0.9,1.3s-0.7,1-1.3,0.9c-2.6-0.5-5.2-0.7-7.8-0.7c-16.5,0-31.3,9.1-38.7,23.8C11.1,30.9,10.7,31.1,10.3,31.1z"/>
		<ellipse class="st2" cx="51.1" cy="51" rx="40.7" ry="40.7"/>
	</g>
	<g>
		<g>
			
				<linearGradient id="SVGID_23_" gradientUnits="userSpaceOnUse" x1="61.8504" y1="-169.6354" x2="40.3505" y2="-226.5467" gradientTransform="matrix(1 0 0 -1 0 -146)">
				<stop  offset="0" style="stop-color:#1B2057"/>
				<stop  offset="1" style="stop-color:#23207E"/>
			</linearGradient>
			<path class="st26" d="M46.6,41.6c0,5.4-0.9,9.4-2.7,12.2S39.6,58,36.2,58c-3.5,0-6.1-1.4-7.7-4.1S26,47.1,26,41.8
				c0-10.9,3.4-16.4,10.2-16.4C43.1,25.4,46.6,30.8,46.6,41.6z M33.5,41.7c0,3.3,0.2,5.7,0.6,7.2c0.4,1.5,1.1,2.3,2.1,2.3
				c1,0,1.7-0.8,2.2-2.3s0.7-3.9,0.7-7.2c0-3.3-0.2-5.7-0.7-7.2s-1.2-2.3-2.1-2.3c-1,0-1.7,0.8-2.1,2.3S33.5,38.4,33.5,41.7z
				 M65.4,26.2L44.2,78.1h-7.3l21.2-51.9H65.4z M76.3,62.4c0,5.4-0.9,9.4-2.7,12.2c-1.8,2.8-4.4,4.1-7.7,4.1c-3.5,0-6.1-1.4-7.7-4.1
				c-1.6-2.7-2.5-6.8-2.5-12.1c0-5.3,0.8-9.4,2.5-12.2c1.7-2.8,4.2-4.2,7.7-4.2C72.8,46.1,76.3,51.6,76.3,62.4z M63.2,62.4
				c0,3.3,0.2,5.7,0.6,7.2c0.4,1.5,1.1,2.3,2.1,2.3c1,0,1.7-0.8,2.2-2.3c0.4-1.5,0.7-3.9,0.7-7.2c0-3.3-0.2-5.7-0.7-7.2
				S66.9,53,66,53s-1.7,0.8-2.1,2.2C63.5,56.8,63.2,59.1,63.2,62.4z"/>
		</g>
		<g>
			
				<linearGradient id="SVGID_24_" gradientUnits="userSpaceOnUse" x1="103.2154" y1="-60.1398" x2="34.6963" y2="-241.5136" gradientTransform="matrix(1 0 0 -1 0 -146)">
				<stop  offset="0" style="stop-color:#1B2057"/>
				<stop  offset="1" style="stop-color:#23207E"/>
			</linearGradient>
			<path class="st27" d="M46.6,41.6c0,5.4-0.9,9.4-2.7,12.2S39.6,58,36.2,58c-3.5,0-6.1-1.4-7.7-4.1S26,47.1,26,41.8
				c0-10.9,3.4-16.4,10.2-16.4C43.1,25.4,46.6,30.8,46.6,41.6z M33.5,41.7c0,3.3,0.2,5.7,0.6,7.2c0.4,1.5,1.1,2.3,2.1,2.3
				c1,0,1.7-0.8,2.2-2.3s0.7-3.9,0.7-7.2c0-3.3-0.2-5.7-0.7-7.2s-1.2-2.3-2.1-2.3c-1,0-1.7,0.8-2.1,2.3S33.5,38.4,33.5,41.7z
				 M65.4,26.2L44.2,78.1h-7.3l21.2-51.9H65.4z M76.3,62.4c0,5.4-0.9,9.4-2.7,12.2c-1.8,2.8-4.4,4.1-7.7,4.1c-3.5,0-6.1-1.4-7.7-4.1
				c-1.6-2.7-2.5-6.8-2.5-12.1c0-5.3,0.8-9.4,2.5-12.2c1.7-2.8,4.2-4.2,7.7-4.2C72.8,46.1,76.3,51.6,76.3,62.4z M63.2,62.4
				c0,3.3,0.2,5.7,0.6,7.2c0.4,1.5,1.1,2.3,2.1,2.3c1,0,1.7-0.8,2.2-2.3c0.4-1.5,0.7-3.9,0.7-7.2c0-3.3-0.2-5.7-0.7-7.2
				S66.9,53,66,53s-1.7,0.8-2.1,2.2C63.5,56.8,63.2,59.1,63.2,62.4z"/>
		</g>
	</g>
</g>
</svg>
