<?xml version="1.0" encoding="utf-8"?>
<!-- Generator: Adobe Illustrator 23.0.2, SVG Export Plug-In . SVG Version: 6.00 Build 0)  -->
<svg version="1.1" id="Capa_1" xmlns="http://www.w3.org/2000/svg" xmlns:xlink="http://www.w3.org/1999/xlink" x="0px" y="0px"
	 viewBox="0 0 100 100" style="enable-background:new 0 0 100 100;" xml:space="preserve">
<style type="text/css">
	.st0{fill:url(#SVGID_1_);}
	.st1{fill:url(#SVGID_2_);}
	.st2{fill:#BDC6E3;}
	.st3{fill:url(#SVGID_3_);}
	.st4{fill:none;stroke:url(#SVGID_4_);stroke-miterlimit:10;}
	.st5{fill:url(#SVGID_5_);}
	.st6{fill:url(#SVGID_6_);}
	.st7{fill:url(#SVGID_7_);}
	.st8{opacity:0.72;fill:#FFFFFF;}
	.st9{fill:#FFFFFF;}
	.st10{fill:url(#SVGID_8_);}
	.st11{fill:url(#SVGID_9_);}
	.st12{fill:#93A2CE;}
	.st13{fill:url(#SVGID_10_);}
	.st14{fill:url(#SVGID_11_);}
	.st15{fill:url(#SVGID_12_);}
	.st16{fill:url(#SVGID_13_);}
	.st17{fill:url(#SVGID_14_);}
	.st18{fill:url(#SVGID_15_);}
	.st19{fill:none;stroke:url(#SVGID_16_);stroke-width:1.5;stroke-miterlimit:10;}
	.st20{fill:url(#SVGID_17_);}
	.st21{fill:url(#SVGID_18_);}
	.st22{fill:url(#SVGID_19_);}
	.st23{fill:none;stroke:url(#SVGID_20_);stroke-width:3;stroke-miterlimit:10;}
	.st24{fill:none;stroke:url(#SVGID_21_);stroke-width:3;stroke-miterlimit:10;}
	.st25{fill:url(#SVGID_22_);}
	.st26{fill:url(#SVGID_23_);}
</style>
<g>
	<linearGradient id="SVGID_1_" gradientUnits="userSpaceOnUse" x1="95.8259" y1="-235.4999" x2="24.641" y2="-112.6709">
		<stop  offset="0" style="stop-color:#1B2057"/>
		<stop  offset="1" style="stop-color:#23207E"/>
	</linearGradient>
	<circle class="st0" cx="-69.77" cy="50.23" r="49.77"/>
	<linearGradient id="SVGID_2_" gradientUnits="userSpaceOnUse" x1="95.826" y1="-235.4999" x2="24.6415" y2="-112.6716">
		<stop  offset="0" style="stop-color:#1B2057"/>
		<stop  offset="1" style="stop-color:#23207E"/>
	</linearGradient>
	<circle class="st1" cx="-69.77" cy="50.23" r="48.11"/>
	<path class="st2" d="M-109.44,31.32c-0.16,0-0.33-0.04-0.48-0.12c-0.53-0.27-0.74-0.91-0.47-1.44
		c7.79-15.43,23.36-25.02,40.63-25.02c2.76,0,5.52,0.25,8.2,0.74c0.58,0.11,0.97,0.67,0.86,1.25c-0.11,0.58-0.66,0.97-1.25,0.86
		c-2.56-0.47-5.19-0.7-7.82-0.7c-16.46,0-31.29,9.13-38.72,23.84C-108.67,31.1-109.05,31.32-109.44,31.32z"/>
	
		<ellipse transform="matrix(0.9732 -0.2298 0.2298 0.9732 -13.6202 -14.4169)" class="st2" cx="-68.72" cy="51.28" rx="40.72" ry="40.72"/>
	<g>
		<linearGradient id="SVGID_3_" gradientUnits="userSpaceOnUse" x1="97.5386" y1="-234.2845" x2="26.3539" y2="-111.4559">
			<stop  offset="0" style="stop-color:#1B2057"/>
			<stop  offset="1" style="stop-color:#23207E"/>
		</linearGradient>
		<path class="st3" d="M-73.1,81.55v-4.43c-4.62-0.18-9.19-1.27-12.43-2.7c-1.16-0.51-1.75-1.81-1.42-3.03l1.13-4.13
			c0.41-1.51,2.06-2.3,3.51-1.69C-79.1,66.93-75.12,68-70.84,68c4.45,0,7.77-1.51,7.77-4.6c0-2.79-2.56-4.45-8.75-6.11
			c-8.82-2.41-15.15-6.26-15.15-14.02c0-7.01,5.13-12.37,14.02-13.8v-4.43c0-1.43,1.16-2.58,2.58-2.58h2.6
			c1.43,0,2.58,1.16,2.58,2.58v3.98c4.27,0.17,7.38,0.9,9.85,1.77c1.26,0.44,1.96,1.81,1.61,3.1l-1.04,3.82
			c-0.4,1.47-1.97,2.28-3.4,1.74c-2.27-0.86-5.49-1.75-9.66-1.75c-5.28,0-6.79,2.19-6.79,4.15c0,2.41,3.17,4.07,10.03,6.18
			c9.8,2.94,13.87,7.01,13.87,14.33c0,6.71-4.98,12.74-14.63,14.25v4.96c0,1.43-1.16,2.58-2.58,2.58h-2.6
			C-71.94,84.13-73.1,82.98-73.1,81.55z"/>
	</g>
	<g>
		<linearGradient id="SVGID_4_" gradientUnits="userSpaceOnUse" x1="-54.9814" y1="28.8877" x2="-83.2813" y2="77.7189">
			<stop  offset="0" style="stop-color:#1B2057"/>
			<stop  offset="1" style="stop-color:#23207E"/>
		</linearGradient>
		<path class="st4" d="M-73.1,81.55v-4.43c-4.62-0.18-9.19-1.27-12.43-2.7c-1.16-0.51-1.75-1.81-1.42-3.03l1.13-4.13
			c0.41-1.51,2.06-2.3,3.51-1.69C-79.1,66.93-75.12,68-70.84,68c4.45,0,7.77-1.51,7.77-4.6c0-2.79-2.56-4.45-8.75-6.11
			c-8.82-2.41-15.15-6.26-15.15-14.02c0-7.01,5.13-12.37,14.02-13.8v-4.43c0-1.43,1.16-2.58,2.58-2.58h2.6
			c1.43,0,2.58,1.16,2.58,2.58v3.98c4.27,0.17,7.38,0.9,9.85,1.77c1.26,0.44,1.96,1.81,1.61,3.1l-1.04,3.82
			c-0.4,1.47-1.97,2.28-3.4,1.74c-2.27-0.86-5.49-1.75-9.66-1.75c-5.28,0-6.79,2.19-6.79,4.15c0,2.41,3.17,4.07,10.03,6.18
			c9.8,2.94,13.87,7.01,13.87,14.33c0,6.71-4.98,12.74-14.63,14.25v4.96c0,1.43-1.16,2.58-2.58,2.58h-2.6
			C-71.94,84.13-73.1,82.98-73.1,81.55z"/>
	</g>
</g>
<g>
	<linearGradient id="SVGID_5_" gradientUnits="userSpaceOnUse" x1="-159.9466" y1="-17.6128" x2="-161.8954" y2="54.943">
		<stop  offset="0" style="stop-color:#1B2057"/>
		<stop  offset="1" style="stop-color:#23207E"/>
	</linearGradient>
	<path class="st5" d="M-152.1,60.9c-1.73-17.63-6.07-61.4-7.02-67.8c-1.19-8.04-10.97-6.27-10.97-6.27l-2.09,81.38h13.63
		c1.83,0,3.58-0.8,4.81-2.19C-152.51,64.62-151.91,62.77-152.1,60.9z"/>
	
		<linearGradient id="SVGID_6_" gradientUnits="userSpaceOnUse" x1="-5004.46" y1="3912.9749" x2="-5108.6938" y2="4049.8835" gradientTransform="matrix(0.0212 -0.9997 0.9997 0.0212 -4072.1775 -5098.4419)">
		<stop  offset="0" style="stop-color:#1B2057"/>
		<stop  offset="1" style="stop-color:#23207E"/>
	</linearGradient>
	<path class="st6" d="M-262.37,70.26c-4.26-0.09-7.63-3.64-7.54-7.93l1.39-66.07c0.08-3.65,2.97-6.59,6.59-6.7l95.12-2.84
		c2.83-0.08,5.17,2.21,5.16,5.06l-0.23,75.75c-0.01,2.68-2.2,4.83-4.85,4.78L-262.37,70.26z"/>
	<g>
		
			<linearGradient id="SVGID_7_" gradientUnits="userSpaceOnUse" x1="-5095.6484" y1="4038.0762" x2="-5018.9829" y2="3924.9673" gradientTransform="matrix(0.0212 -0.9997 0.9997 0.0212 -4072.1775 -5098.4419)">
			<stop  offset="0" style="stop-color:#4B5198"/>
			<stop  offset="1" style="stop-color:#434A94"/>
		</linearGradient>
		<path class="st7" d="M-268.5,64.72c-1.36-0.02-2.39-1.25-2.18-2.61c1.4-9,5.81-39.94,4.4-65.64c-0.06-1.17,0.84-2.17,2-2.21
			l95.55-3.07c1.31-0.04,2.41,0.99,2.46,2.31c0.41,10.8,1.92,55.29-0.06,71.1c-0.12,0.96-0.94,1.68-1.9,1.66L-268.5,64.72z"/>
		<path class="st2" d="M-266.08,63.7c-1.31-0.02-2.3-1.2-2.1-2.51c1.35-8.66,5.59-38.44,4.23-63.16c-0.06-1.13,0.8-2.09,1.92-2.12
			l91.95-2.96c1.26-0.04,2.32,0.95,2.37,2.22c0.39,10.4,1.85,53.2-0.06,68.42c-0.12,0.93-0.91,1.61-1.83,1.6L-266.08,63.7z"/>
	</g>
	<path class="st8" d="M-209.57,11.62l-0.14,6.68c-0.02,1.02,0.79,1.86,1.8,1.86l6.79,0.04c0.99,0.01,1.8-0.79,1.82-1.79l0.15-7.02
		c0.02-1.05-0.84-1.91-1.89-1.86l-6.8,0.3C-208.79,9.88-209.55,10.66-209.57,11.62z"/>
	<path class="st8" d="M-233.32,20.1l6.79,0.04c0.99,0.01,1.8-0.79,1.82-1.79l0.13-5.97c0.02-1.05-0.84-1.9-1.88-1.86l-6.8,0.25
		c-0.96,0.03-1.72,0.82-1.75,1.79l-0.12,5.68C-235.14,19.26-234.33,20.1-233.32,20.1z"/>
	<path class="st8" d="M-227.37,49.84l-6.46-0.06c-1.08-0.01-1.97,0.86-1.99,1.95l-0.13,6.1c-0.02,1.08,0.82,1.99,1.89,2.03
		l6.46,0.28c1.11,0.05,2.04-0.83,2.06-1.95l0.13-6.31C-225.39,50.76-226.27,49.85-227.37,49.84z"/>
	<path class="st8" d="M-238.24,57.68l0.13-5.96c0.02-1.09-0.84-1.99-1.92-2l-6.53-0.06c-1.06-0.01-1.94,0.84-1.96,1.92l-0.12,5.75
		c-0.02,1.06,0.8,1.95,1.86,2l6.52,0.28C-239.17,59.64-238.26,58.78-238.24,57.68z"/>
	<path class="st8" d="M-237.67,30.75l0.1-4.9c0.02-1.18-0.92-2.15-2.09-2.15l-6.23,0.01c-1.14,0-2.06,0.92-2.09,2.06l-0.1,4.68
		c-0.02,1.15,0.88,2.11,2.02,2.15l6.23,0.21C-238.66,32.85-237.69,31.93-237.67,30.75z"/>
	<path class="st8" d="M-237.97,44.98l0.16-7.49c0.02-1.07-0.81-1.96-1.88-2l-6.38-0.21c-1.16-0.04-2.13,0.89-2.16,2.06l-0.16,7.55
		c-0.02,1.1,0.85,2,1.94,2l6.53,0C-238.85,46.9-237.99,46.05-237.97,44.98z"/>
	<path class="st8" d="M-220.61,20.17l6.79,0.04c0.99,0.01,1.8-0.79,1.82-1.79l0.14-6.5c0.02-1.05-0.84-1.9-1.88-1.86l-6.8,0.25
		c-0.96,0.03-1.72,0.82-1.75,1.79l-0.13,6.22C-222.44,19.33-221.62,20.17-220.61,20.17z"/>
	<path class="st8" d="M-225.26,44.95l0.15-7c0.02-1.09-0.83-2-1.91-2.03l-6.46-0.21c-1.1-0.04-2.02,0.84-2.04,1.95l-0.15,7.22
		c-0.02,1.12,0.87,2.03,1.98,2.03l6.46,0C-226.16,46.9-225.29,46.03-225.26,44.95z"/>
	<path class="st8" d="M-213.64,23.66l-7.42,0.01c-0.81,0-1.48,0.66-1.5,1.48l-0.14,6.73c-0.02,0.83,0.63,1.51,1.45,1.54l7.41,0.24
		c0.83,0.03,1.53-0.64,1.55-1.48l0.15-6.99C-212.13,24.35-212.8,23.66-213.64,23.66z"/>
	<path class="st8" d="M-209.86,25.51l-0.14,6.41c-0.02,1.04,0.79,1.9,1.82,1.94l6.64,0.22c1.05,0.03,1.92-0.8,1.94-1.86l0.14-6.65
		c0.02-1.07-0.83-1.94-1.89-1.94l-6.65,0.01C-209,23.65-209.84,24.47-209.86,25.51z"/>
	<path class="st8" d="M-233.95,33.01l7.41,0.24c0.83,0.03,1.53-0.64,1.55-1.48l0.14-6.55c0.02-0.85-0.66-1.54-1.5-1.54l-7.42,0.01
		c-0.81,0-1.48,0.66-1.5,1.48l-0.13,6.29C-235.41,32.29-234.77,32.98-233.95,33.01z"/>
	<path class="st8" d="M-214.33,36.33l-6.46-0.21c-1.1-0.04-2.02,0.84-2.04,1.95l-0.14,6.8c-0.02,1.12,0.87,2.03,1.98,2.03l6.46,0
		c1.08,0,1.95-0.87,1.98-1.95l0.14-6.59C-212.4,37.27-213.25,36.37-214.33,36.33z"/>
	<path class="st8" d="M-201.41,36.76l-6.91-0.23c-0.97-0.03-1.79,0.74-1.81,1.73l-0.14,6.84c-0.02,0.99,0.77,1.8,1.75,1.8l6.92,0
		c0.95,0,1.73-0.77,1.75-1.73l0.14-6.62C-199.7,37.59-200.45,36.79-201.41,36.76z"/>
	<path class="st8" d="M-245.07,19.95l5.16,0.03c1.37,0.01,2.5-1.1,2.52-2.48l0.09-4.29c0.03-1.3-1.03-2.35-2.32-2.3l-5.74,0.21
		c-1.3,0.05-2.34,1.11-2.37,2.42l-0.08,3.58C-247.83,18.67-246.6,19.94-245.07,19.95z"/>
	<path class="st8" d="M-250.82,51.74c0.02-1.17-0.91-2.14-2.07-2.15l-2.25-0.02c-1.71-0.02-3.1,1.12-3.13,2.55l-0.09,4.14
		c-0.03,1.42,1.3,2.61,2.99,2.68l2.41,0.1c1.09,0.05,2-0.82,2.02-1.91L-250.82,51.74z"/>
	<path class="st8" d="M-178.6,50.32l-4.42-0.04c-1.08-0.01-1.97,0.86-2,1.95l-0.16,7.77c-0.02,1.08,0.82,1.99,1.89,2.03l4.4,0.19
		c1.75,0.07,3.22-1.08,3.25-2.55l0.14-6.66C-175.46,51.54-176.86,50.33-178.6,50.32z"/>
	<path class="st8" d="M-254.95,46.89l2.19,0c1.14,0,2.07-0.92,2.09-2.06l0.16-7.61c0.02-1.15-0.88-2.11-2.02-2.15l-2.21-0.07
		c-1.74-0.06-3.19,1.09-3.22,2.55l-0.14,6.66C-258.13,45.68-256.71,46.89-254.95,46.89z"/>
	<path class="st8" d="M-254.77,32.32l2.76,0.09c0.88,0.03,1.61-0.67,1.63-1.56l0.12-5.5c0.02-0.89-0.7-1.63-1.58-1.63l-2.79,0.01
		c-1.69,0-3.06,1.13-3.09,2.55l-0.07,3.35C-257.82,31.07-256.47,32.26-254.77,32.32z"/>
	<path class="st8" d="M-177.89,8.67l-4.43,0.16c-1,0.04-1.79,0.85-1.82,1.86l-0.16,7.67c-0.02,1.06,0.82,1.93,1.87,1.94l4.56,0.03
		c1.7,0.01,3.09-1.13,3.12-2.55l0.14-6.42C-174.58,9.84-176.09,8.61-177.89,8.67z"/>
	<path class="st8" d="M-214.66,49.96l-6.46-0.06c-1.08-0.01-1.97,0.86-1.99,1.95l-0.14,6.52c-0.02,1.08,0.82,1.99,1.89,2.03
		l6.46,0.28c1.11,0.05,2.04-0.83,2.06-1.95l0.14-6.73C-212.68,50.89-213.56,49.97-214.66,49.96z"/>
	<path class="st8" d="M-178.08,23.59l-4.49,0.01c-1.02,0-1.86,0.83-1.88,1.86l-0.15,7.3c-0.02,1.04,0.79,1.9,1.82,1.94l4.51,0.15
		c1.74,0.06,3.19-1.09,3.22-2.55l0.13-6.01C-174.9,24.8-176.32,23.59-178.08,23.59z"/>
	<path class="st8" d="M-178.24,37.52l-4.69-0.15c-0.97-0.03-1.79,0.74-1.81,1.73l-0.13,6.01c-0.02,0.99,0.77,1.8,1.75,1.8l4.71,0
		c1.69,0,3.07-1.13,3.1-2.55l0.09-4.14C-175.19,38.77-176.54,37.58-178.24,37.52z"/>
	<path class="st8" d="M-197.43,38.67l-0.14,6.43c-0.02,0.99,0.77,1.8,1.75,1.8l6.92,0c0.95,0,1.73-0.77,1.75-1.73l0.13-6.2
		c0.02-0.97-0.73-1.77-1.69-1.8l-6.91-0.23C-196.6,36.92-197.41,37.69-197.43,38.67z"/>
	<path class="st8" d="M-189.26,50.21l-6.46-0.06c-1.08-0.01-1.97,0.86-2,1.95l-0.15,7.35c-0.02,1.08,0.82,1.99,1.89,2.03l6.45,0.28
		c1.11,0.05,2.04-0.83,2.06-1.95l0.16-7.56C-187.28,51.14-188.16,50.22-189.26,50.21z"/>
	<path class="st8" d="M-254.4,19.89l2.7,0.02c0.86,0,1.57-0.69,1.59-1.56l0.11-5.38c0.02-0.92-0.73-1.66-1.64-1.63l-2.86,0.1
		c-1.64,0.06-2.93,1.17-2.96,2.55l-0.07,3.21C-257.56,18.67-256.15,19.88-254.4,19.89z"/>
	<path class="st8" d="M-201.96,50.09l-6.35-0.06c-1.14-0.01-2.08,0.91-2.11,2.06l-0.14,6.82c-0.02,1.08,0.82,1.99,1.89,2.03
		l6.45,0.28c1.11,0.05,2.04-0.83,2.06-1.95l0.15-7.14C-199.98,51.01-200.86,50.1-201.96,50.09z"/>
	<path class="st8" d="M-196.85,11.15l-0.15,7.14c-0.02,1.06,0.82,1.93,1.87,1.94l6.65,0.04c1.03,0.01,1.87-0.82,1.89-1.86l0.16-7.42
		c0.02-1.09-0.87-1.98-1.95-1.94l-6.65,0.24C-196.04,9.33-196.83,10.15-196.85,11.15z"/>
	<path class="st8" d="M-197.16,25.48l-0.14,6.86c-0.02,1.04,0.79,1.9,1.82,1.94l6.64,0.22c1.05,0.03,1.92-0.8,1.94-1.86l0.15-7.09
		c0.02-1.07-0.83-1.94-1.89-1.94l-6.65,0.01C-196.3,23.63-197.13,24.45-197.16,25.48z"/>
	<path class="st9" d="M-255.14,5.66l0.31,2.26c0.1,0.72,0.7,1.27,1.43,1.28l0.11,0c0.81,0.02,1.49-0.63,1.5-1.45l0.05-2.31
		c0.02-0.9-0.75-1.61-1.63-1.51l-0.46,0.05C-254.67,4.08-255.25,4.84-255.14,5.66z"/>
	<path class="st9" d="M-244.73,5.08l0.31,2.26c0.1,0.72,0.7,1.27,1.43,1.28l0.11,0c0.81,0.02,1.49-0.63,1.5-1.45l0.05-2.31
		c0.02-0.9-0.75-1.61-1.63-1.51l-0.46,0.05C-244.26,3.5-244.85,4.26-244.73,5.08z"/>
	<path class="st9" d="M-231.93,5.26l0.31,2.26c0.1,0.72,0.7,1.27,1.43,1.28l0.11,0c0.81,0.02,1.49-0.63,1.5-1.45l0.05-2.31
		c0.02-0.9-0.75-1.61-1.63-1.51l-0.46,0.05C-231.45,3.68-232.04,4.43-231.93,5.26z"/>
	<path class="st9" d="M-219.45,4.7l0.31,2.26c0.1,0.72,0.7,1.27,1.43,1.28l0.11,0c0.81,0.02,1.49-0.63,1.5-1.45l0.05-2.31
		c0.02-0.9-0.75-1.61-1.63-1.51l-0.46,0.05C-218.97,3.11-219.56,3.87-219.45,4.7z"/>
	<path class="st9" d="M-206.63,3.05l0.31,2.26c0.1,0.72,0.7,1.27,1.43,1.28l0.11,0c0.81,0.02,1.49-0.63,1.5-1.45l0.05-2.31
		c0.02-0.9-0.75-1.61-1.63-1.51l-0.46,0.05C-206.16,1.47-206.75,2.23-206.63,3.05z"/>
	<path class="st9" d="M-193.06,3.34l0.31,2.26c0.1,0.72,0.7,1.27,1.43,1.28l0.11,0c0.81,0.02,1.49-0.63,1.5-1.45l0.05-2.31
		c0.02-0.9-0.75-1.61-1.63-1.51l-0.46,0.05C-192.58,1.76-193.17,2.52-193.06,3.34z"/>
	<path class="st9" d="M-181.6,3.1l0.31,2.26c0.1,0.72,0.7,1.27,1.43,1.28l0.11,0c0.81,0.02,1.49-0.63,1.5-1.45l0.05-2.31
		c0.02-0.9-0.75-1.61-1.63-1.51l-0.46,0.05C-181.12,1.52-181.71,2.28-181.6,3.1z"/>
	<g>
		<linearGradient id="SVGID_8_" gradientUnits="userSpaceOnUse" x1="-164.5565" y1="6.5734" x2="-197.0208" y2="44.8055">
			<stop  offset="0" style="stop-color:#B9493F"/>
			<stop  offset="1" style="stop-color:#C25E58"/>
		</linearGradient>
		<path class="st10" d="M-186.17,28.86c-0.03-0.49-0.53-0.7-0.91-0.4c-1.05,0.84-1.48,2.14-2,3.35c-0.6,1.41-1.18,2.83-1.7,4.28
			c-0.54,1.53-1.01,3.08-1.36,4.66c-0.7-1.88-1.51-3.72-2.54-5.46c-0.27-0.46-1.05-0.19-0.89,0.36c0.89,3.19,1.99,6.32,2.83,9.53
			c0.3,1.13,1.83,0.86,1.95-0.22c0.31-2.97,1.02-5.81,2.03-8.62c0.48-1.33,1.02-2.65,1.57-3.95
			C-186.7,31.22-186.09,30.15-186.17,28.86z"/>
		<linearGradient id="SVGID_9_" gradientUnits="userSpaceOnUse" x1="-162.6183" y1="8.2195" x2="-195.0825" y2="46.4516">
			<stop  offset="0" style="stop-color:#B9493F"/>
			<stop  offset="1" style="stop-color:#C25E58"/>
		</linearGradient>
		<path class="st11" d="M-184.72,31.23c-0.92-0.17-1.25,1.01-0.41,1.38c5.56,2.47,6.29,9.41,2.27,13.62
			c-1.86,1.95-4.32,3.46-6.66,4.75c-2.37,1.32-5.01,2.32-7.76,2.04c-6.37-0.64-7.23-7.18-5.33-12.22
			c1.83-4.85,5.75-8.59,10.55-10.39c0.62-0.23,0.38-1.25-0.26-1.02c-4.5,1.63-8.34,4.84-10.71,9.04c-2.18,3.87-3.5,9.32-0.64,13.2
			c2.96,4.02,8.58,4.09,12.81,2.41c4.66-1.84,10.45-5.26,12.3-10.22C-176.6,38.66-179,32.31-184.72,31.23z"/>
	</g>
	<g>
		<path class="st12" d="M-161.65,66.96c-0.13,0-0.24-0.11-0.24-0.24l-0.29-42.66c0-0.13,0.11-0.24,0.24-0.24c0,0,0,0,0,0
			c0.13,0,0.24,0.11,0.24,0.24l0.29,42.66C-161.41,66.85-161.52,66.96-161.65,66.96C-161.65,66.96-161.65,66.96-161.65,66.96z"/>
		<path class="st12" d="M-162.02,14.51c-0.13,0-0.24-0.11-0.24-0.24l-0.1-14.9c0-0.13,0.11-0.24,0.24-0.24c0,0,0,0,0,0
			c0.13,0,0.24,0.11,0.24,0.24l0.1,14.9C-161.77,14.4-161.88,14.51-162.02,14.51C-162.01,14.51-162.01,14.51-162.02,14.51z"/>
	</g>
	<ellipse class="st12" cx="-252.58" cy="-0.6" rx="2.58" ry="2.6"/>
	<ellipse class="st12" cx="-231.45" cy="-0.8" rx="2.58" ry="2.6"/>
	<ellipse class="st12" cx="-210.13" cy="-1.5" rx="2.58" ry="2.6"/>
	<ellipse class="st12" cx="-189.01" cy="-2.5" rx="2.58" ry="2.6"/>
	<g>
		<linearGradient id="SVGID_10_" gradientUnits="userSpaceOnUse" x1="-188.0113" y1="-46.8292" x2="-186.2535" y2="-14.0902">
			<stop  offset="0" style="stop-color:#4B5198"/>
			<stop  offset="1" style="stop-color:#434A94"/>
		</linearGradient>
		<path class="st13" d="M-181.16-12.82c-0.91-1.95-2.68-4.21-5.89-3.64c-4.34,0.77-3.93,10.06-3.58,13.82
			c0.08,0.89,0.99,1.57,2.08,1.57c0.3,0,0.59-0.11,0.8-0.29s0.3-0.43,0.27-0.68c-0.37-2.85-1.17-11.05,2.02-11.49
			c0,0,0.81-0.12,1.55,0.55C-182.99-12.99-182.08-12.89-181.16-12.82z"/>
		<linearGradient id="SVGID_11_" gradientUnits="userSpaceOnUse" x1="-209.0262" y1="-45.7008" x2="-207.2685" y2="-12.9619">
			<stop  offset="0" style="stop-color:#4B5198"/>
			<stop  offset="1" style="stop-color:#434A94"/>
		</linearGradient>
		<path class="st14" d="M-202.12-11.97c-0.85-2.02-2.64-4.62-6.06-4.01c-4.34,0.77-3.93,10.06-3.58,13.83
			c0.08,0.89,0.99,1.57,2.08,1.57c0.3,0,0.59-0.11,0.8-0.29c0.2-0.18,0.3-0.43,0.27-0.67c-0.37-2.85-1.17-11.06,2.02-11.5
			c0,0,1.2-0.13,2.01,1.13C-203.76-11.91-202.93-11.93-202.12-11.97z"/>
		<linearGradient id="SVGID_12_" gradientUnits="userSpaceOnUse" x1="-230.0761" y1="-44.5706" x2="-228.3183" y2="-11.8317">
			<stop  offset="0" style="stop-color:#4B5198"/>
			<stop  offset="1" style="stop-color:#434A94"/>
		</linearGradient>
		<path class="st15" d="M-223.15-11.28c-0.82-2.04-2.6-4.85-6.15-4.22c-4.34,0.77-3.93,10.06-3.58,13.83
			c0.08,0.89,0.99,1.57,2.08,1.57c0.3,0,0.59-0.1,0.8-0.29c0.2-0.18,0.3-0.43,0.27-0.67c-0.37-2.85-1.17-11.06,2.02-11.5
			c0,0,1.24-0.11,2.04,1.24C-224.83-11.26-223.98-11.23-223.15-11.28z"/>
		<linearGradient id="SVGID_13_" gradientUnits="userSpaceOnUse" x1="-251.1866" y1="-43.4373" x2="-249.4289" y2="-10.6983">
			<stop  offset="0" style="stop-color:#4B5198"/>
			<stop  offset="1" style="stop-color:#434A94"/>
		</linearGradient>
		<path class="st16" d="M-250.42-14.95c-4.34,0.77-3.93,10.07-3.58,13.84c0.08,0.89,0.99,1.58,2.08,1.58c0.3,0,0.59-0.1,0.8-0.29
			c0.2-0.18,0.3-0.43,0.27-0.67c-0.37-2.85-1.17-11.07,2.02-11.51c0,0,1.14-0.13,1.95,1.03c0.85,0.03,1.71,0.15,2.56,0.14
			C-245.15-12.87-246.93-15.57-250.42-14.95z"/>
	</g>
</g>
<path class="st2" d="M130.68,16.3l-12.74-0.12c-2.14-0.02-3.89,1.69-3.94,3.85l-0.31,14.49c-0.05,2.14,1.61,3.92,3.73,4.01
	l12.73,0.54c2.18,0.09,4.02-1.64,4.06-3.85l0.31-14.91C134.59,18.12,132.85,16.32,130.68,16.3z"/>
<g>
	<g>
		<linearGradient id="SVGID_14_" gradientUnits="userSpaceOnUse" x1="95.5942" y1="-115.7316" x2="24.4093" y2="7.0974">
			<stop  offset="0" style="stop-color:#1B2057"/>
			<stop  offset="1" style="stop-color:#23207E"/>
		</linearGradient>
		<circle class="st17" cx="-70" cy="170" r="49.77"/>
		<linearGradient id="SVGID_15_" gradientUnits="userSpaceOnUse" x1="95.5943" y1="-115.7316" x2="24.4098" y2="7.0967">
			<stop  offset="0" style="stop-color:#1B2057"/>
			<stop  offset="1" style="stop-color:#23207E"/>
		</linearGradient>
		<circle class="st18" cx="-70" cy="170" r="48.11"/>
		<path class="st2" d="M-109.67,151.09c-0.16,0-0.33-0.04-0.48-0.12c-0.53-0.27-0.74-0.91-0.47-1.44
			c7.79-15.43,23.36-25.02,40.63-25.02c2.76,0,5.52,0.25,8.2,0.74c0.58,0.11,0.97,0.67,0.86,1.25c-0.11,0.58-0.66,0.97-1.25,0.86
			c-2.56-0.47-5.19-0.7-7.82-0.7c-16.46,0-31.29,9.13-38.72,23.84C-108.9,150.87-109.28,151.09-109.67,151.09z"/>
		
			<ellipse transform="matrix(0.9732 -0.2298 0.2298 0.9732 -41.1437 -11.2662)" class="st2" cx="-68.95" cy="171.05" rx="40.72" ry="40.72"/>
	</g>
	<g>
		<g>
			<linearGradient id="SVGID_16_" gradientUnits="userSpaceOnUse" x1="-58.1506" y1="143.6354" x2="-79.6507" y2="200.5474">
				<stop  offset="0" style="stop-color:#1B2057"/>
				<stop  offset="1" style="stop-color:#23207E"/>
			</linearGradient>
			<path class="st19" d="M-73.41,161.64c0,5.35-0.89,9.41-2.66,12.19c-1.77,2.78-4.35,4.17-7.73,4.17c-3.5,0-6.07-1.36-7.71-4.08
				c-1.64-2.72-2.47-6.77-2.47-12.14c0-10.91,3.39-16.37,10.18-16.37C-76.88,145.41-73.41,150.82-73.41,161.64z M-86.48,161.71
				c0,3.29,0.21,5.69,0.63,7.19c0.42,1.5,1.13,2.25,2.11,2.25c0.99,0,1.7-0.75,2.15-2.25c0.45-1.5,0.67-3.9,0.67-7.19
				c0-3.29-0.23-5.69-0.69-7.19c-0.46-1.5-1.17-2.25-2.13-2.25c-0.99,0-1.69,0.75-2.11,2.25
				C-86.27,156.02-86.48,158.42-86.48,161.71z M-54.57,146.16l-21.27,51.9h-7.29l21.2-51.9H-54.57z M-43.69,182.37
				c0,5.35-0.89,9.41-2.68,12.18c-1.78,2.77-4.36,4.15-7.71,4.15c-3.52,0-6.1-1.35-7.73-4.06c-1.63-2.71-2.45-6.75-2.45-12.12
				c0-5.3,0.84-9.35,2.52-12.16c1.68-2.8,4.23-4.21,7.66-4.21C-47.16,166.15-43.69,171.55-43.69,182.37z M-56.76,182.44
				c0,3.29,0.21,5.69,0.63,7.19c0.42,1.5,1.13,2.25,2.11,2.25c0.99,0,1.7-0.75,2.15-2.25c0.45-1.5,0.67-3.9,0.67-7.19
				c0-3.29-0.23-5.68-0.69-7.17c-0.46-1.49-1.17-2.24-2.13-2.24c-0.96,0-1.66,0.75-2.1,2.24
				C-56.54,176.76-56.76,179.15-56.76,182.44z"/>
		</g>
		<g>
			<linearGradient id="SVGID_17_" gradientUnits="userSpaceOnUse" x1="-16.7854" y1="34.1395" x2="-85.3045" y2="215.5133">
				<stop  offset="0" style="stop-color:#1B2057"/>
				<stop  offset="1" style="stop-color:#23207E"/>
			</linearGradient>
			<path class="st20" d="M-73.41,161.64c0,5.35-0.89,9.41-2.66,12.19c-1.77,2.78-4.35,4.17-7.73,4.17c-3.5,0-6.07-1.36-7.71-4.08
				c-1.64-2.72-2.47-6.77-2.47-12.14c0-10.91,3.39-16.37,10.18-16.37C-76.88,145.41-73.41,150.82-73.41,161.64z M-86.48,161.71
				c0,3.29,0.21,5.69,0.63,7.19c0.42,1.5,1.13,2.25,2.11,2.25c0.99,0,1.7-0.75,2.15-2.25c0.45-1.5,0.67-3.9,0.67-7.19
				c0-3.29-0.23-5.69-0.69-7.19c-0.46-1.5-1.17-2.25-2.13-2.25c-0.99,0-1.69,0.75-2.11,2.25
				C-86.27,156.02-86.48,158.42-86.48,161.71z M-54.57,146.16l-21.27,51.9h-7.29l21.2-51.9H-54.57z M-43.69,182.37
				c0,5.35-0.89,9.41-2.68,12.18c-1.78,2.77-4.36,4.15-7.71,4.15c-3.52,0-6.1-1.35-7.73-4.06c-1.63-2.71-2.45-6.75-2.45-12.12
				c0-5.3,0.84-9.35,2.52-12.16c1.68-2.8,4.23-4.21,7.66-4.21C-47.16,166.15-43.69,171.55-43.69,182.37z M-56.76,182.44
				c0,3.29,0.21,5.69,0.63,7.19c0.42,1.5,1.13,2.25,2.11,2.25c0.99,0,1.7-0.75,2.15-2.25c0.45-1.5,0.67-3.9,0.67-7.19
				c0-3.29-0.23-5.68-0.69-7.17c-0.46-1.49-1.17-2.24-2.13-2.24c-0.96,0-1.66,0.75-2.1,2.24
				C-56.54,176.76-56.76,179.15-56.76,182.44z"/>
		</g>
	</g>
</g>
<g>
	<g>
		<linearGradient id="SVGID_18_" gradientUnits="userSpaceOnUse" x1="215.8259" y1="-235.4999" x2="144.641" y2="-112.6709">
			<stop  offset="0" style="stop-color:#1B2057"/>
			<stop  offset="1" style="stop-color:#23207E"/>
		</linearGradient>
		<circle class="st21" cx="50.23" cy="50.23" r="49.77"/>
		<linearGradient id="SVGID_19_" gradientUnits="userSpaceOnUse" x1="215.826" y1="-235.4999" x2="144.6415" y2="-112.6716">
			<stop  offset="0" style="stop-color:#1B2057"/>
			<stop  offset="1" style="stop-color:#23207E"/>
		</linearGradient>
		<circle class="st22" cx="50.23" cy="50.23" r="48.11"/>
		<path class="st2" d="M10.56,31.32c-0.16,0-0.33-0.04-0.48-0.12c-0.53-0.27-0.74-0.91-0.47-1.44C17.39,14.33,32.96,4.74,50.23,4.74
			c2.76,0,5.52,0.25,8.2,0.74c0.58,0.11,0.97,0.67,0.86,1.25c-0.11,0.58-0.66,0.97-1.25,0.86c-2.56-0.47-5.19-0.7-7.82-0.7
			c-16.46,0-31.29,9.13-38.72,23.84C11.33,31.1,10.95,31.32,10.56,31.32z"/>
		
			<ellipse transform="matrix(0.9732 -0.2298 0.2298 0.9732 -10.41 13.1537)" class="st2" cx="51.28" cy="51.28" rx="40.72" ry="40.72"/>
	</g>
	<g>
		<g>
			<linearGradient id="SVGID_20_" gradientUnits="userSpaceOnUse" x1="58.391" y1="19.5444" x2="43.8047" y2="58.155">
				<stop  offset="0" style="stop-color:#1B2057"/>
				<stop  offset="1" style="stop-color:#23207E"/>
			</linearGradient>
			<path class="st23" d="M62.58,23.51c-0.06-1.02-1.11-1.46-1.89-0.84c-2.2,1.74-3.09,4.45-4.17,6.98
				c-1.26,2.94-2.47,5.91-3.54,8.93c-1.13,3.18-2.1,6.42-2.83,9.71c-1.46-3.93-3.15-7.76-5.3-11.39c-0.57-0.96-2.18-0.4-1.86,0.74
				c1.86,6.66,4.14,13.18,5.89,19.87c0.62,2.36,3.82,1.8,4.06-0.47c0.65-6.2,2.14-12.12,4.24-17.97c1-2.78,2.12-5.52,3.28-8.24
				C61.48,28.42,62.73,26.18,62.58,23.51z"/>
			<linearGradient id="SVGID_21_" gradientUnits="userSpaceOnUse" x1="61.7832" y1="25.1127" x2="40.6646" y2="81.0147">
				<stop  offset="0" style="stop-color:#1B2057"/>
				<stop  offset="1" style="stop-color:#23207E"/>
			</linearGradient>
			<path class="st24" d="M65.59,28.44c-1.91-0.36-2.61,2.1-0.85,2.88c11.59,5.14,13.11,19.63,4.73,28.4
				c-3.87,4.06-9.01,7.21-13.88,9.91c-4.94,2.75-10.44,4.84-16.17,4.26c-13.27-1.34-15.08-14.97-11.11-25.48
				c3.82-10.11,11.99-17.91,22-21.65c1.29-0.48,0.79-2.6-0.53-2.13C40.39,28.04,32.4,34.74,27.45,43.5
				c-4.55,8.06-7.29,19.43-1.33,27.52c6.17,8.37,17.88,8.52,26.7,5.03c9.71-3.84,21.79-10.96,25.65-21.3
				C82.53,43.93,77.53,30.7,65.59,28.44z"/>
		</g>
		<g>
			<linearGradient id="SVGID_22_" gradientUnits="userSpaceOnUse" x1="107.6357" y1="-22.9674" x2="39.9513" y2="56.7424">
				<stop  offset="0" style="stop-color:#1B2057"/>
				<stop  offset="1" style="stop-color:#23207E"/>
			</linearGradient>
			<path class="st25" d="M62.58,23.51c-0.06-1.02-1.11-1.46-1.89-0.84c-2.2,1.74-3.09,4.45-4.17,6.98
				c-1.26,2.94-2.47,5.91-3.54,8.93c-1.13,3.18-2.1,6.42-2.83,9.71c-1.46-3.93-3.15-7.76-5.3-11.39c-0.57-0.96-2.18-0.4-1.86,0.74
				c1.86,6.66,4.14,13.18,5.89,19.87c0.62,2.36,3.82,1.8,4.06-0.47c0.65-6.2,2.14-12.12,4.24-17.97c1-2.78,2.12-5.52,3.28-8.24
				C61.48,28.42,62.73,26.18,62.58,23.51z"/>
			<linearGradient id="SVGID_23_" gradientUnits="userSpaceOnUse" x1="111.6768" y1="-19.5355" x2="43.9923" y2="60.1743">
				<stop  offset="0" style="stop-color:#1B2057"/>
				<stop  offset="1" style="stop-color:#23207E"/>
			</linearGradient>
			<path class="st26" d="M65.59,28.44c-1.91-0.36-2.61,2.1-0.85,2.88c11.59,5.14,13.11,19.63,4.73,28.4
				c-3.87,4.06-9.01,7.21-13.88,9.91c-4.94,2.75-10.44,4.84-16.17,4.26c-13.27-1.34-15.08-14.97-11.11-25.48
				c3.82-10.11,11.99-17.91,22-21.65c1.29-0.48,0.79-2.6-0.53-2.13C40.39,28.04,32.4,34.74,27.45,43.5
				c-4.55,8.06-7.29,19.43-1.33,27.52c6.17,8.37,17.88,8.52,26.7,5.03c9.71-3.84,21.79-10.96,25.65-21.3
				C82.53,43.93,77.53,30.7,65.59,28.44z"/>
		</g>
	</g>
</g>
</svg>
