<?xml version="1.0" encoding="utf-8"?>
<!-- Generator: Adobe Illustrator 23.0.2, SVG Export Plug-In . SVG Version: 6.00 Build 0)  -->
<svg version="1.1" id="Capa_1" xmlns="http://www.w3.org/2000/svg" xmlns:xlink="http://www.w3.org/1999/xlink" x="0px" y="0px"
	 viewBox="0 0 2750.8 2800" style="enable-background:new 0 0 2750.8 2800;" xml:space="preserve">
<style type="text/css">
	.st0{fill:url(#SVGID_1_);}
	.st1{fill:#C0CEF8;}
	.st2{opacity:0.45;fill:#FFFFFF;enable-background:new    ;}
	.st3{fill:#99B0F6;}
	.st4{fill:#9BB3F5;}
	.st5{fill:#D77159;}
	.st6{fill:#4D52E6;}
	.st7{fill:#8398EE;}
	.st8{fill:#7CBDA4;}
	.st9{fill:#5E8D7C;}
	.st10{fill:url(#SVGID_2_);}
	.st11{fill:url(#SVGID_3_);}
	.st12{fill:#DEE6FC;}
	.st13{fill:url(#SVGID_4_);}
	.st14{fill:#FFFFFF;}
	.st15{fill:#020E28;}
	.st16{fill:#02184C;}
	.st17{opacity:0.58;fill:#BDC6E3;enable-background:new    ;}
	.st18{opacity:0.78;fill:#BDC6E3;enable-background:new    ;}
	.st19{fill:url(#SVGID_5_);}
	.st20{fill:url(#SVGID_6_);}
	.st21{fill:#C1CFF6;}
	.st22{fill:#D57E7E;}
	.st23{fill:#E2918E;}
	.st24{fill:#121053;}
</style>
<g id="Background">
</g>
<g>
	
		<linearGradient id="SVGID_1_" gradientUnits="userSpaceOnUse" x1="2973.9993" y1="-356.2738" x2="1077.2383" y2="1662.8583" gradientTransform="matrix(1 0 0 -1 0 2797.8899)">
		<stop  offset="0" style="stop-color:#DBE1FC"/>
		<stop  offset="1" style="stop-color:#E9EDFB"/>
	</linearGradient>
	<path class="st0" d="M2404.5,2344.1c-70,72.1-132.7,114.6-180.6,146.6c-467.8,312.4-1002.6,222.3-1168,191.5
		c-266.7-49.7-491.9-84.6-685.4-259.5c-439.6-397.1-418.2-1225.7-82.3-1739c39.8-60.8,375.3-558,911.1-628.1
		c13.1-1.8,22.8-2.7,31.4-3.6c82.9-8.8,596.7-55.1,1015.6,295.9c59.9,50.3,156.5,140.9,245.9,279.1
		C2819.6,1132.5,2820.7,1915.1,2404.5,2344.1z"/>
	<g>
		<path class="st1" d="M2383.8,136.6c54.2,268.6,306,1844.5-1130.5,2346.4c0,0-432.8-994.8,1092.3-2359.2
			C2359,111.9,2380.3,119,2383.8,136.6z"/>
		<path class="st2" d="M2311.2,431c-28,83-57.7,165.4-88.1,247.5c-30.5,82.1-61.8,163.8-94.1,245.1c-64.6,162.7-133,324-206.2,483.1
			c-73.3,159-151.3,316-237.8,468.6c-43,76.3-88.7,151.2-137.4,224.3c-48.7,72.9-100.4,144.2-157.7,211.1c-3.4,3.9-9.4,4.4-13.3,1.1
			c-3.9-3.4-4.4-9.4-1.1-13.3l0,0l0,0c56.9-65.8,108.6-136.2,157.4-208.5c48.7-72.3,94.7-146.6,137.9-222.6
			c87-151.5,165.7-307.8,239.7-466.2c73.9-158.4,142.9-319.2,208.4-481.5c32.7-81.1,64.4-162.6,95.3-244.5
			c30.8-81.8,60.9-164,89.2-246.7l0,0c0.7-2.1,3-3.2,5.1-2.4C2310.7,426.6,2311.9,428.9,2311.2,431z"/>
	</g>
	<g>
		<path class="st3" d="M1497.8,2590.3c0,0-18.4-267.4,226.2-561.5c226.9-273,787.7-907.7,900.2-1241.4c5-14.7,26.5-12.5,28,3
			c16.6,166.5,25.5,586.8-225.2,1027.9C2103.6,2387,1497.8,2590.3,1497.8,2590.3z"/>
		<path class="st2" d="M2553.7,1094.3c-1.5,37-7.6,73.7-15.6,109.8c-1,4.5-1.9,9.1-2.9,13.6l-3.4,13.5l-6.9,26.9l-8,26.7
			c-2.7,8.9-5.2,17.9-8.4,26.5c-24,70.1-53.7,138.4-89.2,203.5c-8.2,16.7-18.2,32.3-27.4,48.4l-14.3,23.8c-2.4,4-4.6,8.1-7.2,11.9
			l-7.6,11.6l-30.6,46.5c-4.9,7.9-10.6,15.1-16.1,22.6l-16.5,22.5l-16.5,22.5l-8.3,11.2l-8.8,10.7l-35.1,43.2
			c-6,7.1-11.6,14.5-17.7,21.5l-18.3,20.9l-36.4,41.8l-36.9,41.4c-12.4,13.8-24.6,27.6-37.1,41.2c-24.9,27.3-50,54.5-75.4,81.4
			c-25.2,27-50.9,53.7-76.3,80.4l-77.2,79.6c-51.5,52.9-103.2,105.7-153,160.2c-12.6,13.5-24.6,27.4-36.7,41.3
			c-6.2,6.8-11.9,14.1-17.8,21.2c-5.8,7.1-11.8,14.2-17.4,21.5c-10.9,14.8-22.5,29.2-32.3,44.7l-7.7,11.4c-1.3,2-2.6,3.8-3.8,5.8
			l-3.4,6l-13.8,23.9l-0.1,0.1c-0.6,1-1.8,1.3-2.7,0.8c-0.9-0.5-1.3-1.7-0.8-2.6c16.7-33.2,36.9-64.4,59-94.3
			c5.5-7.4,11.3-14.6,17-22c5.8-7.3,11.3-14.7,17.4-21.7c11.9-14.2,23.6-28.6,35.9-42.4l18.4-20.9c6.2-6.9,12.5-13.7,18.7-20.5
			l18.7-20.4l18.9-20.2c25.2-27,50.8-53.8,76.1-80.6c50.9-53.6,101.6-107.2,151.9-161.3c50.3-54.1,99.7-108.9,148.7-164.1l36.3-41.8
			l18.2-20.9c6.1-6.9,11.7-14.2,17.7-21.3l35-42.7l8.8-10.6l8.3-11l16.5-22.2c44.6-58.5,84.3-120.7,120.6-184.7
			c36.6-63.8,67.5-131,92.6-200.1c3.4-8.6,6-17.4,9.1-26.1l8.8-26.2l7.7-26.6l3.8-13.3c1.2-4.5,2.2-9,3.3-13.4
			c2.1-9,4.6-17.9,6.4-26.8l5.6-27.1c3.1-18.2,6.3-36.4,7.6-54.8c0-0.1,0.1-0.3,0.3-0.3C2553.6,1094.1,2553.7,1094.2,2553.7,1094.3z
			"/>
	</g>
	<g>
		<path class="st4" d="M1957.6,2229.1c-51.1-42.7-77.2-82.2-82-89.7l179.5-113.4c0,0-0.3-0.4-0.8-1.2c0.2,0.2,15.1,22.3,45,46
			c38.2,30.3,82.6,49.6,131.9,57.5c62.8,10,127.6-10.9,170.9-30.3c48.2-21.6,80.6-45.7,80.9-45.9l159.2,30.8l-30,137.7
			c-62.2,47.7-161.1,94.9-252.8,113.1C2207.6,2363.9,2062.4,2316.9,1957.6,2229.1z"/>
	</g>
	<rect x="55.4" y="1592.3" class="st5" width="2073.7" height="217"/>
	<path class="st6" d="M1577.4,2360.6c-467.6-247.3-975.6-399.5-1497-448.6c19.3-226.3,38.7-452.5,58-678.8
		c602.9,56.8,1190.2,232.7,1730.9,518.6C1772,1954.8,1674.8,2157.6,1577.4,2360.6z"/>
	<path class="st7" d="M126.4,1787.9c13.2-141.1,26.4-282.2,39.5-423.3c54.8,5.7,103.9-29.8,109.8-80.4
		c502.7,63.2,992.6,209.9,1451.2,434.8c-20.4,46.4,3.5,103.6,52.9,129.2c-59.7,127.2-119.4,254.3-179.1,381.5
		c-45.4-23.5-99.2-4.1-119.6,42.3c-402.8-197.5-833-326.5-1274.4-381.8C212.7,1839.4,176.9,1793.1,126.4,1787.9z"/>
	<path class="st8" d="M1205.5,1811.2c-42.2,121.3-172.1,183.2-292.7,146.1c-120.5-37.4-197.9-163.2-170.8-289.3
		c27-125.8,160.8-201.2,296.3-159.2C1173.9,1550.6,1247.6,1690,1205.5,1811.2z"/>
	<path class="st9" d="M911.8,1914.6c3.4-13.6,6.7-27.1,10.1-40.6c-18.2-6-35.3-14.3-49.1-23c-11.5-7.3-15.6-22.3-9.5-34.1
		c0.3-0.5,0.5-1,0.8-1.5c6.8-13.1,23.6-17.3,36.3-8.9c12.9,8.5,28.1,16.1,45,20.9c24.6,6.9,43.8,2.4,48.3-14.6
		c4.2-16.2-7-30.6-36.8-50.4c-43.1-28.4-70.6-58.2-61.1-99.9c8.6-37.8,43.4-60.4,94.3-56c3.3-13.6,6.6-27.1,10-40.7
		c14.9,4.1,29.9,8.4,44.8,12.7c-3.2,12.5-6.3,25.1-9.6,37.6c16.3,5.5,29.3,11.5,39.8,17.8c12.9,7.6,17.4,23.4,10.3,35.4l0,0
		c-7.3,12.4-24,15.9-37,7.8c-9.8-6.1-22.2-12.2-38-16.7c-29.2-8.3-41.6,1.2-44.5,13.2c-3.5,14.2,10.1,27.3,44.1,51.8
		c48,33.2,62.4,63.3,51.8,101.4c-10.5,37.8-46.4,61.6-97.5,55.9c-3.7,14.5-7.5,29-11.2,43.5C939.4,1922.3,925.7,1918.4,911.8,1914.6
		z"/>
	<path class="st8" d="M670.6,1663.3c-119.2-27.5-239.5-49.9-360.7-67.2c2.8-21.8,5.6-43.5,8.4-65.3c122.9,17.5,244.9,40.2,365.8,68
		C679.6,1620.5,675.1,1642,670.6,1663.3z"/>
	<path class="st8" d="M1600,1993.4c-110.9-54.3-223.8-103.6-338.3-148.1c7.2-20.6,14.4-41.2,21.8-61.8
		c116.1,45,230.5,95.1,343,150.1C1617.6,1953.6,1608.8,1973.5,1600,1993.4z"/>
	<path class="st6" d="M1796,1583.9c-482.5,100.7-941.9,302.8-1354.1,595.3c-111.5-192.1-222.8-384.3-334.2-576.5
		c476.6-338.3,1007.8-571.8,1565.6-688.4C1714.2,1137.5,1755.1,1360.7,1796,1583.9z"/>
	<path class="st7" d="M406.9,2051.4c-68.6-120.6-137.3-241.1-205.9-361.7c43.5-30.4,60.1-89.7,36.4-133.8
		c406.1-269.4,849.2-464.3,1312.7-577.2c10.6,49.8,60.1,80.2,110.8,69.1c26.6,139.1,53,278.1,79.6,417.3
		c-46.6,10.2-75.5,59.8-64.8,109.6c-407,99.1-796.1,270.2-1152.8,506.9C499.3,2037.4,447,2023.4,406.9,2051.4z"/>
	<path class="st6" d="M1216.3,1383.7c36.3,123.3-25.4,255.1-134.9,302.3c-109.6,47-236.7-3.9-286.7-121.3
		c-49.9-117.2,6.9-262.2,130.3-315C1048.4,1196.6,1180.2,1260.5,1216.3,1383.7z"/>
	<path class="st4" d="M1057,1652.7c-5.1-12.9-10.1-25.9-15.1-38.8c-16.7,6.8-34,11.2-49,13c-12.6,1.5-23.9-7.7-25.9-21.1
		c-0.1-0.5-0.2-1.1-0.2-1.7c-2.2-14.7,7.9-28.7,21.9-30.2c14.3-1.5,29.7-5.1,44.8-12.1c22-10.2,33.8-26,27.5-42.4
		c-5.9-15.5-22.2-19.8-55.2-16.6c-47.6,4.8-84.3-1.4-100.6-40.6c-14.6-35.5-1.5-75.7,38.6-104.5c-5.1-12.9-10.2-25.8-15.2-38.7
		c13.4-6.2,26.7-12.4,40.1-18.5c4.6,12,9.2,24,13.8,36c15-6.1,28-9.5,39.2-11.2c13.8-2.1,25.9,7.6,27.3,21.6l0,0
		c1.5,14.4-8.9,27.9-22.9,29.8c-10.5,1.4-23.1,4.4-37.3,10.8c-26.2,12-30.1,27.3-25.5,38.8c5.3,13.5,22.6,15.3,61.4,13.2
		c53.9-4.1,81.2,10.6,94.6,47.7c13.3,36.8,0,78.4-41,106.5c5.3,14,10.5,27.8,15.8,41.8C1081.7,1641.3,1069.3,1646.9,1057,1652.7z"/>
	<path class="st8" d="M739.4,1606.3c-103.3,53.9-204.5,112.7-303.5,176c-10.1-19-20-38.2-30.1-57.2
		c100.4-64.2,203.1-123.8,307.8-178.5C722.2,1566.6,730.8,1586.4,739.4,1606.3z"/>
	<path class="st6" d="M1608.7,1277.7c-112,27.4-222.7,59.9-331.9,97.4c-6.1-21-12.2-42-18.3-63c110.7-38,223-71,336.5-98.8
		C1599.6,1234.9,1604.2,1256.3,1608.7,1277.7z"/>
	<path class="st6" d="M1872.9,2005.7c-501.8-30.4-1004.3,43.2-1481,217c-65.6-215.6-131.3-431-196.9-646.6
		c551.3-201,1132.3-286.1,1712.3-251C1895.9,1552.1,1884.5,1778.8,1872.9,2005.7z"/>
	<path class="st7" d="M387.1,2089.7c-39.9-134.9-80-269.7-119.9-404.7c50.3-17.9,80.5-70.9,67.3-119.9
		c465.4-153.1,950-224.1,1435.8-210.4c-1,51.1,41,93.5,93.7,96.3c-6.2,141.7-12.2,283.3-18.3,424.9c-48.6-2.5-88.7,37.9-89.8,88.9
		c-426.5-12-852.2,50.4-1260.8,184.8C481.8,2100.7,433.3,2073.3,387.1,2089.7z"/>
	<path class="st6" d="M1345,1658.2c7.2,129-84.5,240.2-204.1,256.9c-119.7,16.3-233.7-66.6-256-193.5
		c-22.2-126.7,67.9-251.9,202.6-270.3C1222.1,1432.6,1337.8,1529.4,1345,1658.2z"/>
	<path class="st4" d="M1124.3,1876.3c-2-13.9-4-27.6-6-41.5c-18.2,2.2-36.3,1.9-51.6-0.5c-12.8-2-21.9-13.8-20.8-27.2
		c0-0.6,0.1-1.1,0.1-1.7c1.3-14.8,14.5-25.8,28.8-23.4c14.4,2.3,30.7,2.9,47.3,0.2c24.2-4,39.5-16.2,37.2-33.7
		c-2.2-16.6-17.4-25.1-50.8-30.7c-48.3-8-83.4-23.7-90.2-65.9c-6.2-38.3,16.2-73.6,62.6-90.9c-2.1-13.9-4.1-27.6-6.1-41.5
		c14.6-2.4,29.4-4.9,44-7.2c1.8,12.8,3.5,25.7,5.3,38.5c16.3-1.9,30-1.8,41.5-0.5c14.2,1.6,23.9,14.2,22.1,28.1l0,0
		c-1.9,14.4-15.3,24.7-29.7,22.7c-10.7-1.5-23.9-2-39.5,0.6c-28.7,4.7-36.1,18.5-34.4,30.8c2.1,14.4,18.8,20.9,57.8,29
		c54.4,10.3,78,31.8,82.7,71.3c4.6,39.1-18.3,75.9-65.4,92.3c2.1,14.8,4,29.8,6,44.6C1151.6,1871.7,1137.9,1873.9,1124.3,1876.3z"/>
	<path class="st8" d="M820.3,1747.2c-114.9,24.8-229,54.8-341.9,89.8c-5.5-21.1-10.9-42.3-16.4-63.4
		c114.5-35.5,230.2-65.9,346.7-91.1C812.6,1704.2,816.4,1725.6,820.3,1747.2z"/>
	<path class="st8" d="M1758.6,1659.6c-117.4-3.1-234.8-1.1-351.7,6.2c-1.2-22-2.2-43.8-3.4-65.8c118.6-7.4,237.6-9.6,356.6-6.3
		C1759.6,1615.8,1759.1,1637.8,1758.6,1659.6z"/>
	
		<linearGradient id="SVGID_2_" gradientUnits="userSpaceOnUse" x1="55.351" y1="749.3112" x2="2129.0105" y2="749.3112" gradientTransform="matrix(1 0 0 -1 0 2797.8899)">
		<stop  offset="0" style="stop-color:#09005D"/>
		<stop  offset="1" style="stop-color:#1A0F91"/>
	</linearGradient>
	<rect x="55.4" y="1592.3" class="st10" width="2073.7" height="912.6"/>
	
		<linearGradient id="SVGID_3_" gradientUnits="userSpaceOnUse" x1="131.7916" y1="1125.2662" x2="2019.5723" y2="1125.2662" gradientTransform="matrix(1 0 0 -1 0 2797.8899)">
		<stop  offset="0" style="stop-color:#4F52FF"/>
		<stop  offset="1" style="stop-color:#4042E2"/>
	</linearGradient>
	<rect x="131.8" y="1637.2" class="st11" width="1887.8" height="70.9"/>
	<path class="st7" d="M983.2,2493.6H73.1c-22.5,0-40.6-18.2-40.6-40.6v-485.7c0-22.5,18.2-40.6,40.6-40.6h910.1
		c22.5,0,40.6,18.2,40.6,40.6v485.7C1023.7,2475.4,1005.5,2493.6,983.2,2493.6z"/>
	<rect x="528.2" y="2003.6" class="st12" width="432.9" height="26.5"/>
	<rect x="132.2" y="2306.3" class="st12" width="796.6" height="32.7"/>
	<rect x="132.2" y="2383.3" class="st12" width="796.6" height="32.7"/>
	
		<linearGradient id="SVGID_4_" gradientUnits="userSpaceOnUse" x1="155.7098" y1="960.8165" x2="1035.8997" y2="960.8165" gradientTransform="matrix(1 0 0 -1 0 2797.8899)">
		<stop  offset="0" style="stop-color:#4F52FF"/>
		<stop  offset="1" style="stop-color:#4042E2"/>
	</linearGradient>
	<rect x="155.7" y="1825.3" class="st13" width="880.2" height="23.5"/>
	<path class="st4" d="M1674.4,1382.8c52.2,74.4,34.2,177-40.1,229.1c-74.4,52.2-177,34.2-229.1-40.1c-52.2-74.4-34.2-177,40.1-229.1
		C1519.6,1290.4,1622.1,1308.4,1674.4,1382.8z"/>
	<path class="st14" d="M1558.7,1593l-7.1-26.6c-12.1,2.7-24.5,3.6-35,3.1c-8.8-0.5-15.7-7.7-15.8-16.5v-1.1
		c-0.1-9.7,8-17.6,17.7-16.9c9.9,0.7,20.8,0,31.6-2.9c15.9-4.3,25.1-13.4,22.1-24.5c-2.8-10.6-13.6-14.8-36.1-16.3
		c-32.6-2-56.7-10.4-64-37.5c-6.6-24.6,5.5-48.5,33.7-62.4l-7.1-26.6l27.3-7.4l6.6,24.6c10.3-2.2,18.9-3.2,26.5-3.2
		c9.2,0,16.6,7.3,16.7,16.5l0,0c0.1,9.5-7.6,17.2-17.1,16.9c-7.1-0.2-15.6,0.5-25.5,3.1c-18.2,4.9-21.9,14.4-19.7,22.2
		c2.5,9.2,13.9,12.4,39.9,14.9c36.4,2.7,53.9,14.4,60.7,39.5c6.7,24.8-5.2,50.8-35.7,65l7.7,28.5L1558.7,1593z"/>
	<path class="st4" d="M1859.3,2010.1c52.2,74.4,34.2,177-40.1,229.1c-74.4,52.2-177,34.2-229.1-40.1c-52.2-74.4-34.2-177,40.1-229.1
		C1704.5,1917.9,1807.1,1935.8,1859.3,2010.1z"/>
	<path class="st14" d="M1743.7,2220.4l-7.1-26.6c-12.1,2.7-24.5,3.6-35,3.1c-8.8-0.5-15.7-7.7-15.8-16.5v-1.1
		c-0.1-9.7,8-17.6,17.7-16.9c9.9,0.7,20.8,0,31.6-2.9c15.9-4.3,25.1-13.4,22.1-24.5c-2.8-10.6-13.6-14.8-36.1-16.3
		c-32.6-2-56.7-10.4-64-37.5c-6.6-24.6,5.5-48.5,33.7-62.4l-7.1-26.6l27.3-7.4l6.6,24.6c10.3-2.2,18.9-3.2,26.5-3.2
		c9.2,0,16.6,7.3,16.7,16.5l0,0c0.1,9.5-7.6,17.2-17.1,16.9c-7.1-0.2-15.6,0.5-25.5,3.1c-18.2,4.9-21.9,14.3-19.8,22.2
		c2.5,9.2,13.9,12.4,39.9,14.9c36.4,2.7,53.9,14.4,60.7,39.5c6.7,24.8-5.2,50.8-35.7,65l7.7,28.5L1743.7,2220.4z"/>
	<ellipse class="st4" cx="1343.8" cy="1859.1" rx="164.5" ry="164.5"/>
	<path class="st14" d="M1292.8,1964.8l9.4-25.8c-11.5-4.8-22.2-11.1-30.5-17.6c-6.9-5.5-8.5-15.3-3.5-22.6l0.6-0.9
		c5.5-8,16.6-9.8,24.2-3.7c7.7,6.2,17,11.9,27.6,15.7c15.5,5.7,28.2,3.5,32.2-7.4c3.7-10.3-2.6-20-20.2-34.1
		c-25.6-20.3-40.4-41.1-30.8-67.5c8.7-23.9,32.3-36.5,63.5-31.7l9.4-25.8l26.7,9.7l-8.7,23.9c9.8,4,17.4,8.3,23.5,12.6
		c7.5,5.3,9.4,15.5,4.2,23.1l0,0c-5.4,7.8-16.1,9.7-23.7,4.1c-5.7-4.2-13.1-8.6-22.6-12c-17.7-6.4-26.2-0.9-28.9,6.7
		c-3.2,9,4.2,18.2,24.1,35.1c28.2,23.1,35.8,42.9,26.9,67.3c-8.8,24.2-33.4,38.7-66.6,32.7l-10.1,27.7L1292.8,1964.8z"/>
	<g>
		<ellipse class="st15" cx="1312.5" cy="827.6" rx="264.8" ry="264.8"/>
		<ellipse class="st16" cx="1312.5" cy="827.6" rx="256" ry="256"/>
		<path class="st17" d="M1099.6,729.9c-0.7,0-1.5-0.1-2.1-0.5c-2.3-1.2-3.4-4-2.2-6.3c39.8-82.5,121.3-134.8,212.9-136.5
			c14.6-0.3,29.3,0.8,43.5,3.1c2.6,0.4,4.4,2.9,3.9,5.5c-0.5,2.5-2.8,4.4-5.5,3.9c-13.8-2.2-27.8-3.2-41.8-3
			c-88,1.6-166.3,51.8-204.5,131C1103.1,728.8,1101.4,729.9,1099.6,729.9z"/>
		
			<ellipse transform="matrix(0.7071 -0.7071 0.7071 0.7071 -202.9412 1176.0923)" class="st18" cx="1318.2" cy="833" rx="216.6" ry="216.6"/>
		<g>
			<path class="st16" d="M1299.9,994.5l-0.4-23.5c-24.6-0.5-49-5.9-66.4-13.2c-6.2-2.6-9.5-9.5-7.8-16l5.6-22.1
				c2.1-8.1,10.7-12.4,18.5-9.3c17.3,6.8,38.5,12.2,61.3,11.7c23.6-0.4,41.2-8.8,40.9-25.2c-0.3-14.8-14.1-23.4-47.2-31.6
				c-47.2-12-81.2-31.8-82-73.1c-0.7-37.3,26.1-66.3,73.3-74.8l-0.4-23.5c-0.1-7.6,5.9-13.9,13.5-14l13.9-0.3
				c7.6-0.1,13.9,5.9,14,13.5l0.4,21.2c22.7,0.5,39.3,4.1,52.6,8.5c6.7,2.2,10.5,9.4,8.9,16.3l-5.2,20.4c-2,7.9-10.3,12.3-17.9,9.6
				c-12.2-4.4-29.4-8.8-51.5-8.4c-28.1,0.5-35.9,12.3-35.7,22.7c0.2,12.9,17.3,21.4,54,31.9c52.4,14.7,74.5,35.9,75.2,74.9
				c0.7,35.7-25.3,68.2-76.4,77.2l0.5,26.4c0.1,7.6-5.9,13.9-13.5,14l-13.9,0.3C1306.2,1008.1,1300,1002,1299.9,994.5z"/>
		</g>
	</g>
	<g>
		<ellipse class="st15" cx="1350" cy="1876.4" rx="195.8" ry="195.8"/>
		<ellipse class="st16" cx="1350" cy="1876.4" rx="189.3" ry="189.3"/>
		<path class="st17" d="M1232,1749.6c-0.5-0.2-1-0.5-1.4-1c-1.3-1.5-1.2-3.7,0.3-5c50.5-45.2,121-58,184-33.3
			c10.1,3.9,19.8,8.8,28.9,14.4c1.7,1,2.1,3.2,1.2,4.9c-1.1,1.7-3.2,2.1-4.9,1.2c-8.8-5.4-18.1-10.1-27.7-13.9
			c-60.5-23.7-128.3-11.4-176.7,31.9C1234.6,1749.8,1233.2,1750,1232,1749.6z"/>
		
			<ellipse transform="matrix(0.7071 -0.7071 0.7071 0.7071 -934.4678 1507.3107)" class="st18" cx="1352.3" cy="1881.7" rx="160.2" ry="160.2"/>
		<g>
			<path class="st16" d="M1294.3,1986.9l6.3-16.2c-16.7-7.3-31.8-17.9-41.7-27.7c-3.5-3.5-3.8-9.2-0.9-13.1l10.1-13.5
				c3.7-5,10.8-5.5,15.2-1.2c9.9,9.6,22.8,19.1,38.6,25.3c16.3,6.3,30.7,5.6,35-5.8c4-10.3-3-20-23.3-34.9
				c-28.9-21.5-46.6-44.6-35.4-73.1c10.1-25.7,36.5-38,71.2-30.5l6.3-16.2c2.1-5.3,7.9-7.8,13.2-5.8l9.6,3.7
				c5.3,2.1,7.8,7.9,5.8,13.2l-5.7,14.5c15.4,6.7,25.8,13.9,33.6,20.6c4,3.4,4.6,9.5,1.5,13.7l-9.3,12.5c-3.6,4.8-10.4,5.6-14.9,1.5
				c-7.1-6.4-17.6-14.3-32.9-20.3c-19.3-7.5-28-1.8-30.8,5.5c-3.4,8.9,5.8,19.4,27.9,37c31.7,24.8,40.8,45.6,30.3,72.3
				c-9.6,24.6-36.5,39.5-74,31.2l-7.1,18.2c-2.1,5.3-7.9,7.8-13.2,5.8l-9.6-3.7C1294.8,1998,1292.3,1992.1,1294.3,1986.9z"/>
		</g>
	</g>
	<g>
		<ellipse class="st15" cx="1715.2" cy="2051.3" rx="171.3" ry="171.3"/>
		<ellipse class="st16" cx="1715.2" cy="2051.3" rx="165.7" ry="165.7"/>
		<path class="st17" d="M1618.5,1934.6c-0.4-0.2-0.8-0.5-1.2-0.9c-1.1-1.4-0.9-3.3,0.5-4.3c46.4-37,108.7-44.5,162.4-19.8
			c8.6,3.9,16.8,8.7,24.5,14.1c1.4,1,1.8,2.9,0.8,4.3c-1,1.4-2.9,1.8-4.3,0.8c-7.4-5.2-15.3-9.7-23.5-13.5
			c-51.7-23.7-111.5-16.5-156,19C1620.8,1934.9,1619.5,1935,1618.5,1934.6z"/>
		
			<ellipse transform="matrix(0.7071 -0.7071 0.7071 0.7071 -950.9715 1816.3036)" class="st18" cx="1717" cy="2056.1" rx="140.2" ry="140.2"/>
		<g>
			<path class="st16" d="M1661,2145.1l6.3-13.9c-14.2-7.2-26.9-17.2-35-26.3c-2.9-3.2-2.8-8.2-0.1-11.5l9.5-11.3
				c3.5-4.1,9.8-4.2,13.4-0.3c8.1,8.9,19,17.9,32.4,24c14,6.3,26.5,6.4,30.9-3.2c4-8.7-1.7-17.6-18.5-31.7
				c-24.1-20.2-38.5-41.4-27.2-65.7c10.1-22,33.8-31.3,63.7-23l6.3-13.9c2.1-4.5,7.3-6.4,11.8-4.4l8.1,3.7c4.5,2.1,6.4,7.3,4.4,11.8
				l-5.8,12.5c13.1,6.6,21.8,13.5,28.3,19.7c3.3,3.2,3.5,8.5,0.6,12l-8.7,10.4c-3.3,4-9.5,4.3-13.2,0.6c-5.9-6-14.6-13.4-27.7-19.3
				c-16.5-7.6-24.4-2.9-27.2,3.2c-3.5,7.5,4.1,17.3,22.5,33.8c26.5,23.3,33.3,41.9,22.8,64.7c-9.7,21-33.9,32.7-66.3,23.5l-7.1,15.5
				c-2.1,4.5-7.3,6.4-11.8,4.4l-8.1-3.7C1660.9,2154.8,1658.9,2149.5,1661,2145.1z"/>
		</g>
	</g>
	<rect x="1131.7" y="1972.2" class="st7" width="887.8" height="475.8"/>
	
		<linearGradient id="SVGID_5_" gradientUnits="userSpaceOnUse" x1="1508.1135" y1="409.4286" x2="2129.0105" y2="409.4286" gradientTransform="matrix(1 0 0 -1 0 2797.8899)">
		<stop  offset="0" style="stop-color:#09005D"/>
		<stop  offset="1" style="stop-color:#1A0F91"/>
	</linearGradient>
	<path class="st19" d="M2129,2271.9h-513.1c-22.7,0-41.2,19.3-41.2,43.2l0,0c0,23.8,18.5,43.2,41.2,43.2h-66.6
		c-22.7,0-41.2,19.3-41.2,43.2l0,0c0,23.8,18.5,43.2,41.2,43.2h11.5c-22.7,0-41.2,19.3-41.2,43.2c0,6.2,1.3,12,3.5,17.3H2129V2271.9
		z"/>
	
		<linearGradient id="SVGID_6_" gradientUnits="userSpaceOnUse" x1="1508.1134" y1="437.9354" x2="2019.3771" y2="437.9354" gradientTransform="matrix(1 0 0 -1 0 2797.8899)">
		<stop  offset="0" style="stop-color:#09005D"/>
		<stop  offset="1" style="stop-color:#1A0F91"/>
	</linearGradient>
	<path class="st20" d="M1574.7,2315L1574.7,2315c0,23.8,18.5,43.2,41.2,43.2h-66.6c-22.7,0-41.2,19.3-41.2,43.2l0,0
		c0,23.8,18.5,43.2,41.2,43.2h11.5c-5.9,0-11.5,1.3-16.6,3.6h475.1v-176.2h-403.6C1593.1,2271.9,1574.7,2291.2,1574.7,2315z"/>
	<path class="st7" d="M2134.3,2530.8h-529.9c-21.3,0-38.5-17.3-38.5-38.5l0,0c0-21.3,17.3-38.5,38.5-38.5h529.9
		c21.3,0,38.5,17.3,38.5,38.5l0,0C2172.7,2513.5,2155.5,2530.8,2134.3,2530.8z"/>
	<path class="st21" d="M2123.4,2453.7h-529.9c-21.3,0-38.5-17.3-38.5-38.5l0,0c0-21.3,17.3-38.5,38.5-38.5h529.9
		c21.3,0,38.5,17.3,38.5,38.5l0,0C2162,2436.4,2144.7,2453.7,2123.4,2453.7z"/>
	<path class="st7" d="M2185.6,2376.7h-529.9c-21.3,0-38.5-17.3-38.5-38.5l0,0c0-21.3,17.3-38.5,38.5-38.5h529.9
		c21.3,0,38.5,17.3,38.5,38.5l0,0C2224.1,2359.5,2206.9,2376.7,2185.6,2376.7z"/>
	<g>
		<path class="st22" d="M1858.6,735.8c0,0,50.5,2.2,56.4,2.2c6,0,23.1-17.9,23.1-17.9L1858.6,735.8z"/>
		<path class="st12" d="M2023.8,429.4c62.2,88.6,40.8,210.9-47.8,273.1s-210.9,40.8-273.1-47.8s-40.8-210.9,47.8-273.1
			S1961.6,340.7,2023.8,429.4z"/>
		<path class="st4" d="M1998,447.4c52.2,74.4,34.2,177-40.1,229.1c-74.4,52.2-177,34.2-229.1-40.1c-52.2-74.4-34.2-176.9,40.1-229.1
			C1843.3,355.1,1945.8,373,1998,447.4z"/>
		<g>
			<path class="st14" d="M1882.3,657.6l-7.1-26.6c-12.1,2.7-24.5,3.6-35,3.1c-8.8-0.5-15.7-7.7-15.8-16.5v-1.1
				c-0.1-9.7,8-17.6,17.7-16.9c9.9,0.7,20.8,0,31.6-2.9c15.9-4.3,25.1-13.4,22.1-24.5c-2.8-10.6-13.6-14.8-36.1-16.3
				c-32.6-2-56.7-10.4-64-37.5c-6.6-24.6,5.5-48.5,33.7-62.4l-7.1-26.6l27.3-7.4l6.6,24.6c10.3-2.2,18.9-3.2,26.5-3.2
				c9.2,0,16.6,7.3,16.7,16.5l0,0c0.1,9.5-7.6,17.2-17.1,16.9c-7.1-0.2-15.6,0.5-25.5,3.1c-18.2,4.9-21.9,14.4-19.8,22.2
				c2.5,9.2,13.9,12.4,39.9,14.9c36.4,2.7,53.9,14.4,60.7,39.5c6.7,24.8-5.2,50.8-35.7,65l7.7,28.5L1882.3,657.6z"/>
		</g>
		<path class="st23" d="M1915,738l20.9-18.7c0,0-9.9-11.7-5.8-14.1c6.6-3.7,18.1,10.5,17,14c-1,3.4-13.3,14.5-13.3,14.5L1915,738z"
			/>
		<g>
			<path class="st23" d="M2131.8,2178.6c0,0-4.3,53.6-0.8,71c1.9,9.3,12.3,28.5,7.5,37.3c-4.8,8.8-10.3,10.9-10.3,10.9l-123.7,2
				c-6.7,0.1-2.2-4.2,3.1-8.1c8.9-6.4,16.1-10.6,44.5-24.2c1.9-0.9,8.6-5.1,11-6.5c6.2-3.7,12.4-9.6,17.7-15.3
				c8.9-9.8,9.7-56.9,9.7-56.9L2131.8,2178.6z"/>
			<path class="st24" d="M2035.1,1466.8c0,0-53.2-26.3-43,30.8c10.3,57,88.2,698,88.2,698l72.9,4c0,0,9.3-213.7,7.3-244.5
				c-2.1-30.7-14.2-78.2-14.2-78.2l-6.2-189.6l-68.8-234.1L2035.1,1466.8z"/>
			<path class="st24" d="M2063.2,2261c32.7,8.3,56.9,2.6,70.4-2.7c3.5,9.8,8.1,22,5.7,29c-3,8.6-6.9,12.4-10.7,12.5
				c-29.9,0.8-109.8-0.1-132.6,0.2c-3.2,0-5-3.6-2.9-6.1C1998.8,2287.3,2060.8,2262.5,2063.2,2261z"/>
			<path class="st23" d="M1992.1,1081.5c0,0-44.9-86.5-51.9-118.2c-6.9-31.7-31.1-191.6-29.1-202c2.1-10.3,40.2-35,35.5-43.8
				c-4.7-8.8-41.1-8.8-49.4-8c-8.3,0.8-25.1,5.6-32.2,11.5c-7.1,6,8.1,197.5,12.6,238.8c4.6,41.3,60.4,168.3,60.4,168.3
				L1992.1,1081.5z"/>
			<path class="st23" d="M2342.4,1755.6c0,0,37.1-38.9,45.3-54.6c4.4-8.4,8.4-29.9,17.7-33.7c9.3-3.8,14.8-2.1,14.8-2.1l97.3,76.4
				c5.3,4.2-0.9,4.7-7.5,4.3c-10.9-0.6-19.2-1.9-49.8-9.3c-2-0.5-9.9-1.5-12.7-1.9c-7.1-1-15.6-0.4-23.4,0.8
				c-13,2-43.3,38.1-43.3,38.1L2342.4,1755.6z"/>
			<path class="st24" d="M2447.6,1734.9c-20.2-27-42.6-37.9-56.4-42.3c3.4-9.8,7.1-22.5,13.5-26.5c7.7-4.8,13.1-3.8,16.1-1.5
				c23.7,18.3,85.7,68,103.6,82.2c2.5,2,1.6,6-1.6,6.5C2514.1,1755,2450.3,1735.3,2447.6,1734.9z"/>
			<path class="st24" d="M2343.3,1055.2c-23-48.4-74.2-75.1-123.8-62.2c-17.8-24-45.3-40.9-73.8-44.9c-56.4-8-129.2,19.3-121.7,78.3
				c-17.9,41.2-13.5,97.9,22.2,125.7c-6.5,54.2,47.7,102.2,112,95.7c25.9,35.7,70.8,56.6,112.9,48.4c10.1-2,25.4-5.7,28-5.2
				c-3.3-0.4,73.3,49.8,126.1-39.5C2478.9,1160.5,2425.9,1058.7,2343.3,1055.2z"/>
			<path class="st6" d="M2013.7,1487.4c0,0,119.2-53,121.2-47c14.9,48.1,61.5,32.6,89,117.4c11.5,35.5,23.4,271.8,23.4,271.8
				s47.1-39.1,114.2-107.2c5.2-5.3,55.6,42.8,55.6,42.8c-133.4,180.2-190.9,189.6-213.1,179.5c-46.5-21.1-144.5-315.6-144.3-315.6
				C2048,1606.2,2013.7,1487.4,2013.7,1487.4z"/>
			<path class="st23" d="M2211.4,1154.7c0,0,172.3-0.2,209.2-2.3c33.4-2,165.9,1.5,171,0.9c5.2-0.6,39.4-58.6,45.1-52.3
				s-19,28.8-11.4,34.6c7.6,5.9,89.8-7.2,88.7-1.2c-2.1,11.3-50,10-50,15.4c0,5.5,50.2-3.1,53.6,6.1c3.4,9.1-48.2,3.7-50.3,7.8
				s47.9,11.5,42.8,20c-2.7,4.6-44.2-7.7-44-1.4c0.2,6.2,30.5,20.6,26.7,25.6c-3.7,5-23.7-15.3-41.3-15.6
				c-17.6-0.3-30.2-9.4-58.2-1.8c-13.9,3.8-119.5,16.7-208.8,24.3c-91.6,7.8-166.5,10.3-166.5,10.3L2211.4,1154.7z"/>
			<path class="st4" d="M1955.8,1276.6c-2.2-27.6,3.1-49,4.4-58.2c-8.4-28.7-26.2-90.1-32.6-102.1c0,0,30-57.7,60.7-57.3
				c0,0,31.3,70.7,55.6,83.4c0.4-0.1,8.6,3.7,12.2,3.6c23.4-0.2,105.2-2.6,120.6-2.9l-8.6,116.1c-59.3,116.3-43.2,177.2-20.7,199.8
				c10.6,10.6-148,53.7-155.3,38.7C1983.5,1479.9,1960.4,1332.5,1955.8,1276.6z"/>
			<path class="st4" d="M2135.2,1147.4c15.1-7.2,124.4-3.6,124.4-3.6s15.2,76.1,2.9,94.3c0,0-97.6,14.5-94.9,22.6L2135.2,1147.4z"/>
			<path class="st23" d="M2106.6,1098.6c0,0-2,41.5,0,58.8c2,17.3-17.8,57.8-54.4,58.5c-36.6,0.7-5.4-38.9-2.1-55.8
				c3.2-17,7-83.6,7-83.6L2106.6,1098.6z"/>
			<path class="st22" d="M2057.1,1076.4c0,0-0.9,15.4-2.1,33.4c11.5,13.8,29.3,20.8,50.9,12.4c0.2-12.9,0.7-23.6,0.7-23.6
				L2057.1,1076.4z"/>
			<path class="st23" d="M2109.6,974.9c0,0,20.7,6.2,32.4,26.9c11.6,20.7,16.5,79.8-28.2,104.1c-44.7,24.3-75.4-16.6-73.3-54.2
				C2042.4,1014.1,2053.9,964.4,2109.6,974.9z"/>
			<path class="st23" d="M2031.4,1039.3c3,9.4,9.9,15.4,15.3,13.7c5.5-1.8,7.4-10.7,4.4-20.1c-3-9.4-9.9-15.4-15.3-13.7
				C2030.3,1021,2028.4,1030,2031.4,1039.3z"/>
			<path class="st24" d="M2103.3,973.2c0,0,22.7,62.1,45.9,69.1c23.2,7,20.8,37.3,20.8,37.3s4.3-70-16.7-87.6
				C2132.3,974.5,2103.3,973.2,2103.3,973.2z"/>
			<path class="st23" d="M2139,1054.3c-3.8,9.6-1.6,19.4,4.9,22s14.7-3.1,18.5-12.7c3.8-9.6,1.6-19.4-4.9-22
				S2142.8,1044.7,2139,1054.3z"/>
		</g>
		<g>
			
				<ellipse transform="matrix(0.7071 -0.7071 0.7071 0.7071 162.2168 1471.3802)" class="st15" cx="1857.2" cy="539.9" rx="201.1" ry="201.1"/>
			<ellipse class="st16" cx="1857.2" cy="539.9" rx="194.4" ry="194.4"/>
			<path class="st17" d="M1679.9,525.6c-0.5,0.2-1.1,0.3-1.7,0.2c-2-0.2-3.4-2-3.2-4c6.9-69.2,51.5-127.8,116.4-152.8
				c10.3-4,21.1-7,31.9-9.1c2-0.4,3.9,0.9,4.2,2.9c0.4,2-0.9,3.9-2.9,4.2c-10.3,2-20.7,4.9-30.7,8.8
				c-62.3,24-105.1,80.2-111.8,146.7C1682.2,524,1681.2,525.1,1679.9,525.6z"/>
			<ellipse class="st18" cx="1862.7" cy="542.4" rx="164.5" ry="164.5"/>
			<g>
				<path class="st16" d="M1891.7,662.3l-6.4-16.7c-17.7,6.1-36.5,8.6-50.8,7.9c-5.1-0.2-9.2-4.3-9.8-9.4L1823,627
					c-0.7-6.3,4.4-11.6,10.7-11.4c14.1,0.4,30.7-1.4,46.8-7.6c16.8-6.4,27-17,22.6-28.6c-4-10.5-16.1-13.1-41.9-10.3
					c-36.8,3.7-66.2-1.6-77.5-30.8c-10.2-26.5,1.4-54.1,32.8-72.3l-6.4-16.7c-2.1-5.4,0.6-11.4,6-13.5l9.8-3.8
					c5.4-2.1,11.4,0.6,13.5,6l5.8,15c16.4-5.6,29.2-7.3,39.7-7.6c5.4-0.2,10,4,10.5,9.4l1.7,15.9c0.6,6.2-4.1,11.4-10.3,11.5
					c-9.9,0.1-23.2,1.4-39,7.4c-19.9,7.7-22.4,18.1-19.5,25.5c3.5,9.1,17.9,10.7,46.8,8.7c41.2-3.1,62.5,6.2,73.1,33.9
					c9.8,25.3-0.3,55.3-34.5,75l7.2,18.6c2.1,5.4-0.6,11.4-6,13.5l-9.9,3.8C1899.8,670.3,1893.7,667.7,1891.7,662.3z"/>
			</g>
		</g>
	</g>
	<g>
		<ellipse class="st15" cx="1549.5" cy="1426.9" rx="236.9" ry="236.9"/>
		<ellipse class="st16" cx="1549.5" cy="1426.9" rx="229" ry="229"/>
		<path class="st17" d="M1340.7,1409.2c-0.6,0.2-1.3,0.3-2,0.3c-2.3-0.3-4.1-2.3-3.8-4.7c8.5-81.5,61.3-150.3,137.8-179.4
			c12.2-4.7,24.9-8.2,37.6-10.5c2.3-0.4,4.6,1.1,5,3.4s-1.1,4.6-3.4,5c-12.2,2.2-24.4,5.7-36.1,10.2c-73.5,28-124.3,94-132.4,172.4
			C1343.2,1407.4,1342.2,1408.7,1340.7,1409.2z"/>
		<ellipse class="st18" cx="1555.9" cy="1429.8" rx="193.9" ry="193.9"/>
		<g>
			<path class="st16" d="M1589.4,1571.3l-7.5-19.7c-20.9,7-43.1,9.9-59.8,9.1c-6.1-0.3-10.8-5.1-11.4-11l-2-20.3
				c-0.7-7.4,5.3-13.7,12.7-13.5c16.6,0.6,36.1-1.5,55.2-8.7c19.8-7.5,32-19.9,26.7-33.6c-4.7-12.4-18.9-15.4-49.3-12.4
				c-43.3,4.2-78-2.1-91.2-36.7c-11.9-31.2,1.9-63.7,39.1-85.1l-7.5-19.7c-2.4-6.3,0.8-13.5,7.1-15.8l11.6-4.4
				c6.3-2.4,13.5,0.8,15.8,7.1l6.7,17.7c19.3-6.4,34.4-8.5,46.9-8.8c6.3-0.2,11.8,4.7,12.4,11l1.9,18.7c0.7,7.2-4.9,13.5-12.2,13.5
				c-11.6,0-27.4,1.5-46,8.6c-23.5,9-26.5,21.2-23.1,30c4.1,10.7,21,12.8,55.1,10.5c48.6-3.5,73.6,7.7,86,40.2
				c11.3,29.9-0.6,65.1-40.9,88.2l8.4,22.1c2.4,6.3-0.8,13.5-7.1,15.8l-11.6,4.4C1599,1580.9,1591.9,1577.6,1589.4,1571.3z"/>
		</g>
	</g>
	<g>
		<ellipse class="st15" cx="764.7" cy="627.3" rx="201.1" ry="201.1"/>
		<ellipse class="st16" cx="764.7" cy="627.3" rx="194.4" ry="194.4"/>
		<path class="st17" d="M587.4,613.1c-0.5,0.2-1.1,0.3-1.7,0.2c-2-0.2-3.4-2-3.2-4c6.9-69.2,51.5-127.8,116.4-152.8
			c10.3-4,21.1-7,31.9-9.1c2-0.4,3.9,0.9,4.2,2.9c0.4,2-0.9,3.9-2.9,4.2c-10.3,2-20.7,4.9-30.7,8.8c-62.3,24-105.1,80.2-111.8,146.7
			C589.6,611.4,588.7,612.6,587.4,613.1z"/>
		<ellipse class="st18" cx="770.2" cy="629.8" rx="164.5" ry="164.5"/>
		<g>
			<path class="st16" d="M799.2,749.8l-6.4-16.7c-17.7,6.1-36.5,8.6-50.8,7.9c-5.1-0.2-9.2-4.3-9.8-9.4l-1.8-17.2
				c-0.7-6.3,4.4-11.6,10.7-11.4c14.1,0.4,30.7-1.4,46.8-7.6c16.8-6.4,27-17,22.6-28.6c-4-10.5-16.1-13.1-41.9-10.3
				c-36.8,3.7-66.2-1.6-77.5-30.8c-10.2-26.5,1.4-54.1,32.8-72.3l-6.4-16.7c-2.1-5.4,0.6-11.4,6-13.5l9.8-3.8
				c5.4-2.1,11.4,0.6,13.5,6l5.8,15c16.4-5.6,29.2-7.3,39.7-7.6c5.4-0.2,10,4,10.5,9.4l1.7,15.9c0.6,6.2-4.1,11.4-10.3,11.5
				c-9.9,0.1-23.2,1.4-39,7.4c-19.9,7.7-22.4,18.1-19.5,25.5c3.5,9.1,17.9,10.7,46.8,8.7c41.2-3.1,62.5,6.2,73.1,33.9
				c9.8,25.3-0.3,55.3-34.5,75l7.2,18.6c2.1,5.4-0.6,11.4-6,13.5l-9.9,3.8C807.3,757.8,801.2,755.1,799.2,749.8z"/>
		</g>
	</g>
</g>
</svg>
