<?xml version="1.0" encoding="utf-8"?>
<!-- Generator: Adobe Illustrator 23.0.2, SVG Export Plug-In . SVG Version: 6.00 Build 0)  -->
<svg version="1.1" id="Capa_1" xmlns="http://www.w3.org/2000/svg" xmlns:xlink="http://www.w3.org/1999/xlink" x="0px" y="0px"
	 viewBox="0 0 2750.8 2800" style="enable-background:new 0 0 2750.8 2800;" xml:space="preserve">
<style type="text/css">
	.st0{fill:url(#SVGID_1_);}
	.st1{fill:url(#SVGID_2_);}
	.st2{opacity:0.5;fill:#FFFFFF;enable-background:new    ;}
	.st3{opacity:0.78;fill:#FFFFFF;enable-background:new    ;}
	.st4{fill:url(#SVGID_3_);}
	.st5{fill:url(#SVGID_4_);}
	.st6{fill:url(#SVGID_5_);}
	.st7{fill:url(#SVGID_6_);}
	.st8{fill:url(#SVGID_7_);}
	.st9{fill:url(#SVGID_8_);}
	.st10{fill:url(#SVGID_9_);}
	.st11{fill:url(#SVGID_10_);}
	.st12{fill:url(#SVGID_11_);}
	.st13{fill:url(#SVGID_12_);}
	.st14{opacity:0.3;fill:#A9C2FF;enable-background:new    ;}
	.st15{fill:#FFC459;}
	.st16{fill:#FFAA00;}
	.st17{fill:#FF9F00;}
	.st18{fill:#0B3563;}
	.st19{fill:#97C0F8;}
	.st20{fill:url(#SVGID_13_);}
	.st21{fill:#BDD0FB;}
	.st22{opacity:0.45;fill:#FFFFFF;enable-background:new    ;}
	.st23{fill:#91B3FA;}
	.st24{fill:url(#SVGID_14_);}
	.st25{fill:#FFFFFF;}
	.st26{fill:url(#SVGID_15_);}
	.st27{fill:#00114C;}
	.st28{fill:#7D97F4;}
	.st29{fill:#000624;}
	.st30{opacity:0.58;fill:#BAC6E4;enable-background:new    ;}
	.st31{opacity:0.78;fill:#BAC6E4;enable-background:new    ;}
	.st32{fill:#FB9390;}
	.st33{fill:#0B0754;}
	.st34{fill:#DDE8FE;}
	.st35{fill:#4951EC;}
	.st36{fill:#F7A491;}
	.st37{fill:#EF7F7F;}
	.st38{fill:url(#SVGID_16_);}
	.st39{fill:url(#SVGID_17_);}
	.st40{fill:url(#SVGID_18_);}
	.st41{fill:url(#SVGID_19_);}
	.st42{fill:url(#SVGID_20_);}
	.st43{opacity:0.63;fill:url(#SVGID_21_);enable-background:new    ;}
	.st44{opacity:0.63;fill:url(#SVGID_22_);enable-background:new    ;}
	.st45{opacity:0.63;fill:url(#SVGID_23_);enable-background:new    ;}
	.st46{fill:url(#SVGID_24_);}
	.st47{opacity:0.63;fill:url(#SVGID_25_);enable-background:new    ;}
	.st48{opacity:0.63;fill:url(#SVGID_26_);enable-background:new    ;}
	.st49{opacity:0.63;fill:url(#SVGID_27_);enable-background:new    ;}
	.st50{opacity:0.63;fill:url(#SVGID_28_);enable-background:new    ;}
	.st51{opacity:0.63;fill:url(#SVGID_29_);enable-background:new    ;}
	.st52{opacity:0.63;fill:url(#SVGID_30_);enable-background:new    ;}
	.st53{fill:url(#SVGID_31_);}
	.st54{opacity:0.7;}
	.st55{opacity:0.72;}
	.st56{clip-path:url(#SVGID_33_);}
	.st57{font-family:'MyriadPro-Regular';}
	.st58{font-size:205.9347px;}
</style>
<g id="Background">
</g>
<g>
	<g>
		
			<linearGradient id="SVGID_1_" gradientUnits="userSpaceOnUse" x1="4036.1919" y1="2254.7964" x2="3781.9392" y2="1816.0848" gradientTransform="matrix(1 0 0 -1 0 2797.7961)">
			<stop  offset="0" style="stop-color:#FF928E"/>
			<stop  offset="1" style="stop-color:#FE7062"/>
		</linearGradient>
		<circle class="st0" cx="3319.1" cy="1780.3" r="102.1"/>
		
			<linearGradient id="SVGID_2_" gradientUnits="userSpaceOnUse" x1="4036.1929" y1="2254.7974" x2="3781.9395" y2="1816.0851" gradientTransform="matrix(1 0 0 -1 0 2797.7961)">
			<stop  offset="0" style="stop-color:#FF928E"/>
			<stop  offset="1" style="stop-color:#FE7062"/>
		</linearGradient>
		<circle class="st1" cx="3319.1" cy="1780.3" r="98.7"/>
		<path class="st2" d="M3237.7,1743.2c-0.6,0-1.2-0.1-1.7-0.4c-1.9-1-2.6-3.3-1.7-5.2c16.3-32.2,48.8-52.2,84.8-52.2
			c5.8,0,11.5,0.5,17.1,1.5c2.1,0.4,3.5,2.4,3.1,4.5s-2.4,3.5-4.5,3.1c-5.2-0.9-10.5-1.4-15.8-1.4c-33.2,0-63,18.4-78,48
			C3240.4,1742.4,3239.1,1743.2,3237.7,1743.2z"/>
		
			<ellipse transform="matrix(0.7071 -0.7071 0.7071 0.7071 -287.6346 2870.5298)" class="st3" cx="3321.2" cy="1782.5" rx="83.6" ry="83.6"/>
		<g>
			
				<linearGradient id="SVGID_3_" gradientUnits="userSpaceOnUse" x1="4040.5093" y1="2252.2925" x2="3786.2563" y2="1813.5803" gradientTransform="matrix(1 0 0 -1 0 2797.7961)">
				<stop  offset="0" style="stop-color:#FF928E"/>
				<stop  offset="1" style="stop-color:#FE7062"/>
			</linearGradient>
			<path class="st4" d="M3313,1844.6v-9.1c-9.5-0.4-18.8-2.6-25.5-5.5c-2.4-1-3.6-3.7-2.9-6.2l2.3-8.5c0.8-3.1,4.2-4.7,7.2-3.5
				c6.6,2.8,14.8,5,23.5,5c9.1,0,15.9-3.1,15.9-9.4c0-5.7-5.3-9.1-17.9-12.5c-18.1-5-31.1-12.8-31.1-28.8
				c0-14.4,10.5-25.4,28.8-28.3v-9.1c0-2.9,2.4-5.3,5.3-5.3h5.3c2.9,0,5.3,2.4,5.3,5.3v8.2c8.8,0.4,15.2,1.9,20.2,3.6
				c2.6,0.9,4,3.7,3.3,6.4l-2.1,7.8c-0.8,3-4,4.7-7,3.6c-4.7-1.8-11.3-3.6-19.8-3.6c-10.8,0-13.9,4.5-13.9,8.5
				c0,4.9,6.5,8.4,20.6,12.7c20.1,6,28.5,14.4,28.5,29.4c0,13.8-10.2,26.1-30,29.2v10.2c0,2.9-2.4,5.3-5.3,5.3h-5.3
				C3315.4,1849.9,3313,1847.5,3313,1844.6z"/>
		</g>
	</g>
	<g>
		
			<linearGradient id="SVGID_4_" gradientUnits="userSpaceOnUse" x1="4201.2344" y1="2159.1484" x2="3946.9807" y2="1720.4349" gradientTransform="matrix(1 0 0 -1 0 2797.7961)">
			<stop  offset="0" style="stop-color:#FF928E"/>
			<stop  offset="1" style="stop-color:#FE7062"/>
		</linearGradient>
		<circle class="st5" cx="3609.7" cy="1659.3" r="177.8"/>
		
			<linearGradient id="SVGID_5_" gradientUnits="userSpaceOnUse" x1="4201.2349" y1="2159.1482" x2="3946.9822" y2="1720.4374" gradientTransform="matrix(1 0 0 -1 0 2797.7961)">
			<stop  offset="0" style="stop-color:#FF928E"/>
			<stop  offset="1" style="stop-color:#FE7062"/>
		</linearGradient>
		<circle class="st6" cx="3609.7" cy="1659.3" r="171.8"/>
		<path class="st2" d="M3468,1591.7c-0.6,0-1.2-0.1-1.7-0.4c-1.9-1-2.6-3.3-1.7-5.2c27.8-55.1,83.4-89.4,145.1-89.4
			c9.8,0,19.7,0.9,29.3,2.6c2.1,0.4,3.5,2.4,3.1,4.5s-2.4,3.5-4.5,3.1c-9.2-1.7-18.5-2.5-27.9-2.5c-58.8,0-111.8,32.6-138.3,85.1
			C3470.8,1590.9,3469.4,1591.7,3468,1591.7z"/>
		
			<ellipse transform="matrix(0.7071 -0.7071 0.7071 0.7071 -117.5075 3042.1987)" class="st3" cx="3613.5" cy="1662.9" rx="145.4" ry="145.4"/>
		<g>
			
				<linearGradient id="SVGID_6_" gradientUnits="userSpaceOnUse" x1="4208.7578" y1="2154.7876" x2="3954.5051" y2="1716.0754" gradientTransform="matrix(1 0 0 -1 0 2797.7961)">
				<stop  offset="0" style="stop-color:#FF928E"/>
				<stop  offset="1" style="stop-color:#FE7062"/>
			</linearGradient>
			<path class="st7" d="M3599.2,1771.1v-15.8c-16.5-0.7-32.8-4.6-44.4-9.6c-4.1-1.8-6.2-6.5-5.1-10.8l4-14.7c1.5-5.4,7.4-8.2,12.5-6
				c11.5,4.8,25.7,8.6,41,8.6c15.9,0,27.7-5.4,27.7-16.4c0-10-9.2-15.9-31.2-21.8c-31.5-8.6-54.1-22.4-54.1-50.1
				c0-25,18.3-44.2,50.1-49.3v-15.8c0-5.1,4.1-9.2,9.2-9.2h9.3c5.1,0,9.2,4.1,9.2,9.2v14.2c15.3,0.6,26.4,3.2,35.2,6.3
				c4.5,1.6,7,6.5,5.7,11.1l-3.7,13.6c-1.4,5.3-7,8.1-12.1,6.2c-8.1-3.1-19.6-6.3-34.5-6.3c-18.9,0-24.2,7.8-24.2,14.8
				c0,8.6,11.3,14.5,35.8,22.1c35,10.5,49.6,25,49.6,51.2c0,24-17.8,45.5-52.2,50.9v17.7c0,5.1-4.1,9.2-9.2,9.2h-9.3
				C3603.3,1780.3,3599.2,1776.2,3599.2,1771.1z"/>
		</g>
	</g>
	<g>
		
			<linearGradient id="SVGID_7_" gradientUnits="userSpaceOnUse" x1="4465.2417" y1="2006.1454" x2="4210.9888" y2="1567.4338" gradientTransform="matrix(1 0 0 -1 0 2797.7961)">
			<stop  offset="0" style="stop-color:#FF928E"/>
			<stop  offset="1" style="stop-color:#FE7062"/>
		</linearGradient>
		<circle class="st8" cx="3732.3" cy="2056.3" r="182.9"/>
		
			<linearGradient id="SVGID_8_" gradientUnits="userSpaceOnUse" x1="4465.2417" y1="2006.1444" x2="4210.9883" y2="1567.4321" gradientTransform="matrix(1 0 0 -1 0 2797.7961)">
			<stop  offset="0" style="stop-color:#FF928E"/>
			<stop  offset="1" style="stop-color:#FE7062"/>
		</linearGradient>
		<circle class="st9" cx="3732.3" cy="2056.3" r="176.8"/>
		<path class="st2" d="M3586.5,1986.7c-0.6,0-1.2-0.1-1.7-0.4c-1.9-1-2.6-3.3-1.7-5.2c28.6-56.7,85.8-91.9,149.2-91.9
			c10.1,0,20.3,0.9,30.1,2.7c2.1,0.4,3.5,2.4,3.1,4.5s-2.4,3.5-4.5,3.1c-9.4-1.7-19.1-2.6-28.8-2.6c-60.5,0-115.1,33.6-142.4,87.7
			C3589.3,1985.9,3587.9,1986.7,3586.5,1986.7z"/>
		<ellipse class="st3" cx="3736.2" cy="2060.1" rx="149.7" ry="149.7"/>
		<g>
			
				<linearGradient id="SVGID_9_" gradientUnits="userSpaceOnUse" x1="4473.0391" y1="2001.6261" x2="4218.7856" y2="1562.9136" gradientTransform="matrix(1 0 0 -1 0 2797.7961)">
				<stop  offset="0" style="stop-color:#FF928E"/>
				<stop  offset="1" style="stop-color:#FE7062"/>
			</linearGradient>
			<path class="st10" d="M3721.5,2171.4v-16.3c-17-0.7-33.8-4.7-45.7-9.9c-4.3-1.9-6.4-6.6-5.2-11.1l4.1-15.2
				c1.5-5.6,7.6-8.4,12.9-6.2c11.8,5,26.4,8.9,42.2,8.9c16.3,0,28.5-5.5,28.5-16.9c0-10.3-9.4-16.3-32.1-22.4
				c-32.4-8.9-55.7-23-55.7-51.5c0-25.8,18.8-45.4,51.5-50.7v-16.3c0-5.2,4.2-9.5,9.5-9.5h9.6c5.2,0,9.5,4.2,9.5,9.5v14.6
				c15.7,0.6,27.1,3.3,36.2,6.5c4.6,1.6,7.2,6.6,5.9,11.4l-3.8,14c-1.5,5.4-7.2,8.4-12.5,6.4c-8.4-3.2-20.2-6.4-35.5-6.4
				c-19.4,0-24.9,8-24.9,15.2c0,8.9,11.6,15,36.9,22.7c36,10.8,51,25.8,51,52.7c0,24.7-18.3,46.8-53.8,52.4v18.2
				c0,5.2-4.2,9.5-9.5,9.5h-9.6C3725.7,2180.9,3721.5,2176.6,3721.5,2171.4z"/>
		</g>
	</g>
	<g>
		
			<linearGradient id="SVGID_10_" gradientUnits="userSpaceOnUse" x1="4532.8198" y1="1966.9781" x2="4278.5669" y2="1528.2664" gradientTransform="matrix(1 0 0 -1 0 2797.7961)">
			<stop  offset="0" style="stop-color:#FF928E"/>
			<stop  offset="1" style="stop-color:#FE7062"/>
		</linearGradient>
		<circle class="st11" cx="3967" cy="1807.1" r="134"/>
		
			<linearGradient id="SVGID_11_" gradientUnits="userSpaceOnUse" x1="4532.8203" y1="1966.9791" x2="4278.5674" y2="1528.267" gradientTransform="matrix(1 0 0 -1 0 2797.7961)">
			<stop  offset="0" style="stop-color:#FF928E"/>
			<stop  offset="1" style="stop-color:#FE7062"/>
		</linearGradient>
		<circle class="st12" cx="3967" cy="1807.1" r="129.6"/>
		<path class="st2" d="M3860.1,1757.1c-0.6,0-1.2-0.1-1.7-0.4c-1.9-1-2.6-3.3-1.7-5.2c21.1-41.9,63.4-67.9,110.3-67.9
			c7.5,0,15,0.7,22.3,2c2.1,0.4,3.5,2.4,3.1,4.5s-2.4,3.5-4.5,3.1c-6.8-1.2-13.9-1.9-20.9-1.9c-44,0-83.6,24.4-103.4,63.7
			C3862.9,1756.4,3861.5,1757.1,3860.1,1757.1z"/>
		
			<ellipse transform="matrix(0.9975 -7.094603e-02 7.094603e-02 0.9975 -118.3789 286.1957)" class="st3" cx="3969.7" cy="1809.6" rx="109.7" ry="109.7"/>
		<g>
			
				<linearGradient id="SVGID_12_" gradientUnits="userSpaceOnUse" x1="4538.3359" y1="1963.7831" x2="4284.083" y2="1525.0708" gradientTransform="matrix(1 0 0 -1 0 2797.7961)">
				<stop  offset="0" style="stop-color:#FF928E"/>
				<stop  offset="1" style="stop-color:#FE7062"/>
			</linearGradient>
			<path class="st13" d="M3959,1891.5v-11.9c-12.4-0.5-24.7-3.4-33.5-7.3c-3.1-1.4-4.7-4.9-3.8-8.2l3-11.1c1.1-4.1,5.5-6.2,9.4-4.6
				c8.7,3.6,19.4,6.5,30.9,6.5c12,0,20.9-4.1,20.9-12.4c0-7.5-6.9-12-23.6-16.4c-23.8-6.5-40.8-16.9-40.8-37.8
				c0-18.9,13.8-33.3,37.8-37.2v-11.9c0-3.8,3.1-7,7-7h7c3.8,0,7,3.1,7,7v10.7c11.5,0.5,19.9,2.4,26.5,4.8c3.4,1.2,5.3,4.9,4.3,8.4
				l-2.8,10.3c-1.1,4-5.3,6.1-9.2,4.7c-6.1-2.3-14.8-4.7-26-4.7c-14.2,0-18.3,5.9-18.3,11.2c0,6.5,8.5,11,27,16.6
				c26.4,7.9,37.4,18.9,37.4,38.6c0,18.1-13.4,34.3-39.4,38.4v13.4c0,3.8-3.1,7-7,7h-7C3962.1,1898.4,3959,1895.3,3959,1891.5z"/>
		</g>
	</g>
</g>
<g>
	<path class="st14" d="M4287.1,2297c-39.2-92.5-197.5-40.3-197.5-40.3s-87.2,183.3-118.8,191.6c-31.5,8.4,44-171.2,44-171.2
		c-63,2.5-210.9,100.2-210.9,100.2s36.9,194.8,4.2,195.2c-32.6,0.4-23.8-174.2-23.8-174.2c-57.7,26.2-104.2,104-104.2,104
		c-54.5,123.7,107.3,187.2,107.3,187.2s11.3,67.8-20.1,151.6l0,0c0,0-7.5,15.7-13.8,41.5l16.4-2.2c0.7-4.6,1.6-9,2.7-13.3v-0.1
		c0-0.1,0-0.1,0-0.2c0.8-2.7,1.9-6.5,3.3-11.2l0,0l0,0c3.7-10.5,6.1-18.2,7.5-23.7c0,0,0,0,0-0.1c10.8-32.8,26.9-75.8,40.2-86.2
		c0,0-2.2-2.3-4.5-7c1.4,2.2,3,4.6,4.5,7c36.3,56.2,178,47,253.9,20.3c76-26.7,38.9-44.1-8.1-74.1c-47-30-133.9-8.5-161.9-18.9
		s8.2-29.7,60.9-32.8c52.7-3.1,85.8,45.4,171.1,41.9c85.3-3.5,127.8-170.4,127.8-170.4c-55.7,26-164.3,8.2-171-11.3
		c-6.7-19.5,147.9-38.6,171.1-47.9C4290.8,2443.3,4326.3,2389.5,4287.1,2297z"/>
	<g>
		<path class="st15" d="M3272.9,3133.9v42.9c0,3.4,1.2,6.6,3.4,9.2c2.2,2.8,5.5,5,9.2,6.2c1.2,0.4,2.4,0.7,3.6,0.9
			c1.1,0.2,2.3,0.3,3.5,0.3h814.3c10.5,0,19.1-7,19.7-15.7c0-0.3,0-0.6,0-0.9v-42.9c0-0.3,0-0.6,0-0.8c-0.5-8.7-9.2-15.7-19.7-15.7
			h-814.3c-1.2,0-2.3,0.1-3.5,0.3s-2.5,0.5-3.6,0.9c-3.8,1.2-7,3.4-9.2,6.2C3274.1,3127.3,3272.9,3130.5,3272.9,3133.9z"/>
		<path class="st16" d="M3672.8,3193.4H4109c9.4,0,17.1-7,17.6-15.7c0-0.3,0-0.6,0-0.9v-42.9c0-0.3,0-0.6,0-0.8
			c-0.5-8.7-8.2-15.7-17.6-15.7h-382.7C3720.2,3139.8,3706,3170.7,3672.8,3193.4z"/>
		<g>
			<rect x="3372" y="3117.3" class="st17" width="9.3" height="76"/>
			<rect x="3403.3" y="3117.3" class="st17" width="9.3" height="76"/>
			<rect x="3440.9" y="3117.3" class="st17" width="9.3" height="76"/>
			<rect x="3498.4" y="3117.3" class="st17" width="9.3" height="76"/>
			<rect x="3559.3" y="3117.3" class="st17" width="9.3" height="76"/>
			<rect x="3652.7" y="3117.3" class="st17" width="9.3" height="76"/>
			<rect x="3740.1" y="3117.3" class="st17" width="9.3" height="76"/>
			<rect x="3818.1" y="3117.3" class="st17" width="9.3" height="76"/>
			<rect x="3342.1" y="3117.3" class="st17" width="9.3" height="76"/>
			<rect x="3322.4" y="3117.3" class="st17" width="9.3" height="76"/>
			<rect x="3303.5" y="3117.3" class="st17" width="9.3" height="76"/>
			<path class="st17" d="M3289.1,3117.6v75.5c1.1,0.2,2.3,0.3,3.5,0.3h5.8v-76h-5.8C3291.4,3117.4,3290.3,3117.5,3289.1,3117.6z"/>
			<path class="st17" d="M3276.3,3124.7v61.4c2.2,2.8,5.5,5,9.2,6.2v-73.8C3281.7,3119.7,3278.5,3121.9,3276.3,3124.7z"/>
		</g>
		<path class="st15" d="M3360,3057.9v42.9c0,3.4,1.2,6.6,3.4,9.2c2.2,2.8,5.5,5,9.2,6.2c1.2,0.4,2.4,0.7,3.6,0.8
			c1.1,0.2,2.3,0.3,3.5,0.3H4194c10.5,0,19.1-7,19.7-15.7c0-0.3,0-0.6,0-0.9v-42.9c0-0.3,0-0.6,0-0.9c-0.5-8.7-9.2-15.7-19.7-15.7
			h-814.3c-0.5,0-1,0-1.6,0.1c-0.2,0-0.4,0-0.7,0.1c-0.2,0-0.5,0-0.7,0.1c-0.2,0-0.3,0-0.5,0.1c-1.2,0.2-2.4,0.5-3.6,0.8
			c-0.2,0.1-0.3,0.1-0.5,0.2c-0.2,0.1-0.3,0.1-0.5,0.2c-0.3,0.1-0.7,0.3-1,0.4c-0.2,0.1-0.4,0.2-0.6,0.3c-0.2,0.1-0.3,0.2-0.5,0.2
			c-0.3,0.2-0.6,0.3-0.9,0.5c-0.3,0.2-0.7,0.4-1,0.6c-0.3,0.2-0.5,0.3-0.8,0.5l0,0c-0.2,0.1-0.3,0.2-0.5,0.4c-0.5,0.4-1,0.8-1.4,1.2
			c-0.1,0.1-0.3,0.3-0.4,0.4c-0.1,0.1-0.3,0.3-0.4,0.4c-0.3,0.3-0.5,0.6-0.7,0.8C3361.2,3051.3,3360,3054.5,3360,3057.9z"/>
		<path class="st16" d="M3759.8,3117.4H4196c9.4,0,17.1-7,17.6-15.7c0-0.3,0-0.6,0-0.9v-42.9c0-0.3,0-0.6,0-0.9
			c-0.5-8.7-8.2-15.7-17.6-15.7h-382.7c-0.2,0.6-0.3,1.2-0.5,1.9C3806.5,3065.4,3792.1,3095.3,3759.8,3117.4z"/>
		<g>
			<rect x="3459" y="3041.3" class="st17" width="9.3" height="76"/>
			<rect x="3490.4" y="3041.3" class="st17" width="9.3" height="76"/>
			<rect x="3528" y="3041.3" class="st17" width="9.3" height="76"/>
			<rect x="3585.6" y="3041.3" class="st17" width="9.3" height="76"/>
			<rect x="3646.4" y="3041.3" class="st17" width="9.3" height="76"/>
			<rect x="3739.7" y="3041.3" class="st17" width="9.3" height="76"/>
			<rect x="3827.2" y="3041.3" class="st17" width="9.3" height="76"/>
			<rect x="3905.2" y="3041.3" class="st17" width="9.3" height="76"/>
			<rect x="3429.3" y="3041.3" class="st17" width="9.3" height="76"/>
			<rect x="3409.6" y="3041.3" class="st17" width="9.3" height="76"/>
			<rect x="3390.5" y="3041.3" class="st17" width="9.3" height="76"/>
			<path class="st17" d="M3376.2,3041.6v75.5c1.1,0.2,2.3,0.3,3.5,0.3h5.8v-76h-5.8C3378.5,3041.4,3377.3,3041.5,3376.2,3041.6z"/>
			<path class="st17" d="M3363.3,3048.7v61.4c2.2,2.8,5.5,5,9.2,6.2v-73.8C3368.8,3043.7,3365.6,3045.9,3363.3,3048.7z"/>
		</g>
		<path class="st15" d="M3317.9,2983.8v42.9c0,3.4,1.2,6.6,3.4,9.2c2.2,2.8,5.5,5,9.2,6.2c1.2,0.4,2.4,0.7,3.6,0.8
			c1.1,0.2,2.3,0.3,3.5,0.3h814.3c3.3,0,6.4-0.7,9.1-1.9c5.8-2.5,9.9-7.4,10.5-13.1c0-0.2,0.1-0.5,0.1-0.7c0-0.3,0-0.6,0-0.9v-42.9
			c0-0.3,0-0.6,0-0.9c-0.5-8.7-9.2-15.7-19.7-15.7h-814.3c-1.2,0-2.3,0.1-3.5,0.3s-2.5,0.5-3.6,0.8c-3.8,1.2-7,3.4-9.2,6.2
			C3319.1,2977.2,3317.9,2980.3,3317.9,2983.8z"/>
		<path class="st16" d="M3717.8,3043.2H4154c2.9,0,5.7-0.7,8.1-1.9c5.2-2.5,8.8-7.4,9.4-13.1c0-0.2,0.1-0.5,0.1-0.7
			c0-0.3,0-0.6,0-0.9v-42.9c0-0.3,0-0.6,0-0.9c-0.5-8.7-8.2-15.7-17.6-15.7h-382.7c-5.9,21.8-19.6,51.6-50.9,74.1
			C3719.6,3042,3718.7,3042.6,3717.8,3043.2z"/>
		<g>
			<rect x="3417" y="2967.2" class="st17" width="9.3" height="76"/>
			<rect x="3448.3" y="2967.2" class="st17" width="9.3" height="76"/>
			<rect x="3485.9" y="2967.2" class="st17" width="9.3" height="76"/>
			<rect x="3543.4" y="2967.2" class="st17" width="9.3" height="76"/>
			<rect x="3604.4" y="2967.2" class="st17" width="9.3" height="76"/>
			<rect x="3697.7" y="2967.2" class="st17" width="9.3" height="76"/>
			<rect x="3785.1" y="2967.2" class="st17" width="9.3" height="76"/>
			<rect x="3863.2" y="2967.2" class="st17" width="9.3" height="76"/>
			<rect x="3387.1" y="2967.2" class="st17" width="9.3" height="76"/>
			<rect x="3367.4" y="2967.2" class="st17" width="9.3" height="76"/>
			<rect x="3348.5" y="2967.2" class="st17" width="9.3" height="76"/>
			<path class="st17" d="M3334.1,2967.5v75.5c1.1,0.2,2.3,0.3,3.5,0.3h5.8v-76h-5.8C3336.4,2967.2,3335.3,2967.3,3334.1,2967.5z"/>
			<path class="st17" d="M3321.3,2974.5v61.4c2.2,2.8,5.5,5,9.2,6.2v-73.8C3326.7,2969.6,3323.5,2971.7,3321.3,2974.5z"/>
		</g>
		<path class="st15" d="M3298.4,2907.7v42.9c0,3.4,1.2,6.6,3.4,9.2c2.2,2.8,5.5,5,9.2,6.2c1.2,0.4,2.4,0.7,3.6,0.9
			c1.1,0.2,2.3,0.3,3.5,0.3h814.3c10.5,0,19.1-7,19.7-15.7c0-0.3,0-0.6,0-0.8v-42.9c0-0.3,0-0.6,0-0.9c-0.5-8.1-7.9-14.6-17.4-15.6
			c-0.8-0.1-1.5-0.1-2.3-0.1h-814.3c-1.2,0-2.3,0.1-3.5,0.3s-2.4,0.5-3.6,0.9c-3.8,1.2-7,3.4-9.2,6.2
			C3299.6,2901.2,3298.4,2904.3,3298.4,2907.7z"/>
		<path class="st16" d="M3698.2,2967.2h436.2c9.4,0,17.1-7,17.6-15.7c0-0.3,0-0.6,0-0.8v-42.9c0-0.3,0-0.6,0-0.9
			c-0.4-8-7.1-14.6-15.5-15.6c-0.7-0.1-1.4-0.1-2.1-0.1h-382.7v0.1C3745.7,2913.7,3731.4,2944.6,3698.2,2967.2z"/>
		<g>
			<rect x="3397.5" y="2891.2" class="st17" width="9.3" height="76"/>
			<rect x="3428.8" y="2891.2" class="st17" width="9.3" height="76"/>
			<rect x="3466.3" y="2891.2" class="st17" width="9.3" height="76"/>
			<rect x="3523.9" y="2891.2" class="st17" width="9.3" height="76"/>
			<rect x="3584.9" y="2891.2" class="st17" width="9.3" height="76"/>
			<rect x="3678.2" y="2891.2" class="st17" width="9.3" height="76"/>
			<rect x="3765.6" y="2891.2" class="st17" width="9.3" height="76"/>
			<rect x="3843.7" y="2891.2" class="st17" width="9.3" height="76"/>
			<rect x="3367.6" y="2891.2" class="st17" width="9.3" height="76"/>
			<rect x="3347.9" y="2891.2" class="st17" width="9.3" height="76"/>
			<rect x="3329" y="2891.2" class="st17" width="9.3" height="76"/>
			<path class="st17" d="M3314.6,2891.5v75.5c1.1,0.2,2.3,0.3,3.5,0.3h5.8v-76h-5.8C3316.9,2891.2,3315.8,2891.3,3314.6,2891.5z"/>
			<path class="st17" d="M3301.8,2898.5v61.4c2.2,2.8,5.5,5,9.2,6.2v-73.8C3307.2,2893.5,3304,2895.7,3301.8,2898.5z"/>
		</g>
		<path class="st15" d="M3358.3,2831.8v42.9c0,3.4,1.2,6.6,3.4,9.2c2.2,2.8,5.5,5,9.2,6.2c1.2,0.4,2.4,0.7,3.6,0.9
			c0.4,0.1,0.8,0.1,1.1,0.1c0.2,0,0.4,0,0.6,0.1c0.2,0,0.4,0,0.6,0c0.3,0,0.7,0,1,0h814.3c10.5,0,19.1-7,19.7-15.7
			c0-0.3,0-0.6,0-0.8v-42.9c0-0.3,0-0.6,0-0.9c0-0.2,0-0.5-0.1-0.7c-0.8-7-6.8-12.8-14.8-14.5c-0.2,0-0.4-0.1-0.6-0.1
			c-1.4-0.3-2.8-0.4-4.3-0.4h-814.3c-0.6,0-1.2,0-1.8,0.1c-0.3,0-0.5,0-0.8,0.1l0,0c-0.3,0-0.6,0.1-0.9,0.1
			c-1.2,0.2-2.5,0.5-3.6,0.9c-3.8,1.2-7,3.4-9.2,6.2C3359.5,2825.3,3358.3,2828.4,3358.3,2831.8z"/>
		<path class="st16" d="M3758.1,2891.3h436.2c9.4,0,17.1-7,17.6-15.7c0-0.3,0-0.6,0-0.8v-42.9c0-0.3,0-0.6,0-0.9
			c0-0.2,0-0.5-0.1-0.7c-0.7-7.2-6.3-13-13.6-14.6c-0.2-0.1-0.5-0.1-0.8-0.1c-1-0.2-2-0.3-3.1-0.3h-382.7c0,0.2-0.1,0.4-0.2,0.5
			c-6.2,22.3-20.4,52.9-53.2,75.4C3758.2,2891.2,3758.2,2891.3,3758.1,2891.3z"/>
		<g>
			<rect x="3457.4" y="2815.3" class="st17" width="9.3" height="76"/>
			<rect x="3488.6" y="2815.3" class="st17" width="9.3" height="76"/>
			<rect x="3526.3" y="2815.3" class="st17" width="9.3" height="76"/>
			<rect x="3583.8" y="2815.3" class="st17" width="9.3" height="76"/>
			<rect x="3644.7" y="2815.3" class="st17" width="9.3" height="76"/>
			<rect x="3738" y="2815.3" class="st17" width="9.3" height="76"/>
			<rect x="3825.4" y="2815.3" class="st17" width="9.3" height="76"/>
			<rect x="3903.5" y="2815.3" class="st17" width="9.3" height="76"/>
			<rect x="3427.5" y="2815.3" class="st17" width="9.3" height="76"/>
			<rect x="3407.8" y="2815.3" class="st17" width="9.3" height="76"/>
			<rect x="3388.8" y="2815.3" class="st17" width="9.3" height="76"/>
			<path class="st17" d="M3374.5,2815.6v75.5c1.1,0.2,2.3,0.3,3.5,0.3h5.8v-76h-5.8C3376.8,2815.3,3375.6,2815.4,3374.5,2815.6z"/>
			<path class="st17" d="M3361.6,2822.6v61.4c2.2,2.8,5.5,5,9.2,6.2v-73.8C3367.1,2817.6,3363.9,2819.8,3361.6,2822.6z"/>
		</g>
		<path class="st15" d="M3360,2756.4v42.9c0,3.4,1.2,6.6,3.4,9.2c2.2,2.8,5.5,5,9.2,6.2c0.9,0.3,1.9,0.5,2.8,0.7l0,0
			c0.3,0.1,0.5,0.1,0.8,0.1c1.1,0.2,2.3,0.3,3.5,0.3H4194c0.9,0,1.7,0,2.5-0.1c0.3,0,0.7-0.1,1-0.1c8.9-1.3,15.7-7.7,16.2-15.4
			c0-0.3,0-0.6,0-0.9v-42.9c0-0.3,0-0.6,0-0.8c-0.5-8.7-9.2-15.7-19.7-15.7h-814.3c-0.5,0-1,0-1.6,0.1c-0.2,0-0.4,0-0.7,0.1
			c-0.2,0-0.5,0-0.7,0.1c-0.2,0-0.3,0-0.5,0.1c-1.2,0.2-2.4,0.5-3.6,0.9c-0.2,0.1-0.3,0.1-0.5,0.2c-0.2,0.1-0.3,0.1-0.5,0.2
			c-0.3,0.1-0.7,0.3-1,0.4c-0.4,0.2-0.7,0.3-1.1,0.5c-0.3,0.2-0.6,0.3-0.9,0.5c-0.3,0.2-0.7,0.4-1,0.6c-0.3,0.2-0.5,0.3-0.8,0.5l0,0
			c-0.2,0.1-0.3,0.2-0.5,0.4c-0.5,0.4-1,0.8-1.4,1.2c-0.1,0.1-0.3,0.3-0.4,0.4c-0.1,0.1-0.3,0.3-0.4,0.4c-0.3,0.3-0.5,0.6-0.7,0.8
			C3361.2,2749.8,3360,2752.9,3360,2756.4z"/>
		<path class="st16" d="M3759.8,2815.8H4196c0.3,0,0.7,0,1,0c0.4,0,0.8-0.1,1.1-0.1c8.4-1,15-7.5,15.4-15.6c0-0.3,0-0.6,0-0.9v-42.9
			c0-0.3,0-0.6,0-0.8c-0.5-8.7-8.2-15.7-17.6-15.7h-382.7c-0.2,0.6-0.3,1.2-0.5,1.9c-6.3,22-20.5,51.6-52.3,73.6
			C3760.3,2815.5,3760.1,2815.7,3759.8,2815.8z"/>
		<g>
			<rect x="3459" y="2739.8" class="st17" width="9.3" height="76"/>
			<rect x="3490.4" y="2739.8" class="st17" width="9.3" height="76"/>
			<rect x="3528" y="2739.8" class="st17" width="9.3" height="76"/>
			<rect x="3585.6" y="2739.8" class="st17" width="9.3" height="76"/>
			<rect x="3646.4" y="2739.8" class="st17" width="9.3" height="76"/>
			<rect x="3739.7" y="2739.8" class="st17" width="9.3" height="76"/>
			<rect x="3827.2" y="2739.8" class="st17" width="9.3" height="76"/>
			<rect x="3905.2" y="2739.8" class="st17" width="9.3" height="76"/>
			<rect x="3429.3" y="2739.8" class="st17" width="9.3" height="76"/>
			<rect x="3409.6" y="2739.8" class="st17" width="9.3" height="76"/>
			<rect x="3390.5" y="2739.8" class="st17" width="9.3" height="76"/>
			<path class="st17" d="M3376.2,2740.1v75.5c1.1,0.2,2.3,0.3,3.5,0.3h5.8v-76h-5.8C3378.5,2739.8,3377.3,2739.9,3376.2,2740.1z"/>
			<path class="st17" d="M3363.3,2747.1v61.4c2.2,2.8,5.5,5,9.2,6.2v-73.8C3368.8,2742.2,3365.6,2744.4,3363.3,2747.1z"/>
		</g>
		<path class="st15" d="M3317.9,2682.2v42.9c0,3.4,1.2,6.6,3.4,9.2c2.2,2.8,5.5,5,9.2,6.2c1.2,0.4,2.4,0.7,3.6,0.9
			c1.1,0.2,2.3,0.3,3.5,0.3h814.3c3.3,0,6.4-0.7,9.1-1.9c5.8-2.5,9.9-7.4,10.5-13.1c0-0.2,0.1-0.5,0.1-0.7c0-0.3,0-0.6,0-0.9v-42.9
			c0-0.3,0-0.6,0-0.8c-0.5-8.7-9.2-15.7-19.7-15.7h-814.3c-1.2,0-2.3,0.1-3.5,0.3s-2.5,0.5-3.6,0.9c-3.8,1.2-7,3.4-9.2,6.2
			C3319.1,2675.6,3317.9,2678.8,3317.9,2682.2z"/>
		<path class="st16" d="M3717.8,2741.7H4154c2.9,0,5.7-0.7,8.1-1.9c5.2-2.5,8.8-7.4,9.4-13.1c0-0.2,0.1-0.5,0.1-0.7
			c0-0.3,0-0.6,0-0.9v-42.9c0-0.3,0-0.6,0-0.8c-0.5-8.7-8.2-15.7-17.6-15.7h-382.7c-5.9,21.8-19.6,51.6-50.9,74.1
			C3719.6,2740.5,3718.7,2741.1,3717.8,2741.7z"/>
		<g>
			<rect x="3417" y="2665.6" class="st17" width="9.3" height="76"/>
			<rect x="3448.3" y="2665.6" class="st17" width="9.3" height="76"/>
			<rect x="3485.9" y="2665.6" class="st17" width="9.3" height="76"/>
			<rect x="3543.4" y="2665.6" class="st17" width="9.3" height="76"/>
			<rect x="3604.4" y="2665.6" class="st17" width="9.3" height="76"/>
			<rect x="3697.7" y="2665.6" class="st17" width="9.3" height="76"/>
			<rect x="3785.1" y="2665.6" class="st17" width="9.3" height="76"/>
			<rect x="3863.2" y="2665.6" class="st17" width="9.3" height="76"/>
			<rect x="3387.1" y="2665.6" class="st17" width="9.3" height="76"/>
			<rect x="3367.4" y="2665.6" class="st17" width="9.3" height="76"/>
			<rect x="3348.5" y="2665.6" class="st17" width="9.3" height="76"/>
			<path class="st17" d="M3334.1,2665.9v75.5c1.1,0.2,2.3,0.3,3.5,0.3h5.8v-76h-5.8C3336.4,2665.7,3335.3,2665.8,3334.1,2665.9z"/>
			<path class="st17" d="M3321.3,2673v61.4c2.2,2.8,5.5,5,9.2,6.2v-73.8C3326.7,2668,3323.5,2670.2,3321.3,2673z"/>
		</g>
		<path class="st15" d="M3251.4,2606.2v42.9c0,3.4,1.2,6.6,3.4,9.2c2.2,2.8,5.5,5,9.2,6.2c1.2,0.4,2.4,0.7,3.6,0.8
			c1.1,0.2,2.3,0.3,3.5,0.3h814.3c10.5,0,19.1-7,19.7-15.7c0-0.3,0-0.6,0-0.9v-42.9c0-0.3,0-0.6,0-0.9c-0.5-8-7.9-14.6-17.4-15.6
			c-0.8-0.1-1.5-0.1-2.3-0.1h-814.3c-1.2,0-2.3,0.1-3.5,0.3s-2.4,0.5-3.6,0.8c-3.8,1.2-7,3.4-9.2,6.2
			C3252.6,2599.6,3251.4,2602.8,3251.4,2606.2z"/>
		<path class="st16" d="M3651.2,2665.7h436.2c9.4,0,17.1-7,17.6-15.7c0-0.3,0-0.6,0-0.9v-42.9c0-0.3,0-0.6,0-0.9
			c-0.4-8-7.1-14.6-15.5-15.6c-0.7-0.1-1.4-0.1-2.1-0.1h-382.7v0.1C3698.6,2612.2,3684.4,2643,3651.2,2665.7z"/>
		<g>
			<rect x="3350.5" y="2589.6" class="st17" width="9.3" height="76"/>
			<rect x="3381.7" y="2589.6" class="st17" width="9.3" height="76"/>
			<rect x="3419.4" y="2589.6" class="st17" width="9.3" height="76"/>
			<rect x="3476.9" y="2589.6" class="st17" width="9.3" height="76"/>
			<rect x="3537.8" y="2589.6" class="st17" width="9.3" height="76"/>
			<rect x="3631.1" y="2589.6" class="st17" width="9.3" height="76"/>
			<rect x="3718.5" y="2589.6" class="st17" width="9.3" height="76"/>
			<rect x="3796.6" y="2589.6" class="st17" width="9.3" height="76"/>
			<rect x="3320.6" y="2589.6" class="st17" width="9.3" height="76"/>
			<rect x="3300.9" y="2589.6" class="st17" width="9.3" height="76"/>
			<rect x="3281.9" y="2589.6" class="st17" width="9.3" height="76"/>
			<path class="st17" d="M3267.6,2589.9v75.5c1.1,0.2,2.3,0.3,3.5,0.3h5.8v-76h-5.8C3269.9,2589.7,3268.7,2589.8,3267.6,2589.9z"/>
			<path class="st17" d="M3254.7,2597v61.4c2.2,2.8,5.5,5,9.2,6.2v-73.8C3260.2,2592,3257,2594.2,3254.7,2597z"/>
		</g>
	</g>
</g>
<g>
	<path class="st18" d="M3787.2,3363.7l-575-145.5c-21.3-5.4-34.2-27-28.8-48.3l87.5-346c5.4-21.3,27-34.2,48.3-28.8l575,145.5
		c21.3,5.4,34.2,27,28.8,48.3l-87.5,346C3830.1,3356.2,3808.5,3369.1,3787.2,3363.7z"/>
	<g>
		<polygon class="st19" points="3552.5,3081.9 3551.9,3081.6 3247.5,2913.7 3249.9,2909.2 3553.8,3076.8 3900.9,3073.8 3900.9,3079 
					"/>
	</g>
	<path class="st19" d="M3547.7,3032.5c2.3-9,11.4-14.5,20.5-12.2c9,2.3,14.5,11.4,12.2,20.5c-2.3,9-11.4,14.5-20.5,12.2
		S3545.4,3041.5,3547.7,3032.5z"/>
	<g>
		<path class="st18" d="M3620,2955.9c-11.1,0-22.7-1.4-34.6-4.4c-25.8-6.5-48.4-19.7-63.7-37.2c-16.6-19-22.9-40.8-17.7-61.3
			c5.2-20.6,21.1-36.7,44.7-45.5c21.8-8.1,48-9,73.7-2.4c56.1,14.2,91.8,57.5,81.4,98.5C3695.7,2936,3661.6,2955.9,3620,2955.9z
			 M3588.3,2829.5c-10.6,0-20.6,1.7-29.5,5c-14.5,5.4-24,14.5-26.8,25.5l0,0c-2.8,11.1,1.3,23.6,11.4,35.2
			c11.5,13.1,28.9,23.2,49.1,28.3c39,9.9,77.2-2.5,83.4-27.1c6.2-24.5-21.5-53.6-60.5-63.5
			C3606.3,2830.7,3597.1,2829.5,3588.3,2829.5z"/>
	</g>
</g>
<g>
	
		<linearGradient id="SVGID_13_" gradientUnits="userSpaceOnUse" x1="5119.8945" y1="-292.9756" x2="3283.7837" y2="1661.5938" gradientTransform="matrix(-1 0 0 -1 4909.4194 2797.7961)">
		<stop  offset="0" style="stop-color:#DAE3FE"/>
		<stop  offset="1" style="stop-color:#E9EFFD"/>
	</linearGradient>
	<path class="st20" d="M340.8,2306.6c67.8,69.8,128.4,110.9,174.8,141.9c452.9,302.4,970.6,215.2,1130.6,185.4
		c258.2-48.1,476.2-81.9,663.5-251.2c425.6-384.4,404.9-1186.5,79.7-1683.4c-38.6-58.9-363.3-540.2-882-608
		c-12.7-1.7-22.1-2.6-30.4-3.5c-80.2-8.5-577.6-53.3-983.1,286.4C435.8,423,342.4,510.7,255.7,644.5
		C-61,1133.8-62,1891.4,340.8,2306.6z"/>
	<g>
		<path class="st21" d="M360.8,169.7c-52.4,260-296.2,1785.6,1094.4,2271.4c0,0,418.9-963-1057.4-2283.8
			C384.8,145.8,364.3,152.7,360.8,169.7z"/>
		<path class="st22" d="M431.2,454.7c27.1,80.3,55.9,160.1,85.2,239.6c29.5,79.5,59.8,158.6,91.1,237.3
			c62.6,157.5,128.7,313.7,199.6,467.7c71,153.9,146.5,305.9,230.2,453.6c41.6,73.9,85.9,146.4,133,217.2
			c47.2,70.6,97.1,139.6,152.6,204.3c3.3,3.8,9.1,4.3,12.9,1c3.8-3.3,4.3-9.1,1-12.9l0,0l0,0c-55.1-63.7-105.1-131.8-152.3-201.9
			c-47.2-70-91.7-141.9-133.5-215.5c-84.2-146.7-160.4-298-232-451.3c-71.5-153.4-138.4-309-201.8-466.1
			c-31.7-78.5-62.4-157.4-92.2-236.6c-29.8-79.2-59-158.8-86.4-238.8l0,0c-0.7-2-2.9-3.1-4.9-2.4
			C431.6,450.5,430.6,452.7,431.2,454.7z"/>
	</g>
	<g>
		<path class="st23" d="M1218.5,2545c0,0,17.8-258.8-219-543.6C779.9,1737.2,237,1122.7,128.2,799.7c-4.8-14.3-25.6-12.1-27.1,2.9
			c-16.1,161.2-24.7,568.1,218,995C632.1,2348.2,1218.5,2545,1218.5,2545z"/>
		<path class="st22" d="M196.4,1096.8c1.4,35.8,7.4,71.4,15.1,106.3c0.9,4.3,1.8,8.8,2.8,13.1l3.3,13l6.7,26.1l7.7,25.8
			c2.6,8.6,5,17.3,8.1,25.6c23.2,67.9,52,134,86.4,197c7.9,16.2,17.6,31.3,26.6,46.9l13.7,23.2c2.4,3.9,4.4,7.8,7,11.5l7.4,11.2
			l29.6,45c4.7,7.7,10.3,14.6,15.6,21.9l16,21.7l16,21.7l8,10.9l8.5,10.4l34,41.8c5.8,6.9,11.2,14.1,17.1,20.8l17.7,20.2l35.2,40.4
			l35.7,40.1c12,13.3,23.8,26.7,35.9,39.9c24.1,26.5,48.4,52.7,73,78.8c24.4,26.2,49.2,52,73.9,77.9l74.8,77
			c49.9,51.2,99.9,102.3,148.1,155.1c12.2,13,23.8,26.6,35.5,40c6,6.6,11.5,13.6,17.2,20.5c5.6,6.9,11.4,13.7,16.8,20.8
			c10.6,14.4,21.7,28.3,31.3,43.3l7.5,11.1c1.2,1.9,2.6,3.7,3.7,5.6l3.3,5.8l13.3,23.2l0.1,0.1c0.6,0.9,1.7,1.2,2.6,0.8
			c0.9-0.5,1.2-1.6,0.8-2.6c-16.2-32.1-35.7-62.4-57.1-91.3c-5.3-7.2-11-14.2-16.4-21.3c-5.6-7.1-11-14.3-16.8-21
			c-11.5-13.7-22.9-27.7-34.8-41l-17.8-20.2c-6-6.7-12.1-13.2-18.1-19.8l-18.1-19.8l-18.3-19.6c-24.4-26.2-49.1-52.1-73.7-78.1
			c-49.2-51.9-98.4-103.8-147-156.1c-48.7-52.4-96.5-105.4-143.9-158.9l-35.2-40.4l-17.6-20.2c-5.9-6.7-11.3-13.7-17.1-20.6
			l-33.9-41.3l-8.5-10.3l-8-10.7l-16-21.5c-43.2-56.6-81.6-116.8-116.7-178.8c-35.4-61.8-65.3-126.8-89.7-193.7
			c-3.3-8.3-5.8-16.8-8.8-25.2l-8.5-25.3l-7.5-25.7l-3.7-12.9c-1.1-4.3-2.2-8.7-3.2-12.9c-2.1-8.7-4.4-17.3-6.2-26l-5.4-26.3
			c-3-17.6-6.1-35.2-7.4-53c0-0.1-0.1-0.3-0.3-0.3C196.5,1096.6,196.4,1096.7,196.4,1096.8z"/>
	</g>
	<g>
		<g>
			<g>
				
					<rect x="813" y="220.6" transform="matrix(1 -3.220556e-03 3.220556e-03 1 -1.5383 4.4)" class="st23" width="1104.8" height="518.5"/>
				<path class="st2" d="M1856.4,328.7l0.9,294.8c-23.7,0.1-43.5,23.1-43.4,49.3c0,0.9,0.2,0.7,0.2,4l-891.8,2.8
					c0-3.4,0.1-3.2,0.1-4c-0.1-26.3-19.6-48.3-43.7-48.2c-0.4,0-0.9-0.8-0.9-0.8l-0.9-288.1c40.6-0.1,44.5-27.7,44.4-54
					c0-0.9-0.2-1.5-0.3-1.5l891.8-2.8c0,0-0.2,0.7-0.2,1.5C1812.9,308,1832.7,328.7,1856.4,328.7z"/>
				<g>
					
						<linearGradient id="SVGID_14_" gradientUnits="userSpaceOnUse" x1="7867.2256" y1="-1706.7471" x2="7756.1533" y2="-3135.8809" gradientTransform="matrix(1 -3.200000e-03 -3.200000e-03 -1 -6497.8203 -1318.1584)">
						<stop  offset="0" style="stop-color:#50E7B7"/>
						<stop  offset="0.9964" style="stop-color:#323992"/>
					</linearGradient>
					<circle class="st24" cx="1366.3" cy="477.8" r="162.1"/>
					<g>
						<path class="st25" d="M1350.3,587.1l-0.1-17.1c-17.9-0.7-35.5-4.8-48.1-10.3c-4.4-2-6.8-7-5.5-11.7l4.3-16
							c1.6-5.9,7.9-8.9,13.5-6.6c12.5,5.2,27.9,9.3,44.4,9.2c17.2-0.1,30.1-6,30-17.9c0-10.8-10-17.2-33.9-23.5
							c-34.1-9.3-58.7-24-58.8-54.1c-0.1-27.1,19.7-47.9,54.1-53.6l-0.1-17.1c0-5.5,4.4-10,9.9-10h10.1c5.5,0,10,4.4,10,9.9
							l0.1,15.4c16.5,0.6,28.5,3.4,38.2,6.7c4.9,1.7,7.6,7,6.2,12l-4,14.7c-1.5,5.7-7.6,8.8-13.1,6.8c-8.8-3.3-21.3-6.7-37.4-6.7
							c-20.4,0.1-26.2,8.5-26.2,16.2c0,9.4,12.3,15.7,38.8,23.8c38,11.2,53.8,26.9,53.9,55.3c0.1,26-19.1,49.3-56.4,55.3l0.1,19.2
							c0,5.5-4.4,10-9.9,10h-10.1C1354.8,597.2,1350.3,592.7,1350.3,587.1z"/>
					</g>
				</g>
			</g>
			<path class="st25" d="M842.8,355.2c-0.1-0.3-0.2-0.5-0.2-0.8l-0.3-100c0-1.2,0.9-2.2,2.2-2.2l269.4-0.9c1.2,0,2.2,0.9,2.2,2.2
				c0,1.2-0.9,2.2-2.2,2.2l-267.3,0.9l0.3,97.8c0,1.2-0.9,2.2-2.2,2.2C843.9,356.7,843.1,356.1,842.8,355.2z"/>
			<path class="st25" d="M1615,707c-0.1-0.3-0.2-0.5-0.2-0.8c0-1.2,0.9-2.2,2.2-2.2l267.3-0.9l-0.3-97.8c0-1.2,0.9-2.2,2.2-2.2
				s2.2,0.9,2.2,2.2l0.3,100c0,0.6-0.2,1.1-0.7,1.6c-0.4,0.4-0.9,0.7-1.5,0.7l-269.4,0.9C1616.1,708.4,1615.3,707.7,1615,707z"/>
		</g>
		<g>
			<g>
				
					<rect x="799" y="233.8" transform="matrix(1 -3.220556e-03 3.220556e-03 1 -1.581 4.355)" class="st23" width="1104.8" height="518.5"/>
				<path class="st2" d="M1842.5,341.8l0.9,294.8c-23.7,0.1-43.5,23.1-43.4,49.3c0,0.9,0.2,0.7,0.2,4l-891.8,2.8
					c0-3.4,0.1-3.2,0.1-4c-0.1-26.3-19.6-48.3-43.7-48.2c-0.4,0-0.9-0.8-0.9-0.8l-0.9-288.1c40.6-0.1,44.5-27.7,44.4-54
					c0-0.9-0.2-1.5-0.3-1.5l891.8-2.8c0,0-0.2,0.7-0.2,1.5C1798.9,321.1,1818.7,341.9,1842.5,341.8z"/>
				<g>
					
						<linearGradient id="SVGID_15_" gradientUnits="userSpaceOnUse" x1="7853.1963" y1="-1719.8521" x2="7742.124" y2="-3148.9866" gradientTransform="matrix(1 -3.200000e-03 -3.200000e-03 -1 -6497.8203 -1318.1584)">
						<stop  offset="0" style="stop-color:#50E7B7"/>
						<stop  offset="0.9964" style="stop-color:#323992"/>
					</linearGradient>
					<circle class="st26" cx="1352.4" cy="490.9" r="162.1"/>
					<g>
						<path class="st25" d="M1336.3,600.4l-0.1-17.1c-17.9-0.7-35.5-4.8-48.1-10.3c-4.4-2-6.8-7-5.5-11.7l4.3-16
							c1.6-5.9,7.9-8.9,13.5-6.6c12.5,5.2,27.9,9.3,44.4,9.2c17.2-0.1,30.1-6,30-17.9c0-10.8-10-17.2-33.9-23.5
							c-34.1-9.3-58.7-24-58.8-54.1c-0.1-27.1,19.7-47.9,54.1-53.6l-0.1-17.1c0-5.5,4.4-10,9.9-10h10.1c5.5,0,10,4.4,10,9.9
							l0.1,15.4c16.5,0.6,28.5,3.4,38.2,6.7c4.9,1.7,7.6,7,6.2,12l-4,14.7c-1.5,5.7-7.6,8.8-13.1,6.8c-8.8-3.3-21.3-6.7-37.4-6.7
							c-20.4,0.1-26.2,8.5-26.2,16.2c0,9.4,12.3,15.7,38.8,23.8c38,11.2,53.8,26.9,53.9,55.3c0.1,26-19.1,49.3-56.4,55.3l0.1,19.2
							c0,5.5-4.4,10-9.9,10h-10.1C1340.8,610.3,1336.3,605.9,1336.3,600.4z"/>
					</g>
				</g>
			</g>
			<path class="st25" d="M828.8,368.4c-0.1-0.3-0.2-0.5-0.2-0.8l-0.3-100c0-1.2,0.9-2.2,2.2-2.2l269.4-0.9c1.2,0,2.2,0.9,2.2,2.2
				s-0.9,2.2-2.2,2.2l-267.3,0.9l0.3,97.8c0,1.2-0.9,2.2-2.2,2.2C829.9,369.8,829.2,369.2,828.8,368.4z"/>
			<path class="st25" d="M1601,720.1c-0.1-0.3-0.2-0.5-0.2-0.8c0-1.2,0.9-2.2,2.2-2.2l267.3-0.9l-0.3-97.8c0-1.2,0.9-2.2,2.2-2.2
				s2.2,0.9,2.2,2.2l0.3,100c0,0.6-0.2,1.1-0.7,1.6c-0.4,0.4-0.9,0.7-1.5,0.7l-269.4,0.9C1602.1,721.5,1601.3,721,1601,720.1z"/>
		</g>
		<g>
			<g>
				<g>
					
						<rect x="786.8" y="249.7" transform="matrix(1 -5.082733e-03 5.082733e-03 1 -2.5696 6.8133)" class="st27" width="1104.9" height="518.5"/>
					<path class="st21" d="M1829.9,357.2l1.5,294.8c-23.7,0.1-43.7,22.9-43.6,49.1c0,0.9-0.1,0.4,0,3.8L896,709.4
						c0-3.4,0.1-2.9,0.1-3.8c-0.1-26.3-19.4-48.1-43.5-48c-0.4,0-0.7-0.7-0.7-0.7l-1.4-288.1c40.6-0.2,44.2-28,44-54.2
						c0-0.9-0.5-1.8-0.5-1.8l891.8-4.5c0,0,0,0.9,0,1.8C1786,336.4,1806.2,357.4,1829.9,357.2z"/>
					<g>
						
							<ellipse transform="matrix(0.7071 -0.7071 0.7071 0.7071 33.5592 1095.7937)" class="st28" cx="1339.5" cy="507.4" rx="162.1" ry="162.1"/>
						<g>
							<path class="st25" d="M1323.7,616.7l-0.1-17.1c-17.9-0.7-35.5-4.7-48.1-10.2c-4.5-2-6.8-7-5.6-11.7l4.3-16
								c1.6-5.9,7.9-8.9,13.5-6.6c12.5,5.2,27.9,9.2,44.4,9.2c17.2-0.1,30.1-6,30-18c-0.1-10.8-10-17.2-33.9-23.4
								c-34.2-9.2-58.8-23.9-58.9-54c-0.1-27.1,19.6-47.9,54-53.7l-0.1-17.1c0-5.5,4.4-10,9.9-10l10.1-0.1c5.5,0,10,4.4,10,9.9
								l0.1,15.4c16.5,0.6,28.5,3.3,38.2,6.6c4.9,1.7,7.6,7,6.2,12l-4,14.7c-1.5,5.7-7.6,8.9-13.1,6.8c-8.8-3.3-21.3-6.7-37.4-6.6
								c-20.4,0.1-26.2,8.6-26.2,16.2c0.1,9.4,12.3,15.7,38.9,23.7c38,11.2,53.8,26.8,54,55.1c0.1,26-19,49.4-56.3,55.4l0.1,19.2
								c0,5.5-4.4,10-9.9,10l-10.1,0.1C1328.3,626.7,1323.7,622.3,1323.7,616.7z"/>
						</g>
					</g>
					<g>
						<ellipse class="st29" cx="1342.3" cy="514" rx="176.8" ry="176.8"/>
						<ellipse class="st27" cx="1342.3" cy="514" rx="171" ry="171"/>
						<path class="st30" d="M1200.2,448.7c-0.5,0-0.9-0.1-1.4-0.3c-1.6-0.8-2.3-2.6-1.5-4.3c26.6-55.1,81.1-90.1,142.2-91.1
							c9.7-0.2,19.6,0.6,29.1,2.1c1.7,0.3,2.9,1.9,2.6,3.7s-1.9,2.9-3.7,2.6c-9.2-1.5-18.5-2.2-28-2c-58.7,1-111,34.6-136.6,87.5
							C1202.5,448,1201.3,448.7,1200.2,448.7z"/>
						<ellipse class="st31" cx="1346.1" cy="517.7" rx="144.7" ry="144.7"/>
						<g>
							<path class="st27" d="M1333.9,625.4l-0.3-15.8c-16.4-0.4-32.7-4-44.3-8.8c-4.2-1.7-6.3-6.3-5.2-10.7l3.8-14.7
								c1.3-5.4,7.2-8.3,12.4-6.2c11.5,4.6,25.7,8.1,40.9,7.8c15.8-0.3,27.5-5.9,27.3-16.8c-0.2-9.9-9.4-15.6-31.5-21.2
								c-31.5-8-54.2-21.3-54.7-48.9c-0.5-24.9,17.4-44.2,49-49.9l-0.3-15.8c-0.1-5.1,4-9.3,9-9.4l9.3-0.2c5.1-0.1,9.3,4,9.4,9
								l0.3,14.2c15.2,0.4,26.3,2.7,35.2,5.7c4.5,1.5,7.1,6.3,5.9,10.9l-3.4,13.6c-1.3,5.3-6.9,8.2-12,6.4
								c-8.1-2.9-19.6-5.9-34.4-5.6c-18.7,0.4-24,8.2-23.8,15.1c0.2,8.6,11.5,14.3,36,21.4c35,9.8,49.7,24,50.2,50
								c0.5,23.8-16.8,45.6-51,51.6l0.3,17.6c0.1,5.1-4,9.3-9,9.4l-9.3,0.2C1338.2,634.6,1334,630.5,1333.9,625.4z"/>
						</g>
					</g>
				</g>
				<path class="st21" d="M813.2,385.9c-0.3-0.4-0.5-0.9-0.5-1.4l-0.5-100c0-0.6,0.2-1.1,0.7-1.6c0.4-0.4,0.9-0.7,1.5-0.7l272.8-1.4
					c1.2,0,2.2,0.9,2.2,2.2s-0.9,2.2-2.2,2.2l-270.7,1.6l0.5,97.8c0,1.2-0.9,2.2-2.2,2.2C814.3,386.7,813.6,386.3,813.2,385.9z"/>
				<path class="st21" d="M1589.5,736.1c-0.3-0.4-0.5-0.9-0.5-1.4c0-1.2,0.9-2.2,2.2-2.2l267.3-1.3l-0.5-97.8c0-1.2,0.9-2.2,2.2-2.2
					c1.2,0,2.2,0.9,2.2,2.2l0.5,100c0,0.6-0.2,1.1-0.7,1.6c-0.4,0.4-0.9,0.7-1.5,0.7l-269.4,1.3
					C1590.5,736.9,1589.8,736.6,1589.5,736.1z"/>
			</g>
			<g>
				<path class="st27" d="M1054.5,523.8c0.1,25.3-20.3,46-45.6,46.1c-25.3,0.1-46-20.3-46.1-45.6c-0.1-25.3,20.3-46,45.6-46.1
					C1033.7,478,1054.4,498.4,1054.5,523.8z"/>
				<ellipse class="st27" cx="1699.3" cy="520.5" rx="45.9" ry="45.9"/>
			</g>
		</g>
	</g>
	<g>
		<ellipse class="st29" cx="2040.6" cy="1136.5" rx="256.3" ry="256.3"/>
		<ellipse class="st27" cx="2040.6" cy="1136.5" rx="247.8" ry="247.8"/>
		<path class="st30" d="M1834.5,1041.9c-0.7,0-1.4-0.1-2.1-0.5c-2.3-1.1-3.3-3.9-2.2-6.1c38.6-79.9,117.5-130.5,206.1-132.1
			c14.2-0.3,28.4,0.8,42.1,3c2.6,0.4,4.3,2.7,3.8,5.3c-0.4,2.6-2.7,4.3-5.3,3.8c-13.3-2.2-26.9-3.1-40.5-2.9
			c-85.1,1.5-160.9,50.2-198,126.8C1837.8,1040.9,1836.2,1041.8,1834.5,1041.9z"/>
		
			<ellipse transform="matrix(0.7071 -0.7071 0.7071 0.7071 -208.0689 1781.2245)" class="st31" cx="2046.1" cy="1141.8" rx="209.7" ry="209.7"/>
		<g>
			<path class="st27" d="M2028.3,1298l-0.4-22.8c-23.8-0.5-47.4-5.7-64.3-12.8c-6-2.6-9.2-9.2-7.6-15.5l5.4-21.4
				c2-7.8,10.4-12,17.9-9c16.7,6.6,37.2,11.8,59.3,11.3c22.9-0.4,39.9-8.5,39.6-24.4c-0.3-14.4-13.6-22.7-45.6-30.6
				c-45.6-11.6-78.6-30.8-79.4-70.8c-0.7-36.1,25.2-64.2,71-72.4l-0.4-22.8c-0.1-7.4,5.7-13.4,13-13.5l13.4-0.3
				c7.4-0.1,13.4,5.7,13.5,13l0.4,20.5c22,0.5,38.1,4,50.9,8.2c6.5,2.2,10.2,9.2,8.6,15.8l-5,19.8c-1.9,7.7-9.9,11.9-17.3,9.3
				c-11.8-4.3-28.4-8.5-49.9-8.1c-27.2,0.5-34.8,11.9-34.6,22c0.2,12.5,16.7,20.7,52.3,30.9c50.7,14.3,72.1,34.8,72.8,72.5
				c0.7,34.6-24.5,66.1-74,74.8l0.5,25.5c0.1,7.4-5.7,13.4-13,13.5l-13.4,0.3C2034.5,1311.2,2028.4,1305.4,2028.3,1298z"/>
		</g>
	</g>
	<g>
		<ellipse class="st29" cx="2476" cy="1430.2" rx="134.9" ry="134.9"/>
		<ellipse class="st27" cx="2476" cy="1430.2" rx="130.4" ry="130.4"/>
		<path class="st30" d="M2395.8,1341.9c-0.4-0.1-0.7-0.4-0.9-0.7c-0.9-1-0.8-2.6,0.2-3.4c35.2-30.7,83.8-38.9,127-21.4
			c6.9,2.8,13.5,6.2,19.8,10.2c1.1,0.8,1.5,2.3,0.8,3.4s-2.2,1.5-3.4,0.8c-6-3.8-12.4-7.1-19-9.7c-41.5-16.8-88.3-9-122,20.5
			C2397.7,1342,2396.6,1342.2,2395.8,1341.9z"/>
		<ellipse class="st31" cx="2477.6" cy="1433.9" rx="110.4" ry="110.4"/>
		<g>
			<path class="st27" d="M2436.8,1505.8l4.5-11.2c-11.4-5.2-21.7-12.6-28.4-19.4c-2.4-2.5-2.6-6.3-0.5-9.1l7-9.3
				c2.6-3.4,7.5-3.7,10.5-0.7c6.7,6.7,15.6,13.4,26.4,17.8c11.2,4.5,21.1,4.2,24.2-3.7c2.8-7-1.9-13.8-15.8-24.2
				c-19.7-15-31.7-31.1-23.8-50.7c7.2-17.6,25.4-25.8,49.2-20.4l4.5-11.2c1.4-3.6,5.5-5.3,9.1-3.9l6.5,2.6c3.6,1.4,5.3,5.5,3.9,9.1
				l-4.1,10c10.6,4.8,17.7,9.7,23,14.5c2.7,2.4,3.1,6.5,0.9,9.5l-6.5,8.5c-2.5,3.3-7.3,3.7-10.3,0.9c-4.8-4.4-12-10-22.5-14.3
				c-13.2-5.4-19.3-1.4-21.3,3.5c-2.5,6,3.8,13.4,18.9,25.7c21.6,17.4,27.7,31.8,20.2,50.1c-6.8,16.8-25.4,26.9-51.2,20.9l-5,12.5
				c-1.4,3.6-5.5,5.3-9.1,3.9l-6.5-2.6C2437.1,1513.5,2435.3,1509.4,2436.8,1505.8z"/>
		</g>
	</g>
	<g>
		<path class="st32" d="M1022.2,2389.7c0,0-80.2,57.8-92.9,75.1c-18.2,24.9,136,71.4,119.2,42.2c-3.9-6.7-14.9-29.2-15.4-31.5
			c-2.6-11.8,30.1-43.8,30.1-43.8L1022.2,2389.7z"/>
		<path class="st33" d="M1090.1,2555.8l-54.5-77c0,0-34-7.9-69-47.2c0,0-31.4,12-50.7,38c0,0,36.5,39.3,92.7,83.5
			c0,0,33.4,29.5,79.4,45.1C1134.1,2613.7,1090.1,2555.8,1090.1,2555.8z"/>
		<path class="st32" d="M351.6,1335.2c0,0,9.8,8.7,13.3,11.3c4.1,3.1,17,11.5,17,11.5s46.9,26.6,48.4,23.2
			c1.6-3.5,1.5-13.6-0.8-16.3c-2.3-2.6-9.1-5.4-11.3-8c-2.3-2.6-3.1-8-0.1-11c3-2.9,19,5.8,19,5.8s12.9,7.2,18.4,15.9
			c18.8,30.1,13.1,31.9,15.6,35.7c2.9,4.5,68.7,34.3,68.7,34.3s196.4,81.7,207,86.1h0.1c1.4,9.1-3.4,17.5-6,25.5
			c-4.7,28.1-13,30-19.4,57c-30.1-15.2-238.6-130.1-259.9-142.1c0,0-31.8-5.4-51.6-9.5c-19.8-4.1-37.1-16.6-42.6-18.6
			c-0.8-0.3-18.5-7.9-38.1-23.1c-16.8-13,4.9-8.1,4.9-8.1s35.3,18.7,36.3,15.8c0.7-2.3-19.2-11.4-37.9-25.7
			c-4.8-3.7-9.5-7.3-13.9-10.7c-11.3-8.9-9.4-18.1,4-10.7c4.7,2.6,12.5,7.2,17.5,11.2c5.5,4.3,11.8,6.6,17,9.5
			c10.2,5.9,17.6,10.2,17.6,9.7c0-0.7,2.8-0.9-2.2-5c-6-4.8-21-12.5-29.3-20.2c-4.7-4.4-15.1-13.1-15.1-13.1s-13.3-16-12.7-17
			c3.5-5.8,15.7,2.7,21.3,9.5c5.8,2.6,16.4,12,16.4,12s25.8,14.4,27.8,10.9c0.9-1.5-14-12.2-26.8-24.9c-12-11.7-22.3-25.5-20.3-28.2
			C336.8,1323.5,351.6,1335.2,351.6,1335.2z"/>
		<path class="st27" d="M899.5,1795.1l12.7,62.8l319.1,290.2l-228.4,231.2l61.7,63c0,0,337.4-247.7,349.5-280.2
			c18.7-50-241.8-381-241.8-381L899.5,1795.1z"/>
		<path class="st32" d="M678.2,2554.2c0,0-64.4,70.1-77,87.4c-18.2,24.9,117.8,61.5,100.9,32.4c-3.9-6.7-14.9-29.2-15.4-31.5
			c-2.6-11.8,30.1-43.8,30.1-43.8L678.2,2554.2z"/>
		<path class="st33" d="M773.7,2671.9l-88.6-32.4c0,0-33.5,15.2-84.6,2.7c0,0-18.1,25.3-19.2,57.6c0,0,167.9,21.5,214.7,8
			C842.9,2694.6,773.7,2671.9,773.7,2671.9z"/>
		<path class="st27" d="M910.4,1824.2l14.4,396.1l-283.1,347.1l76.6,42c0,0,313.2-268.9,347.6-343.7
			c21.4-46.4,93.1-466.3,93.1-466.3L910.4,1824.2z"/>
		<path class="st34" d="M1167.8,1791.7c-26-58.6-23-478.5-124-576.9c-35.5,6-60.9,9.4-66.8,11c-5.3,43.3-11.1,202-14.6,347.5
			c-2.4,96.9,0.1,198.6-11.9,252.1C943.1,1858.6,1191.5,1845.2,1167.8,1791.7z"/>
		<path class="st35" d="M894.4,1247.4c-28.4,6.4-49.2,11-86.4,65.9c-35.6,52.5-114.6,177.3-114.6,177.3l-208.1-92.4l-9.7,105.4
			c0,0,235.4,122.4,268.6,111.3c33.2-11.1,126.6-147.5,133.5-156.8c1.6-2.2-7.8,145.8-7.8,169.4c0,23.6-45.2,229.5-45.2,229.5
			s114.5,28.2,136.8-23.1c68.5-157,16-608.4,16-608.4S914.8,1242.7,894.4,1247.4z"/>
		<path class="st32" d="M1321.7,798c-8.8-7.4-12.6-24.9-14-36.2l-3.9-14.9c3.6-1.4,73-11.3,93.8-11.9c2.1,6.6,3,12.2,2.4,15.8
			c-3.1,17.1-24.9,128.1-24.9,128.1l-59.7,1.2C1315.4,880.1,1328.4,814.3,1321.7,798z"/>
		<path class="st35" d="M1067.2,1239.4c0,0,41,116.7,74.8,99.9c33.7-16.8,223.3-210.1,225.2-219.4c1.9-9.4,15-246.6,15-246.6
			l-74.9-14.9l-43.1,194.3c0,0-138.7,132.6-166.8,145.7C1069.1,1211.3,1067.2,1239.4,1067.2,1239.4z"/>
		<path class="st35" d="M1177.9,1819.8c22.7,0,31.1-3.1,46.2-7.7c0,0-43.2-243.6-68.3-485.2c-9.9-95.4-19.2-134.6-58.5-127.7
			c-11.3,2-42.2,13.7-53.4,15.6c98.9,279.9,99.3,495.4,113.3,557.9C1164.1,1804.1,1170.2,1819.9,1177.9,1819.8z"/>
		<path class="st36" d="M1033.4,1172.5l10.4,42.3c0,0,2.4,36.9-14.7,40.2c-20.6,4-51.2-26.8-51.2-26.8l-17.8-119.4L1033.4,1172.5z"
			/>
		<path class="st32" d="M1033.4,1172.5l10.4,42.3c0,0,2.4,36.9-14.7,40.2c-20.6,4-51.2-26.8-51.2-26.8l-17.8-119.4L1033.4,1172.5z"
			/>
		<path class="st37" d="M960.2,1109.4l73.1,63.1l7.7,31.6C1013.2,1197.4,973.3,1166.6,960.2,1109.4z"/>
		<path class="st32" d="M1033.6,999.7c17.7-0.1,33.6,12.2,39.9,29.9c5.2,14.6,11.7,36.4,16,61.2c7.7,45.8-18.3,87.9-41.1,91.2
			c-22.7,3.3-76.8-11.7-88.8-76.6c-5.1-27.9-11.9-64.4,11.1-83.5C988.3,1006.7,1013.3,999.7,1033.6,999.7z"/>
		<path class="st33" d="M966.9,1154.7c0,0-80.1-71.4-83.6-127.2c-3.5-55.8,48-85.6,92-87.2c19.9-0.7,33.4,0.2,53.9,2.7
			c44.1,5.6,72.8,25.1,62.7,61.3c-13.5,48.6-105.1,7.6-123.8,22.7c-15.5,12.5,9.6,42.3-5.4,53.8c-14.1,10.7-6.9,7.1-2.3,27.5
			C965.1,1128.7,966.9,1154.7,966.9,1154.7z"/>
		<path class="st32" d="M936,1090.1c2,13.3,10.1,23.2,18.2,22c8.1-1.2,13-13,11.1-26.4c-2-13.3-10.1-23.2-18.2-22
			C938.9,1065,934,1076.8,936,1090.1z"/>
		<path class="st37" d="M1325.8,746.7c0,0,12.9,7.4,25.9,24.5c0,0,33.8-21.6,32.6-28.5c-1.6-9.1-36.1,7.7-36.1,7.7L1325.8,746.7z"/>
		<path class="st32" d="M1325.6,746c-1.6-4.3-4.7-10.3-3.2-12.7c9.7-14.8-0.8-31-7.8-18.3c-4.1,7.4-11.3,23.5-10.7,31.9
			c0.5,6,6.6,29.3,6.6,29.3S1334.6,770.3,1325.6,746z"/>
	</g>
	<g>
		<g>
			<g>
				
					<linearGradient id="SVGID_16_" gradientUnits="userSpaceOnUse" x1="1784.2847" y1="752.3189" x2="2723.2888" y2="752.3189" gradientTransform="matrix(1 0 0 -1 0 2797.7961)">
					<stop  offset="0" style="stop-color:#09005D"/>
					<stop  offset="1" style="stop-color:#1A0F91"/>
				</linearGradient>
				<path class="st38" d="M1799.6,1547.9c-4.9,176.5-21,785.6-13.3,1001.5c0.9,22.9,21.5,41.2,47.3,42c127.8,3.7,595.9,13,804.9,5.3
					c43.5-1.6,78.2-32.8,79-71.4c4.3-185.3,13.9-706.6-8.9-945.4c-2.7-28.6-28.1-51.4-60.4-54.2c-139.1-12.3-609.4-42.4-789.9-32
					C1825.9,1495.3,1800.4,1519,1799.6,1547.9z"/>
				
					<linearGradient id="SVGID_17_" gradientUnits="userSpaceOnUse" x1="2248.6621" y1="990.6708" x2="2287.1541" y2="1747.6899" gradientTransform="matrix(1 0 0 -1 0 2797.7961)">
					<stop  offset="0" style="stop-color:#4042E2"/>
					<stop  offset="1" style="stop-color:#4F52FF"/>
				</linearGradient>
				<path class="st39" d="M1856.6,1589c-6.9,41.3-28.5,178.5-21.6,229.4c1,7.5,23.8,13.4,52.7,13.9c119.1,1.8,525.2,5.8,699.8,2.2
					c31.5-0.7,56.1-7.2,57.8-15.2c8.9-42.1,34.2-169.9,27.7-220.1c-1-8-25.2-14.6-56.4-15.3c-128.8-2.9-560.3-10-708.7-7.9
					C1880,1576.1,1857.8,1581.8,1856.6,1589z"/>
				<path class="st23" d="M2618.6,1624.8c-6.3-6.5-15-10.3-24.1-10.4l-669-10.6c-17.9-0.3-33,13.2-34.7,31.1l-13.9,148.4
					c-1.1,12.2,18.8,22.4,44.3,22.7l657.7,7.9c25.4,0.3,46.5-9.4,46.7-21.5l2.5-143.1C2628.4,1640.1,2624.9,1631.3,2618.6,1624.8z"
					/>
			</g>
			<g>
				
					<linearGradient id="SVGID_18_" gradientUnits="userSpaceOnUse" x1="1855.59" y1="819.5071" x2="2010.2925" y2="819.5071" gradientTransform="matrix(1 0 0 -1 0 2797.7961)">
					<stop  offset="0" style="stop-color:#4042E2"/>
					<stop  offset="1" style="stop-color:#4F52FF"/>
				</linearGradient>
				<path class="st40" d="M2010.3,1978.8c0,26.4-21.4,47.8-47.8,47.8h-59.1c-26.4,0-47.8-21.4-47.8-47.8v-1
					c0-26.4,21.4-47.8,47.8-47.8h59c26.4,0,47.8,21.4,47.8,47.8L2010.3,1978.8L2010.3,1978.8z"/>
				
					<linearGradient id="SVGID_19_" gradientUnits="userSpaceOnUse" x1="2073.043" y1="819.5071" x2="2227.6511" y2="819.5071" gradientTransform="matrix(1 0 0 -1 0 2797.7961)">
					<stop  offset="0" style="stop-color:#4042E2"/>
					<stop  offset="1" style="stop-color:#4F52FF"/>
				</linearGradient>
				<path class="st41" d="M2227.7,1978.8c0,26.4-21.4,47.8-47.8,47.8h-59c-26.4,0-47.8-21.4-47.8-47.8v-1
					c0-26.4,21.4-47.8,47.8-47.8h59c26.4,0,47.8,21.4,47.8,47.8V1978.8z"/>
				
					<linearGradient id="SVGID_20_" gradientUnits="userSpaceOnUse" x1="2280.8564" y1="819.5071" x2="2435.4646" y2="819.5071" gradientTransform="matrix(1 0 0 -1 0 2797.7961)">
					<stop  offset="0" style="stop-color:#4042E2"/>
					<stop  offset="1" style="stop-color:#4F52FF"/>
				</linearGradient>
				<path class="st42" d="M2435.5,1978.8c0,26.4-21.4,47.8-47.8,47.8h-59c-26.4,0-47.8-21.4-47.8-47.8v-1
					c0-26.4,21.4-47.8,47.8-47.8h59c26.4,0,47.8,21.4,47.8,47.8V1978.8z"/>
				<path class="st23" d="M2649.7,1986c0,26.8-21.7,48.6-48.6,48.6h-56.2c-26.8,0-48.6-21.7-48.6-48.6l0,0
					c0-26.8,21.7-48.6,48.6-48.6h56.2C2627.9,1937.4,2649.7,1959.2,2649.7,1986L2649.7,1986z"/>
			</g>
			<g>
				
					<linearGradient id="SVGID_21_" gradientUnits="userSpaceOnUse" x1="1855.59" y1="669.7186" x2="2010.2925" y2="669.7186" gradientTransform="matrix(1 0 0 -1 0 2797.7961)">
					<stop  offset="0" style="stop-color:#4042E2"/>
					<stop  offset="1" style="stop-color:#4F52FF"/>
				</linearGradient>
				<path class="st43" d="M2010.3,2128.6c0,26.4-21.4,47.8-47.8,47.8h-59.1c-26.4,0-47.8-21.4-47.8-47.8v-1
					c0-26.4,21.4-47.8,47.8-47.8h59c26.4,0,47.8,21.4,47.8,47.8L2010.3,2128.6L2010.3,2128.6z"/>
				
					<linearGradient id="SVGID_22_" gradientUnits="userSpaceOnUse" x1="2073.043" y1="669.7186" x2="2227.6511" y2="669.7186" gradientTransform="matrix(1 0 0 -1 0 2797.7961)">
					<stop  offset="0" style="stop-color:#4042E2"/>
					<stop  offset="1" style="stop-color:#4F52FF"/>
				</linearGradient>
				<path class="st44" d="M2227.7,2128.6c0,26.4-21.4,47.8-47.8,47.8h-59c-26.4,0-47.8-21.4-47.8-47.8v-1
					c0-26.4,21.4-47.8,47.8-47.8h59c26.4,0,47.8,21.4,47.8,47.8V2128.6z"/>
				
					<linearGradient id="SVGID_23_" gradientUnits="userSpaceOnUse" x1="2280.8564" y1="669.7186" x2="2435.4646" y2="669.7186" gradientTransform="matrix(1 0 0 -1 0 2797.7961)">
					<stop  offset="0" style="stop-color:#4042E2"/>
					<stop  offset="1" style="stop-color:#4F52FF"/>
				</linearGradient>
				<path class="st45" d="M2435.5,2128.6c0,26.4-21.4,47.8-47.8,47.8h-59c-26.4,0-47.8-21.4-47.8-47.8v-1
					c0-26.4,21.4-47.8,47.8-47.8h59c26.4,0,47.8,21.4,47.8,47.8V2128.6z"/>
				
					<linearGradient id="SVGID_24_" gradientUnits="userSpaceOnUse" x1="2498.2148" y1="669.7186" x2="2652.823" y2="669.7186" gradientTransform="matrix(1 0 0 -1 0 2797.7961)">
					<stop  offset="0" style="stop-color:#4042E2"/>
					<stop  offset="1" style="stop-color:#4F52FF"/>
				</linearGradient>
				<path class="st46" d="M2652.8,2128.6c0,26.4-21.4,47.8-47.8,47.8h-59c-26.4,0-47.8-21.4-47.8-47.8v-1
					c0-26.4,21.4-47.8,47.8-47.8h59c26.4,0,47.8,21.4,47.8,47.8V2128.6z"/>
			</g>
			<g>
				
					<linearGradient id="SVGID_25_" gradientUnits="userSpaceOnUse" x1="1855.59" y1="524.8447" x2="2010.2925" y2="524.8447" gradientTransform="matrix(1 0 0 -1 0 2797.7961)">
					<stop  offset="0" style="stop-color:#4042E2"/>
					<stop  offset="1" style="stop-color:#4F52FF"/>
				</linearGradient>
				<path class="st47" d="M2010.3,2273.5c0,26.4-21.4,47.8-47.8,47.8h-59.1c-26.4,0-47.8-21.4-47.8-47.8v-1
					c0-26.4,21.4-47.8,47.8-47.8h59c26.4,0,47.8,21.4,47.8,47.8L2010.3,2273.5L2010.3,2273.5z"/>
				
					<linearGradient id="SVGID_26_" gradientUnits="userSpaceOnUse" x1="2073.043" y1="524.8447" x2="2227.6511" y2="524.8447" gradientTransform="matrix(1 0 0 -1 0 2797.7961)">
					<stop  offset="0" style="stop-color:#4042E2"/>
					<stop  offset="1" style="stop-color:#4F52FF"/>
				</linearGradient>
				<path class="st48" d="M2227.7,2273.5c0,26.4-21.4,47.8-47.8,47.8h-59c-26.4,0-47.8-21.4-47.8-47.8v-1
					c0-26.4,21.4-47.8,47.8-47.8h59c26.4,0,47.8,21.4,47.8,47.8V2273.5z"/>
				
					<linearGradient id="SVGID_27_" gradientUnits="userSpaceOnUse" x1="2280.8564" y1="524.8447" x2="2435.4646" y2="524.8447" gradientTransform="matrix(1 0 0 -1 0 2797.7961)">
					<stop  offset="0" style="stop-color:#4042E2"/>
					<stop  offset="1" style="stop-color:#4F52FF"/>
				</linearGradient>
				<path class="st49" d="M2435.5,2273.5c0,26.4-21.4,47.8-47.8,47.8h-59c-26.4,0-47.8-21.4-47.8-47.8v-1
					c0-26.4,21.4-47.8,47.8-47.8h59c26.4,0,47.8,21.4,47.8,47.8V2273.5z"/>
			</g>
			<g>
				
					<linearGradient id="SVGID_28_" gradientUnits="userSpaceOnUse" x1="1855.59" y1="379.8759" x2="2010.2925" y2="379.8759" gradientTransform="matrix(1 0 0 -1 0 2797.7961)">
					<stop  offset="0" style="stop-color:#4042E2"/>
					<stop  offset="1" style="stop-color:#4F52FF"/>
				</linearGradient>
				<path class="st50" d="M2010.3,2418.4c0,26.4-21.4,47.8-47.8,47.8h-59.1c-26.4,0-47.8-21.4-47.8-47.8v-1
					c0-26.4,21.4-47.8,47.8-47.8h59c26.4,0,47.8,21.4,47.8,47.8L2010.3,2418.4L2010.3,2418.4z"/>
				
					<linearGradient id="SVGID_29_" gradientUnits="userSpaceOnUse" x1="2073.043" y1="379.8759" x2="2227.6511" y2="379.8759" gradientTransform="matrix(1 0 0 -1 0 2797.7961)">
					<stop  offset="0" style="stop-color:#4042E2"/>
					<stop  offset="1" style="stop-color:#4F52FF"/>
				</linearGradient>
				<path class="st51" d="M2227.7,2418.4c0,26.4-21.4,47.8-47.8,47.8h-59c-26.4,0-47.8-21.4-47.8-47.8v-1
					c0-26.4,21.4-47.8,47.8-47.8h59c26.4,0,47.8,21.4,47.8,47.8V2418.4z"/>
				
					<linearGradient id="SVGID_30_" gradientUnits="userSpaceOnUse" x1="2280.8564" y1="379.8759" x2="2435.4646" y2="379.8759" gradientTransform="matrix(1 0 0 -1 0 2797.7961)">
					<stop  offset="0" style="stop-color:#4042E2"/>
					<stop  offset="1" style="stop-color:#4F52FF"/>
				</linearGradient>
				<path class="st52" d="M2435.5,2418.4c0,26.4-21.4,47.8-47.8,47.8h-59c-26.4,0-47.8-21.4-47.8-47.8v-1
					c0-26.4,21.4-47.8,47.8-47.8h59c26.4,0,47.8,21.4,47.8,47.8V2418.4z"/>
			</g>
			
				<linearGradient id="SVGID_31_" gradientUnits="userSpaceOnUse" x1="2507.949" y1="449.9032" x2="2633.5444" y2="449.9032" gradientTransform="matrix(1 0 0 -1 0 2797.7961)">
				<stop  offset="0" style="stop-color:#4042E2"/>
				<stop  offset="1" style="stop-color:#4F52FF"/>
			</linearGradient>
			<path class="st53" d="M2633.5,2405.8c0,33.5-27.1,60.5-60.5,60.5h-4.6c-33.5,0-60.5-27.1-60.5-60.5V2290
				c0-33.5,27.1-60.5,60.5-60.5h4.6c33.5,0,60.5,27.1,60.5,60.5V2405.8z"/>
		</g>
		<g class="st54">
			<path class="st25" d="M2377.6,1646.5c0,5.1-4.2,9.4-9.4,9.4h-28c-5.1,0-9.4-4.2-9.4-9.4l0,0c0-5.1,4.2-9.4,9.4-9.4h28
				C2373.5,1637.3,2377.6,1641.4,2377.6,1646.5L2377.6,1646.5z"/>
			<path class="st25" d="M2377.6,1786.3c0,5.1-4.2,9.4-9.4,9.4h-28c-5.1,0-9.4-4.2-9.4-9.4l0,0c0-5.1,4.2-9.4,9.4-9.4h28
				C2373.5,1776.9,2377.6,1781.2,2377.6,1786.3L2377.6,1786.3z"/>
			<path class="st25" d="M2331,1702.5c0,5.1-4.2,9.4-9.4,9.4l0,0c-5.1,0-9.4-4.2-9.4-9.4v-28c0-5.1,4.2-9.4,9.4-9.4l0,0
				c5.1,0,9.4,4.2,9.4,9.4V1702.5z"/>
			<path class="st25" d="M2331,1758.3c0,5.1-4.2,9.4-9.4,9.4l0,0c-5.1,0-9.4-4.2-9.4-9.4v-28c0-5.1,4.2-9.4,9.4-9.4l0,0
				c5.1,0,9.4,4.2,9.4,9.4V1758.3z"/>
			<path class="st25" d="M2401,1702.5c0,5.1-4.2,9.4-9.4,9.4l0,0c-5.1,0-9.4-4.2-9.4-9.4v-28c0-5.1,4.2-9.4,9.4-9.4l0,0
				c5.1,0,9.4,4.2,9.4,9.4V1702.5z"/>
			<path class="st25" d="M2401,1758.3c0,5.1-4.2,9.4-9.4,9.4l0,0c-5.1,0-9.4-4.2-9.4-9.4v-28c0-5.1,4.2-9.4,9.4-9.4l0,0
				c5.1,0,9.4,4.2,9.4,9.4V1758.3z"/>
		</g>
		<g class="st55">
			<g>
				<g>
					<defs>
						<path id="SVGID_32_" d="M2498.9,1787.3v-4.5h20.6v4.5H2498.9 M2540.1,1787.3v-4.5h20.6v4.5H2540.1 M2532.8,1772.3v-4.5h20.6
							v4.5H2532.8 M2499.1,1772.3l-3.1-3.2l10.9-10.6c1.3-1.3,2.6-2.6,4-3.8l3.1,3.3c-1.3,1.2-2.6,2.5-4,3.8l0,0L2499.1,1772.3
							 M2425.2,1770.7l-4.3-1.6l7.4-19.2l4.3,1.6L2425.2,1770.7 M2528.6,1758.1c3.2-3,6.2-6,9.2-8.9l3.2,3.2c-2.9,2.9-6,6-9.2,9l0,0
							l-5.7,5.3l-3.1-3.3L2528.6,1758.1 M2444.7,1755.8l-4.3-1.6l7.5-19.2l4.3,1.6L2444.7,1755.8 M2528.6,1743.6l-3.2-3.2
							c5.4-5.4,9.9-10.4,13.9-15l3.5,2.9C2538.7,1733.1,2533.9,1738.1,2528.6,1743.6 M2555.2,1737.4L2555.2,1737.4l-3.4-3
							c4.8-5.5,9-10.8,12.3-16.1l3.8,2.5C2564.5,1726.3,2560.1,1731.8,2555.2,1737.4 M2439.9,1732.2l-4.3-1.6l7.4-19.2l4.3,1.6
							L2439.9,1732.2 M2459.6,1717.3l-4.3-1.6l7.5-19.2l4.3,1.6L2459.6,1717.3 M2554.7,1711.2l-4-2.1c3.4-6.4,5-12.4,5.1-18.6
							l4.5,0.1C2560.3,1697.5,2558.4,1704.2,2554.7,1711.2 M2576.7,1701.5l-4.3-1.1c1-4.1,1.6-8.1,1.6-12.5c0-2.4-0.2-4.7-0.6-7
							l4.4-0.8c0.5,2.6,0.7,5.2,0.7,7.7C2578.5,1692.6,2577.9,1697.1,2576.7,1701.5 M2454.7,1693.9l-4.3-1.6l7.4-19.2l4.3,1.6
							L2454.7,1693.9 M2504.1,1671.8c2.4-1.8,5.1-3.6,8.2-5.2l2.1,4.1c-3.9,2-7.1,4.3-9.7,6.4l-2.3,1.9l-4.7-10.4l0,0l4.2-1.9
							L2504.1,1671.8 M2533.1,1666.3l0.2-4.5c9.2,0.3,15.9,3.3,20.2,8l-3.3,3.1C2546.6,1669.2,2541.3,1666.6,2533.1,1666.3
							L2533.1,1666.3L2533.1,1666.3L2533.1,1666.3 M2474.4,1678.9l-4.3-1.6l7.5-19.2l4.3,1.6L2474.4,1678.9 M2565.5,1663.5
							c-3.9-4.5-9.1-8.1-16-10.3l1.3-4.3c7.7,2.4,13.7,6.5,18.1,11.6L2565.5,1663.5 M2511,1656.6l-1.9-4.1c6.1-2.8,13-4.8,20.5-5.5
							l0,0l0.4,4.5C2523.1,1652.1,2516.6,1654,2511,1656.6 M2579.6,1644.1h-98.9v2.3h-7.7l-3.5,9.1l-4.3-1.6l3.8-9.7h-55v144.4
							l3.8,1.4l-0.5,1.1h9l6.9-17.8l4.3,1.6l-7.1,18.4h149.3v-8.2h-2.3v-12.8h-3.3v-4.5h5.6L2579.6,1644.1"/>
					</defs>
					<clipPath id="SVGID_33_">
						<use xlink:href="#SVGID_32_"  style="overflow:visible;"/>
					</clipPath>
					<g class="st56">
						<text transform="matrix(1 0 0 1 2414.2083 1785.1146)" class="st25 st57 st58">/2</text>
					</g>
				</g>
			</g>
			<path class="st25" d="M2519.5,1782.8h-20.6v4.5h20.6V1782.8 M2560.7,1782.8h-20.6v4.5h20.6V1782.8 M2433.1,1773.4l-6.9,17.8h-9
				l0.5-1.1l-3.8-1.4l-0.5-0.2l0,0l-2.8,7.3h18.6l0.9-2.3l7.1-18.4L2433.1,1773.4 M2553.4,1767.8h-20.6v4.5h20.6V1767.8
				 M2581.9,1767.8h-2.3h-5.6v4.5h3.3v12.8h2.3h2.3V1767.8 M2510.7,1754.7c-1.3,1.2-2.6,2.5-4,3.8l-10.9,10.6l3.1,3.2l10.9-10.5l0,0
				c1.3-1.3,2.6-2.6,4-3.8L2510.7,1754.7 M2428.3,1749.8l-7.4,19.2l4.3,1.6l7.4-19.2L2428.3,1749.8 M2537.7,1749.3
				c-2.9,2.9-6,5.9-9.2,8.9l-5.7,5.3l3.1,3.3l5.7-5.3l0,0c3.2-3.1,6.2-6,9.2-9L2537.7,1749.3 M2447.9,1734.9l-7.5,19.2l4.3,1.6
				l7.5-19.2L2447.9,1734.9 M2539.2,1725.4c-3.9,4.6-8.5,9.5-13.9,15l3.2,3.2c5.4-5.5,10.1-10.5,14.1-15.2L2539.2,1725.4
				 M2564.1,1718.4c-3.3,5.2-7.5,10.5-12.3,16.1l3.4,3l0,0c4.9-5.7,9.3-11.1,12.8-16.5L2564.1,1718.4 M2443.1,1711.5l-7.4,19.2
				l4.3,1.6l7.4-19.2L2443.1,1711.5 M2462.8,1696.5l-7.5,19.2l4.3,1.6l7.5-19.2L2462.8,1696.5 M2555.9,1690.4
				c-0.1,6.2-1.7,12.2-5.1,18.6l4,2.1c3.7-6.9,5.6-13.6,5.7-20.7L2555.9,1690.4 M2577.9,1680.2l-4.4,0.8c0.4,2.3,0.6,4.6,0.6,7
				c0,4.3-0.6,8.4-1.6,12.5l4.3,1.1c1.1-4.4,1.8-9,1.8-13.6C2578.5,1685.4,2578.4,1682.7,2577.9,1680.2 M2457.9,1673l-7.4,19.2
				l4.3,1.6l7.4-19.2L2457.9,1673 M2512.3,1666.7c-3.1,1.6-5.9,3.4-8.2,5.2l-2.3-5l-4.2,1.9l0,0l4.7,10.4l2.3-1.9
				c2.6-2.2,5.9-4.5,9.7-6.4L2512.3,1666.7 M2533.1,1666.3L2533.1,1666.3L2533.1,1666.3L2533.1,1666.3 M2533.2,1661.7l-0.2,4.5
				c8.2,0.3,13.6,2.8,17.1,6.6l3.3-3.1C2549.1,1665.1,2542.3,1662.1,2533.2,1661.7 M2477.6,1658.1l-7.5,19.2l4.3,1.6l7.5-19.2
				L2477.6,1658.1 M2550.9,1648.9l-1.3,4.3c6.9,2.1,12.2,5.8,16,10.3l3.4-2.9C2564.6,1655.4,2558.5,1651.3,2550.9,1648.9
				 M2529.6,1647L2529.6,1647c-7.6,0.7-14.5,2.6-20.5,5.5l1.9,4.1c5.7-2.6,12.1-4.4,19-5.1L2529.6,1647 M2480.7,1641.8h-10.9
				l-0.9,2.3l-3.8,9.7l4.3,1.6l3.5-9.1h7.7v-2.3V1641.8"/>
		</g>
	</g>
	<g>
		<ellipse class="st29" cx="2392.5" cy="568.2" rx="304.2" ry="304.2"/>
		<ellipse class="st27" cx="2392.5" cy="568.2" rx="294.1" ry="294.1"/>
		<path class="st30" d="M2183,399.1c-0.9-0.2-1.6-0.6-2.3-1.1c-2.4-2-2.6-5.4-0.7-7.7c67.7-80.6,173.3-115.8,275.7-91.8
			c16.3,3.9,32.3,9.2,47.6,15.8c2.7,1.2,4.1,4.4,2.8,7.2c-1.2,2.7-4.4,4.1-7.2,2.8c-14.6-6.4-30.1-11.5-45.7-15.2
			c-98.4-23.1-199.8,10.7-264.8,88.1C2187.1,398.9,2185,399.6,2183,399.1z"/>
		
			<ellipse transform="matrix(0.7071 -0.7071 0.7071 0.7071 294.9231 1863.7084)" class="st31" cx="2397.2" cy="575.9" rx="248.9" ry="248.9"/>
		<g>
			<path class="st27" d="M2331.1,750.4l6.1-26.4c-27.2-7.6-52.9-20.4-70.2-33.5c-6.1-4.6-7.8-13.2-4.2-20l12.5-23
				c4.5-8.4,15.5-10.8,23.2-5.2c17.3,12.6,39.4,24.5,64.9,30.4c26.5,6.2,48.3,1.9,52.6-16.5c3.9-16.6-9.1-30.1-43.5-48.6
				c-49.1-26.7-81.5-58.4-70.6-104.6c9.8-41.8,47.8-66.4,102.7-62.5l6.1-26.4c2-8.5,10.5-13.7,19-11.7l15.5,3.6
				c8.5,2,13.7,10.5,11.7,19l-5.6,23.7c25.2,7,42.7,15.7,56.1,24.3c6.9,4.4,9.1,13.5,5.2,20.7l-11.5,21.3
				c-4.4,8.2-14.9,10.8-22.7,5.6c-12.3-8.3-30.2-18.1-55.1-23.9c-31.4-7.4-43.5,3.5-46.2,15.2c-3.4,14.4,13.1,28.6,51,50.8
				c54.2,31.2,72.8,61.1,62.6,104.6c-9.4,39.9-47.4,68.9-107,64.4l-6.9,29.5c-2,8.5-10.5,13.7-19,11.7l-15.5-3.6
				C2334.4,767.4,2329.1,758.9,2331.1,750.4z"/>
		</g>
	</g>
</g>
</svg>
