<?xml version="1.0" encoding="utf-8"?>
<!-- Generator: Adobe Illustrator 23.0.2, SVG Export Plug-In . SVG Version: 6.00 Build 0)  -->
<svg version="1.1" id="Capa_1" xmlns="http://www.w3.org/2000/svg" xmlns:xlink="http://www.w3.org/1999/xlink" x="0px" y="0px"
	 viewBox="0 0 2750.8 2800" style="enable-background:new 0 0 2750.8 2800;" xml:space="preserve">
<style type="text/css">
	.st0{fill:url(#SVGID_1_);}
	.st1{fill:#BDD0FB;}
	.st2{fill:#91B3FA;}
	.st3{fill:#FFFFFF;}
	.st4{fill:url(#SVGID_2_);}
	.st5{fill:url(#SVGID_3_);}
	.st6{fill:url(#SVGID_4_);}
	.st7{opacity:0.72;fill:#FFFFFF;enable-background:new    ;}
	.st8{fill:#02184C;}
	.st9{fill:url(#SVGID_5_);}
	.st10{fill:url(#SVGID_6_);}
	.st11{fill:url(#SVGID_7_);}
	.st12{fill:url(#SVGID_8_);}
	.st13{fill:url(#SVGID_9_);}
	.st14{fill:url(#SVGID_10_);}
	.st15{fill:url(#SVGID_11_);}
	.st16{fill:url(#SVGID_12_);}
	.st17{fill:url(#SVGID_13_);}
	.st18{fill:url(#SVGID_14_);}
	.st19{fill:url(#SVGID_15_);}
	.st20{fill:url(#SVGID_16_);}
	.st21{fill:url(#SVGID_17_);}
	.st22{fill:url(#SVGID_18_);}
	.st23{fill:url(#SVGID_19_);}
	.st24{fill:url(#SVGID_20_);}
	.st25{fill:url(#SVGID_21_);}
	.st26{fill:url(#SVGID_22_);}
	.st27{fill:#020E28;}
	.st28{opacity:0.58;fill:#BDC6E3;enable-background:new    ;}
	.st29{opacity:0.78;fill:#BDC6E3;enable-background:new    ;}
</style>
<g id="Background">
</g>
<g id="Illustration">
	
		<linearGradient id="SVGID_1_" gradientUnits="userSpaceOnUse" x1="5241.8423" y1="1571.1813" x2="2837.7747" y2="-1414.5209" gradientTransform="matrix(-1 0 0 1 4921.457 1955.9999)">
		<stop  offset="0" style="stop-color:#DAE3FE"/>
		<stop  offset="1" style="stop-color:#E9EFFD"/>
	</linearGradient>
	<path class="st0" d="M500.6,334.4C797,86,1206.5-6.6,1557.7,39.4c580.4,75.9,865.9,548.9,919.9,634.2
		c295.6,466,354.9,1171.9-26.2,1619.9c-251.9,296.2-600.2,366.9-780.4,403.5c-122,24.8-696.2,126.3-1181.5-221.9
		c-41.3-29.6-93.5-67.1-148.8-125.2C-77.4,1909.2-121.7,855.8,500.6,334.4z"/>
	<g>
		<path class="st1" d="M2522.1,1655.2c-149.6,213.5-387.5,273.9-387.5,273.9c173.2-128.4,312.3-338.8,230.9-915.5
			C2300.6,554,2560.9,290.9,2669.2,203c10.7-8.6,28.1-0.4,25.2,12C2642.8,435.2,2889.5,1130.9,2522.1,1655.2z"/>
		<path class="st1" d="M2609,391.2c-2.1-0.4-4.2,0.7-4.7,2.5c-16.9,63.8-31,128.1-43,192.7c-11.7,64.7-21.1,129.7-28,194.9
			c-1.8,16.3-3.3,32.6-4.8,49c-1.3,16.4-2.5,32.7-3.5,49.1c-2.2,32.7-3.5,65.5-4.3,98.3c-1.8,65.6-0.3,131.1,1.6,196.5
			c2,65.3,4.3,130.3-0.9,194.5c-2.6,32.1-7.3,64-14.8,95.3c-7.4,31.3-17.7,62-30.7,91.9c-26.5,59.6-61.4,117.1-105.1,168.8
			c-21.7,26-45.7,50.5-71.4,73.4c-6.4,5.9-13.1,11.3-19.7,17c-6.8,5.5-13.5,11.1-20.5,16.4c-13.7,10.8-28,21.1-42.5,31.3l0,0
			c-6.1,4.3-7.2,12.1-2.4,17.4c4.9,5.5,14.1,6.6,20.5,2.4c60.8-40.3,116-87.9,161.8-141.6c22.8-26.9,43.3-55.2,61.4-84.6
			c9-14.7,17.7-29.5,25.6-44.7c8.2-15,15.5-30.5,22.3-46.1c27.5-62.4,41.5-129.1,46.2-195.1c4.8-66.2,1.8-131.9-0.8-197.2
			c-2.9-65.3-5.7-130.2-5.2-195.3c0.2-65.1,3.6-130.1,8.4-195.1c5.1-65,12.5-129.8,22.2-194.4c9.3-64.7,21.4-129.1,35-193.3
			C2612.5,393.3,2611.1,391.7,2609,391.2z"/>
	</g>
	<g>
		<g>
			<path class="st2" d="M2200.1,351.8c6.7-15.1,28.7-12.9,32.3,3.1c17.1,76.1,66.1,240.5,205.1,519.1c164.7,330,65,616.4,20.9,713.7
				c-7.9,17.6-31.4,21.7-44.6,7.6C1932.6,1084.8,2126.7,518.3,2200.1,351.8z"/>
			<path class="st3" d="M2431.8,1577.9c-0.1-4.7-9.2-474.8-183.9-868.1c-1.7-3.8,0-8.3,3.8-10c3.8-1.7,8.2,0,10,3.8
				c175.9,396.2,185.1,869.3,185.2,874c0.1,4.2-3.2,7.6-7.4,7.6c-0.5,0-1,0-1.5-0.1C2434.5,1584.5,2431.9,1581.5,2431.8,1577.9z"/>
		</g>
	</g>
	
		<linearGradient id="SVGID_2_" gradientUnits="userSpaceOnUse" x1="4526.0542" y1="-998.1626" x2="4486.7358" y2="465.6529" gradientTransform="matrix(-1 0 0 1 4921.457 1955.9999)">
		<stop  offset="0" style="stop-color:#09005D"/>
		<stop  offset="1" style="stop-color:#1A0F91"/>
	</linearGradient>
	<path class="st4" d="M270.1,2645.1c24.8,28.1,60,44.2,96.9,44.2h275.1l-42.2-1641.9c0,0-197.3-35.8-221.3,126.4
		c-19.1,129.1-106.6,1012.3-141.6,1367.9C233.3,2579.5,245.4,2617,270.1,2645.1z"/>
	
		<linearGradient id="SVGID_3_" gradientUnits="userSpaceOnUse" x1="696.7172" y1="4252.6099" x2="-1406.2124" y2="7014.7495" gradientTransform="matrix(-2.120000e-02 -0.9997 -0.9997 2.120000e-02 6810.7334 1666.8777)">
		<stop  offset="0" style="stop-color:#09005D"/>
		<stop  offset="1" style="stop-color:#1A0F91"/>
	</linearGradient>
	<path class="st5" d="M532.4,2772c-53.6,1.2-97.8-42.2-97.9-96.3l-4.6-1528.3c-0.2-57.5,46.9-103.8,104.1-102.1l1919.1,57.4
		c72.9,2.2,131.3,61.5,132.9,135.1l28,1333c1.9,86.5-66.3,158.3-152.2,160L532.4,2772z"/>
	<g>
		
			<linearGradient id="SVGID_4_" gradientUnits="userSpaceOnUse" x1="-1142.933" y1="6776.603" x2="403.801" y2="4494.627" gradientTransform="matrix(-2.120000e-02 -0.9997 -0.9997 2.120000e-02 6810.7334 1666.8777)">
			<stop  offset="0" style="stop-color:#4F52FF"/>
			<stop  offset="1" style="stop-color:#4042E2"/>
		</linearGradient>
		<path class="st6" d="M562.7,2650.1c-19.4,0.3-36-14.1-38.4-33.5c-40-319-9.4-1216.5-1.2-1434.4c1-26.7,23.1-47.4,49.6-46.6
			l1927.8,62c23.5,0.8,41.6,20.9,40.4,44.5c-28.5,518.3,60.4,1142.7,88.7,1324.2c4.2,27.3-16.5,52.1-44,52.6L562.7,2650.1z"/>
		<path class="st1" d="M590.1,2628.5c-18.7,0.3-34.6-13.6-36.9-32.2c-38.4-307-9.1-1170.7-1.2-1380.4c1-25.7,22.2-45.7,47.7-44.9
			l1855.1,59.7c22.6,0.8,40.1,20.1,38.8,42.8c-27.4,498.8,58.1,1099.7,85.4,1274.3c4.1,26.4-15.9,50.2-42.3,50.7L590.1,2628.5z"/>
	</g>
	<path class="st7" d="M1361.6,1511.5l-137.2-6.2c-21.1-1-38.6,16.3-38.1,37.5l2.9,141.6c0.4,20.1,16.8,36.2,36.8,36.1l137-0.8
		c20.4-0.1,36.8-17.1,36.4-37.6l-2.8-134.7C1396.1,1528.2,1380.8,1512.4,1361.6,1511.5z"/>
	<path class="st7" d="M1912,1681.2l-2.4-114.7c-0.4-19.5-15.9-35.4-35.2-36.1l-137.2-5c-21-0.8-38.3,16.5-37.8,37.5l2.5,120.4
		c0.4,20.1,16.8,36.2,36.8,36.1l137-0.8C1896.1,1718.6,1912.4,1701.6,1912,1681.2z"/>
	<path class="st7" d="M1716.1,2359.7l2.6,127.3c0.5,22.5,19.2,40.3,41.6,39.3l130.2-5.6c21.7-0.9,38.6-19.1,38.2-41l-2.5-123.1
		c-0.5-22.1-18.4-39.6-40.3-39.3l-130.3,1.3C1733.4,2318.9,1715.7,2337.4,1716.1,2359.7z"/>
	<path class="st7" d="M2015.7,2515.4l131.6-5.6c21.3-0.9,37.9-18.8,37.5-40.3l-2.4-116c-0.5-21.7-18.1-38.9-39.6-38.6l-131.7,1.3
		c-21.9,0.2-39.2,18.3-38.8,40.4l2.5,120.3C1975.4,2499,1993.8,2516.4,2015.7,2515.4z"/>
	<path class="st7" d="M2007,1975.2l125.7-4.1c23.1-0.8,41.3-20.1,40.8-43.4l-2-94.4c-0.5-23.1-19.2-41.6-42-41.7l-125.8-0.2
		c-23.7,0-42.7,19.6-42.2,43.4l2.1,98.8C1964,1957.2,1983.5,1975.9,2007,1975.2z"/>
	<path class="st7" d="M2008.7,2259.3h131.7c22,0,39.6-18.2,39.2-40.4l-3.2-152.4c-0.5-23.6-20.1-42.3-43.5-41.6l-128.7,4.2
		c-21.5,0.7-38.3,18.7-37.9,40.3l3.1,151.1C1970,2242.1,1987.3,2259.4,2008.7,2259.3z"/>
	<path class="st7" d="M1655.7,1682.5l-2.6-125.4c-0.4-19.5-15.9-35.3-35.2-36.1l-137.2-5c-21-0.8-38.3,16.5-37.8,37.5l2.7,131.2
		c0.4,20.1,16.8,36.2,36.8,36.1l137-0.8C1639.7,1720.1,1656.1,1703.1,1655.7,1682.5z"/>
	<path class="st7" d="M1753,2259.4h130.4c22.3,0,40.3-18.5,39.9-41.1l-3-145.6c-0.5-22.3-19-40.1-41.2-39.3l-130.2,4.3
		c-21.9,0.7-39,19-38.5,41.1l2.9,141.3C1713.6,2241.8,1731.4,2259.4,1753,2259.4z"/>
	<path class="st7" d="M1448.5,1821.6l2.9,141.1c0.4,17,14.4,30.4,31.3,29.8l149.5-4.9c16.6-0.6,29.6-14.4,29.2-31.2l-2.8-135.8
		c-0.4-16.6-13.7-29.8-30.2-29.8l-149.6-0.3C1461.8,1790.4,1448.1,1804.4,1448.5,1821.6z"/>
	<path class="st7" d="M1364.5,1790.2l-134.2-0.3c-21.4,0-38.5,17.6-38,39.1l2.8,134.1c0.5,21.4,18.1,38.1,39.2,37.4l134.1-4.4
		c20.8-0.7,37.1-18.1,36.8-39.1l-2.7-129.4C1402,1807,1385.1,1790.3,1364.5,1790.2z"/>
	<path class="st7" d="M1917.6,1948l-2.6-126.9c-0.4-16.6-13.7-29.8-30.2-29.8l-149.6-0.3c-17,0-30.7,14-30.3,31.2l2.7,132.2
		c0.4,17,14.4,30.4,31.2,29.8l149.5-4.9C1904.9,1978.6,1917.9,1964.7,1917.6,1948z"/>
	<path class="st7" d="M1454.1,2087.2l2.7,132.9c0.5,21.9,18.1,39.3,39.9,39.3h130.3c22.3,0,40.3-18.5,39.9-41.1l-2.8-137.2
		c-0.5-22.3-19-40.1-41.2-39.3l-130.2,4.3C1470.8,2046.9,1453.6,2065.1,1454.1,2087.2z"/>
	<path class="st7" d="M1197.8,2091.1l2.8,133.5c0.4,19.4,16.1,34.8,35.3,34.8h139.6c19.8,0,35.7-16.4,35.3-36.4l-2.9-138.1
		c-0.4-19.8-16.8-35.5-36.5-34.8l-139.5,4.6C1212.6,2055.4,1197.4,2071.6,1197.8,2091.1z"/>
	<path class="st7" d="M2167.8,1658.6l-1.5-72.2c-0.6-26.5-21.6-47.9-47.8-48.9l-115.7-4.2c-25.9-1-47.3,20.3-46.7,46.5l1.9,86.5
		c0.6,27.9,23.2,50.2,51,50l104-0.6C2143.7,1715.4,2168.4,1689.8,2167.8,1658.6z"/>
	<path class="st7" d="M2231,2465.9c0.5,22.1,18.9,39.6,40.9,38.6l48.6-2.1c34.1-1.5,60.9-25.5,60.3-54.1l-1.8-83.6
		c-0.6-28.9-28.8-51.8-63.2-51.5l-45.3,0.4c-23.5,0.2-42.2,19.7-41.7,43.4L2231,2465.9z"/>
	<path class="st7" d="M709,2382.5l2.8,134.4c0.6,29.7,30.3,52.9,65.7,51.4l88.7-3.8c21.7-0.9,38.6-19.2,38.2-41.1l-3.3-156.7
		c-0.5-22-18.4-39.6-40.3-39.4l-89.1,0.9C736.7,2328.7,708.4,2353.1,709,2382.5z"/>
	<path class="st7" d="M2375.6,2205.1l-2.8-134.4c-0.6-29.5-29.8-52.6-65-51.4l-44.5,1.5c-23.1,0.8-41.3,20.1-40.8,43.4l3.2,153.6
		c0.5,23.1,19.2,41.6,42.1,41.6h44.2C2347.6,2259.3,2376.2,2234.8,2375.6,2205.1z"/>
	<path class="st7" d="M2369.4,1911.1l-1.4-67.6c-0.6-28.6-28.2-51.4-62.3-51.5l-56.3-0.1c-17.9,0-32.3,14.8-31.9,32.8l2.4,110.9
		c0.4,17.9,15.2,32,32.9,31.5l55.7-1.9C2342.9,1964.1,2370,1940,2369.4,1911.1z"/>
	<path class="st7" d="M691.4,1542.3l2.7,129.5c0.6,28.8,28.6,51.7,62.9,51.5l92-0.5c21.3-0.1,38.2-17.7,37.8-39.1l-3.2-154.7
		c-0.4-20.3-16.5-36.8-36.7-37.4l-89.4-3.2C721.1,1486.8,690.7,1511.7,691.4,1542.3z"/>
	<path class="st7" d="M1459.9,2362.2l2.8,135.7c0.5,22.5,19.2,40.3,41.6,39.3l130.2-5.6c21.7-0.9,38.6-19.1,38.1-41l-2.7-131.5
		c-0.5-22.1-18.4-39.6-40.3-39.3l-130.3,1.3C1477.1,2321.4,1459.4,2339.8,1459.9,2362.2z"/>
	<path class="st7" d="M697.7,1843.4l2.5,121.3c0.6,29.5,29.8,52.6,65,51.4l90.9-3c20.8-0.7,37.1-18.1,36.8-39.1l-3.1-147.2
		c-0.4-20.8-17.2-37.4-37.9-37.5l-90.6-0.2C725.8,1789.1,697.1,1813.7,697.7,1843.4z"/>
	<path class="st7" d="M703.6,2124.3l1.8,83.6c0.6,28.7,28.3,51.5,62.5,51.5h95c19.8,0,35.7-16.4,35.3-36.4l-2.5-121.2
		c-0.4-19.8-16.8-35.5-36.5-34.8l-94.6,3.1C730.2,2071.3,703,2095.4,703.6,2124.3z"/>
	<path class="st7" d="M1115.2,2058.6l-139.5,4.6c-19.3,0.7-34.6,16.9-34.1,36.4l2.6,125c0.4,19.4,16.1,34.9,35.3,34.9h139.6
		c19.8,0,35.7-16.4,35.3-36.4l-2.7-129.7C1151.3,2073.6,1134.9,2058,1115.2,2058.6z"/>
	<path class="st7" d="M947.4,2367.3l3.2,152.6c0.5,22.5,19.2,40.3,41.6,39.3l130.2-5.6c21.7-0.9,38.6-19.2,38.2-41.1l-3.1-148.3
		c-0.5-22.1-18.4-39.6-40.3-39.4l-130.2,1.3C964.6,2326.4,946.9,2344.8,947.4,2367.3z"/>
	<path class="st7" d="M2364.1,1660.3l-1.4-64.7c-0.6-27.7-26.7-50.3-59.8-51.4l-57.7-2.1c-18.3-0.7-33.4,14.3-33,32.8l2.3,108.5
		c0.4,17.5,14.6,31.6,32,31.5l54.5-0.3C2336.3,1714.3,2364.7,1689.9,2364.1,1660.3z"/>
	<path class="st7" d="M1203.6,2364.7l3,144.2c0.5,22.5,19.2,40.3,41.6,39.3l130.2-5.6c21.7-0.9,38.6-19.1,38.2-41.1l-2.8-137.6
		c-0.5-23.2-19.4-41.7-42.5-41.6l-128.1,1.3C1220.9,2323.9,1203.1,2342.4,1203.6,2364.7z"/>
	<path class="st7" d="M1103.4,1500.7l-134.2-4.9c-21.9-0.8-39.8,17.1-39.4,39.1l3.1,149.6c0.4,20.9,17.4,37.6,38.2,37.5l134.1-0.8
		c21.3-0.1,38.2-17.7,37.8-39.1l-3-144.1C1139.6,1517.9,1123.6,1501.4,1103.4,1500.7z"/>
	<path class="st7" d="M1108.2,1789.8l-134.2-0.3c-21.4,0-38.5,17.6-38,39.1l3,143c0.5,21.4,18.1,38.1,39.2,37.4l134.1-4.4
		c20.8-0.7,37.1-18.1,36.8-39.1l-2.9-138.3C1145.7,1806.5,1128.8,1789.8,1108.2,1789.8z"/>
	<path class="st3" d="M2289.8,1393.6l-9.3-1.1c-17.8-2-33.3,12.3-32.9,30.4l1,46.6c0.4,16.6,13.9,29.7,30.4,29.3l2.2-0.1
		c14.6-0.3,26.9-11.3,28.8-25.9l6.2-45.6C2318.3,1410.8,2306.4,1395.5,2289.8,1393.6z"/>
	<path class="st3" d="M2079.8,1381.9l-9.3-1.1c-17.8-2-33.3,12.3-32.9,30.4l1,46.6c0.4,16.6,13.9,29.7,30.4,29.3l2.2-0.1
		c14.6-0.3,26.9-11.3,28.8-25.9l6.2-45.6C2108.3,1399,2096.4,1383.7,2079.8,1381.9z"/>
	<path class="st3" d="M1821.4,1385.5l-9.3-1.1c-17.8-2-33.3,12.3-32.9,30.4l1,46.6c0.3,16.6,13.9,29.7,30.4,29.3l2.2-0.1
		c14.6-0.3,26.9-11.3,28.8-25.9l6.2-45.6C1849.8,1402.6,1838.1,1387.4,1821.4,1385.5z"/>
	<path class="st3" d="M1569.7,1374.1l-9.3-1.1c-17.8-2-33.3,12.3-32.9,30.4l1,46.6c0.3,16.6,13.9,29.7,30.4,29.3h2.2
		c14.6-0.3,26.9-11.3,28.8-25.9l6.2-45.6C1598.2,1391.3,1586.3,1376,1569.7,1374.1z"/>
	<path class="st3" d="M1311.1,1341l-9.3-1.1c-17.8-2-33.3,12.3-32.9,30.4l1,46.6c0.3,16.6,13.9,29.7,30.4,29.3l2.2-0.1
		c14.6-0.3,26.9-11.3,28.8-25.9l6.2-45.6C1339.5,1358.2,1327.8,1342.8,1311.1,1341z"/>
	<path class="st3" d="M1037.2,1346.8l-9.3-1.1c-17.8-2-33.3,12.3-32.9,30.4l1,46.6c0.3,16.6,13.9,29.7,30.4,29.3l2.2-0.1
		c14.6-0.3,26.9-11.3,28.8-25.9l6.2-45.6C1065.7,1363.9,1053.9,1348.7,1037.2,1346.8z"/>
	<path class="st3" d="M806,1342l-9.3-1.1c-17.8-2-33.3,12.3-32.9,30.4l1,46.6c0.3,16.6,13.9,29.7,30.4,29.3l2.2-0.1
		c14.6-0.3,26.9-11.3,28.8-25.9l6.2-45.6C834.5,1359,822.7,1343.8,806,1342z"/>
	<g>
		<path class="st8" d="M2070.9,1933.5c-0.6-9.9-10.8-14.1-18.3-8.1c-21.3,16.9-29.9,43.1-40.4,67.5c-12.2,28.5-23.9,57.1-34.3,86.4
			c-11,30.8-20.3,62.1-27.4,94c-14.1-38-30.5-75.1-51.3-110.2c-5.5-9.3-21.1-3.8-18,7.2c17.9,64.4,40.1,127.5,57,192.3
			c6,22.8,36.9,17.4,39.3-4.5c6.3-60,20.7-117.3,41.1-173.9c9.7-26.9,20.5-53.4,31.8-79.8C2060.3,1981,2072.5,1959.3,2070.9,1933.5z
			"/>
		<path class="st8" d="M2100.1,1981.2c-18.5-3.5-25.2,20.4-8.2,27.8c112.1,49.8,126.8,189.9,45.8,274.8
			c-37.4,39.3-87.2,69.7-134.3,95.9c-47.7,26.6-101,46.8-156.5,41.3c-128.5-13-145.9-144.8-107.5-246.6
			c36.9-97.8,116-173.4,213-209.5c12.5-4.7,7.6-25.2-5.2-20.6c-90.8,32.8-168.3,97.7-216.2,182.5c-44.1,78-70.6,188.1-12.8,266.4
			c59.7,81,173.1,82.5,258.4,48.7c93.9-37.1,210.9-106.1,248.2-206.1C2264,2131.1,2215.7,2003,2100.1,1981.2z"/>
	</g>
	<g>
		<path class="st2" d="M429.8,2664c-2.6,0-4.8-2.3-4.8-4.9l5.9-860.5c0-2.7,2.2-4.9,4.9-4.9l0,0c2.6,0,4.8,2.3,4.8,4.9l-5.9,860.5
			C434.7,2661.9,432.6,2664,429.8,2664L429.8,2664z"/>
		<path class="st2" d="M437.1,1605.9c-2.6,0-4.8-2.3-4.8-4.9l2.1-300.6c0-2.7,2.2-4.9,4.9-4.9l0,0c2.6,0,4.8,2.3,4.8,4.9L442,1601
			C442,1603.6,439.8,1605.9,437.1,1605.9C437.2,1605.9,437.1,1605.8,437.1,1605.9z"/>
	</g>
	<ellipse class="st2" cx="2264.3" cy="1301" rx="52" ry="52.4"/>
	<ellipse class="st2" cx="1838.1" cy="1297" rx="52" ry="52.4"/>
	<ellipse class="st2" cx="1408" cy="1282.9" rx="52" ry="52.4"/>
	<ellipse class="st2" cx="981.7" cy="1262.7" rx="52" ry="52.4"/>
	<g>
		
			<linearGradient id="SVGID_5_" gradientUnits="userSpaceOnUse" x1="3959.8457" y1="-1587.6052" x2="3995.3091" y2="-927.0953" gradientTransform="matrix(-1 0 0 1 4921.457 1955.9999)">
			<stop  offset="0" style="stop-color:#4F52FF"/>
			<stop  offset="1" style="stop-color:#4042E2"/>
		</linearGradient>
		<path class="st9" d="M878.8,1051.4c14.9-13.4,31.3-11.1,31.3-11.1c64.5,8.8,48.3,174.3,40.8,231.9c-0.7,5,1.3,9.9,5.4,13.6
			c4.1,3.7,9.9,5.9,16.1,5.9c22,0,40.4-13.8,42-31.7c7.1-76,15.3-263.4-72.2-278.9c-64.8-11.5-100.5,34-118.8,73.4
			C841.9,1053.2,860.3,1051.2,878.8,1051.4z"/>
		
			<linearGradient id="SVGID_6_" gradientUnits="userSpaceOnUse" x1="3535.8601" y1="-1564.8406" x2="3571.3232" y2="-904.3317" gradientTransform="matrix(-1 0 0 1 4921.457 1955.9999)">
			<stop  offset="0" style="stop-color:#4F52FF"/>
			<stop  offset="1" style="stop-color:#4042E2"/>
		</linearGradient>
		<path class="st10" d="M1295.8,1072.8c16.4-25.5,40.5-22.7,40.5-22.7c64.5,8.8,48.3,174.5,40.8,232c-0.7,5,1.3,9.9,5.4,13.6
			c4.1,3.7,9.9,5.9,16.1,5.9c22,0,40.4-13.8,42-31.8c7.1-76,15.3-263.4-72.2-279c-69-12.3-105,40.2-122.2,80.9
			C1262.6,1072.5,1279.3,1073,1295.8,1072.8z"/>
		
			<linearGradient id="SVGID_7_" gradientUnits="userSpaceOnUse" x1="3111.1282" y1="-1542.0353" x2="3146.5913" y2="-881.5258" gradientTransform="matrix(-1 0 0 1 4921.457 1955.9999)">
			<stop  offset="0" style="stop-color:#4F52FF"/>
			<stop  offset="1" style="stop-color:#4042E2"/>
		</linearGradient>
		<path class="st11" d="M1721.3,1084.6c16.4-27.1,41.3-24.9,41.3-24.9c64.5,8.8,48.3,174.6,40.8,232.1c-0.7,5,1.3,9.9,5.4,13.6
			c4.1,3.7,9.9,5.8,16.1,5.8c22,0,40.4-13.9,42-31.8c7.1-76,15.3-263.5-72.2-279c-71.5-12.6-107.5,44-124,85.3
			C1687.3,1086.6,1704.5,1085.9,1721.3,1084.6z"/>
		
			<linearGradient id="SVGID_8_" gradientUnits="userSpaceOnUse" x1="2685.2202" y1="-1519.1699" x2="2720.6833" y2="-858.6606" gradientTransform="matrix(-1 0 0 1 4921.457 1955.9999)">
			<stop  offset="0" style="stop-color:#4F52FF"/>
			<stop  offset="1" style="stop-color:#4042E2"/>
		</linearGradient>
		<path class="st12" d="M2097.6,1094.6c17.2,0.1,34.5-2.3,51.7-2.8c16.3-23.6,39.4-20.9,39.4-20.9c64.5,8.8,48.3,174.8,40.8,232.3
			c-0.7,5,1.3,9.9,5.4,13.6c4.1,3.7,9.9,5.8,16.1,5.8c22.1,0,40.4-13.9,42-31.8c7.1-76,15.3-263.6-72.2-279.1
			C2150.4,999.1,2114.4,1053.6,2097.6,1094.6z"/>
	</g>
	<g>
		
			<linearGradient id="SVGID_9_" gradientUnits="userSpaceOnUse" x1="25222.7813" y1="-954.761" x2="24883.2773" y2="-760.9771" gradientTransform="matrix(-1 0 0 1 25395.584 1955.9999)">
			<stop  offset="0" style="stop-color:#FEBBBA"/>
			<stop  offset="1" style="stop-color:#FF928E"/>
		</linearGradient>
		<path class="st13" d="M213.5,1337.3c44.3-10.2,83.5-32.3,117.4-66.7l-20.7-21.7c-4.8-5-4.3-12.9,1-17.3
			c51.8-43.7,203-163.3,191.3-243.8l117.6,68.5l-70.7-152.8l-60.1-7.2c-7.6-0.9-15.3,2.2-20.2,8.1
			c-29.1,35.5-244.4,412.6-244.8,412.8L213.5,1337.3z"/>
		
			<linearGradient id="SVGID_10_" gradientUnits="userSpaceOnUse" x1="-9972.3564" y1="-8934.3555" x2="-9998.4189" y2="-8534.7324" gradientTransform="matrix(0.8974 -0.4412 0.4412 0.8974 13108.2393 4812.8857)">
			<stop  offset="0" style="stop-color:#4F52FF"/>
			<stop  offset="1" style="stop-color:#4042E2"/>
		</linearGradient>
		<path class="st14" d="M230,1325.4c-3.9,2.3-8.4-2-6.4-6.1l1.6-3.2c-17.7,22.4-23.2,37.8-24.9,45.5c-0.6,2.7,2,5.2,4.7,4.4
			c33.1-9.9,104.9-60.2,126.5-75.8c4.9-3.5,7.2-9.9,5.1-15.5c-4.5-11.8-17.6-16-17.6-16C297.2,1285.6,252.1,1313,230,1325.4z"/>
		
			<linearGradient id="SVGID_11_" gradientUnits="userSpaceOnUse" x1="25189.9648" y1="-906.3895" x2="26351.5762" y2="-1633.5769" gradientTransform="matrix(-1 0 0 1 25395.584 1955.9999)">
			<stop  offset="0" style="stop-color:#FEBBBA"/>
			<stop  offset="1" style="stop-color:#FF928E"/>
		</linearGradient>
		<path class="st15" d="M301.6,1431.7c41.3-19,75.2-48.5,101.4-89.2l-24.6-17.1c-5.7-3.9-6.9-11.8-2.5-17.2
			c41.9-53.2,165.7-201,138-277.4l129.1,43.3L542.9,938.8l-60.3,5.2c-7.6,0.7-14.5,5.2-18,12.1c-21.4,40.7-93.6,195.1-123.2,375.4
			c-0.4,0.2-32.6,78.1-33,78.3L301.6,1431.7z"/>
		
			<linearGradient id="SVGID_12_" gradientUnits="userSpaceOnUse" x1="-7409.1543" y1="-11829.6006" x2="-7435.2153" y2="-11430.0039" gradientTransform="matrix(0.7895 -0.6137 0.6137 0.7895 13385.8828 6084.0156)">
			<stop  offset="0" style="stop-color:#4F52FF"/>
			<stop  offset="1" style="stop-color:#4042E2"/>
		</linearGradient>
		<path class="st16" d="M315.4,1416.7c-3.4,2.9-8.6-0.3-7.4-4.7l0.9-3.4c-12.8,25.6-15.1,41.7-15.2,49.6c0,2.8,3,4.7,5.5,3.3
			c30.4-16.4,90.5-80.2,108.6-99.8c4.1-4.4,5.1-11.2,1.9-16.2c-6.8-10.6-20.6-12.2-20.6-12.2C373.2,1364,334.6,1400,315.4,1416.7z"
			/>
		<g>
			
				<linearGradient id="SVGID_13_" gradientUnits="userSpaceOnUse" x1="17073.0215" y1="-1198.1155" x2="16793.793" y2="-892.1114" gradientTransform="matrix(-1 0 0 1 17563.8848 1955.9999)">
				<stop  offset="0" style="stop-color:#E1473D"/>
				<stop  offset="1" style="stop-color:#E9605A"/>
			</linearGradient>
			<path class="st17" d="M588.9,913c-24.7,9.6-147.5-0.2-147.5-0.2c97.1,40.3,105.4,59.2,117,133.3c0,0,83.8,51,253.7,36.8
				c57.1-4.7,76.6-17.5,72.2-54.6c-4.4-37-59-118.2-59-118.2S613.7,903.4,588.9,913z"/>
		</g>
		<g>
			
				<linearGradient id="SVGID_14_" gradientUnits="userSpaceOnUse" x1="-13633.9688" y1="-5205.6953" x2="-13550.4854" y2="-4996.2759" gradientTransform="matrix(0.9446 -0.3283 0.3283 0.9446 15137.1875 784.0609)">
				<stop  offset="0" style="stop-color:#09005D"/>
				<stop  offset="1" style="stop-color:#1A0F91"/>
			</linearGradient>
			<path class="st18" d="M623.5,506.7l70.4,166.2c0,0,88.6,78.4,133.3,30.5c20-21.4,18.5-39.2,10.8-52.3c-8-13.7-3.3-31.3,10-39.9
				c18.1-11.8,32.1-32.4,14-67.6c-23.8-46.2-72-45.8-101.4-40.3c-11.9,2.2-23.3-3.9-28.6-14.7c-10.3-20.9-38.4-12.6-45.8-22.6
				c-40.4-55.2-78.4-10.2-78.4-10.2L623.5,506.7z"/>
			
				<linearGradient id="SVGID_15_" gradientUnits="userSpaceOnUse" x1="24834.8691" y1="-1324.8141" x2="24034.5293" y2="-552.8031" gradientTransform="matrix(-1 0 0 1 25395.584 1955.9999)">
				<stop  offset="0" style="stop-color:#E1473D"/>
				<stop  offset="1" style="stop-color:#E9605A"/>
			</linearGradient>
			<path class="st19" d="M810.6,885.8c-2.2-33.8-64.8-116.5-64.8-116.5c36.2,39,72.8,100.5,72.8,100.5l61.8-19.3
				c-55.1-154.1-195.3-245-195.3-245s-71.2-0.5-74.8,11.4c-2.4,7.7-27.7,57.5-41.9,105.6c-7.8,26.4-2.5,54.9,14.4,76.5
				c31.3,40.1,94.8,100.5,94.8,100.5L810.6,885.8z"/>
			
				<linearGradient id="SVGID_16_" gradientUnits="userSpaceOnUse" x1="-12866.2412" y1="-1066.3773" x2="-12528.1357" y2="-1066.3773" gradientTransform="matrix(1 0 0 1 13633.6631 1955.9999)">
				<stop  offset="0" style="stop-color:#FEBBBA"/>
				<stop  offset="1" style="stop-color:#FF928E"/>
			</linearGradient>
			<path class="st20" d="M612.2,927.5c0,0,241.3,3.2,252.3-1.5c5.4-2.4,13.8-7.9,21-13c8.1-5.8,11.5-16.2,8.1-25.5l-13-36.9
				l-83.1,25.9c0,0,0,0-36.8,10c-36.8,10-101,0-101,0l-55.2-14.9l-47.7,51.9L612.2,927.5z"/>
			
				<linearGradient id="SVGID_17_" gradientUnits="userSpaceOnUse" x1="4472.7397" y1="-1699.0295" x2="4176.8403" y2="-1193.6738" gradientTransform="matrix(-1 0 0 1 4921.457 1955.9999)">
				<stop  offset="0" style="stop-color:#FEBBBA"/>
				<stop  offset="1" style="stop-color:#FF928E"/>
			</linearGradient>
			<path class="st21" d="M633.3,515.5l-19,10.1c-5.2,2.7-21.2,22.3-19.9,28.1l28.6,59.5c0.3,1.4,0.7,2.7,1.5,3.9
				c7.5,11.6,56.5,11.1,59.7-8.3l-47.9-89.1C610,511.2,640.6,511.5,633.3,515.5z"/>
			<g>
				
					<linearGradient id="SVGID_18_" gradientUnits="userSpaceOnUse" x1="-8802.459" y1="-10240.4502" x2="-8646.7959" y2="-10517.4775" gradientTransform="matrix(0.5458 -0.8379 0.8379 0.5458 14026.0859 -1161.4701)">
					<stop  offset="0" style="stop-color:#FEBBBA"/>
					<stop  offset="1" style="stop-color:#FF928E"/>
				</linearGradient>
				<path class="st22" d="M636.5,515.6c6.6,38.1-7.8,60.9-19.8,74.5c-12,13.6-35.5,15.4-59.2-22.8c-23.6-38.2-18.2-68.3-18.2-68.3
					C547.5,460.5,630,477.4,636.5,515.6z"/>
				
					<linearGradient id="SVGID_19_" gradientUnits="userSpaceOnUse" x1="-8769.0098" y1="-10481.6367" x2="-8691.1787" y2="-10286.3994" gradientTransform="matrix(0.5458 -0.8379 0.8379 0.5458 14026.0859 -1161.4701)">
					<stop  offset="0" style="stop-color:#09005D"/>
					<stop  offset="1" style="stop-color:#1A0F91"/>
				</linearGradient>
				<path class="st23" d="M611.1,517.9c0,0-4.1-16.4,7.3-15c11.4,1.4,20.7,22.1,20.7,22.1s24.5,4.9,19.6-25.1
					c-4.9-30-30.2-43.7-73.4-55.8c-43.2-12.1-74.5,12.1-78.6,47.2c-4.1,35.2,34.1,37,34.1,37l-0.5-15.2c29.4-43.8,67.7,6.5,67.7,6.5
					L611.1,517.9z"/>
				
					<linearGradient id="SVGID_20_" gradientUnits="userSpaceOnUse" x1="-8769.2695" y1="-10221.8047" x2="-8613.6074" y2="-10498.8301" gradientTransform="matrix(0.5458 -0.8379 0.8379 0.5458 14026.0859 -1161.4701)">
					<stop  offset="0" style="stop-color:#FEBBBA"/>
					<stop  offset="1" style="stop-color:#FF928E"/>
				</linearGradient>
				<path class="st24" d="M631.1,523.9c1.2-11.4,1.9-41.9-16.2-36.6c-18,5.3,1.8,31.1,1.8,31.1L631.1,523.9z"/>
			</g>
		</g>
		<g>
			
				<linearGradient id="SVGID_21_" gradientUnits="userSpaceOnUse" x1="-12794.5508" y1="-1731.9718" x2="-12971.4717" y2="-1683.4827" gradientTransform="matrix(0.9988 -4.940000e-02 4.940000e-02 0.9988 13616.6895 1983.548)">
				<stop  offset="0" style="stop-color:#09005D"/>
				<stop  offset="1" style="stop-color:#1A0F91"/>
			</linearGradient>
			<path class="st25" d="M724,934.2c0-5.4-4.4-9.8-9.8-9.8l-219.6-0.2c-5.4-0.1-9.8,4.4-9.8,9.8s4.4,9.8,9.8,9.8l219.6,0.2
				c0.2,0,0.4,0,0.5,0C719.9,943.7,724,939.4,724,934.2z"/>
			
				<linearGradient id="SVGID_22_" gradientUnits="userSpaceOnUse" x1="-1789.8173" y1="-1098.7876" x2="-198.6028" y2="-1232.6641" gradientTransform="matrix(1 0 0 1 2082.5532 1955.9999)">
				<stop  offset="0" style="stop-color:#09005D"/>
				<stop  offset="1" style="stop-color:#1A0F91"/>
			</linearGradient>
			<path class="st26" d="M283.6,764.6l65.6,165.9c3.2,8.1,11,13.4,19.7,13.4h227.3l-84.6-179.2c-5.8-12.3-18-20-31.6-20H297.2
				C286.8,744.6,279.8,755,283.6,764.6z"/>
			<path class="st2" d="M405.1,818.7c-7.5,2.5-10.5,14.4-6.6,26.8c4,12.3,13.3,20.3,20.9,17.8c7.5-2.5,10.5-14.4,6.6-26.8
				C422.1,824.3,412.7,816.2,405.1,818.7z"/>
		</g>
	</g>
	<g>
		<ellipse class="st27" cx="1333.2" cy="1552.3" rx="155.5" ry="155.5"/>
		<ellipse class="st8" cx="1333.2" cy="1552.3" rx="150.3" ry="150.3"/>
		<path class="st28" d="M1208.1,1495c-0.4,0-0.9-0.1-1.3-0.3c-1.4-0.7-2-2.4-1.3-3.7c23.3-48.4,71.2-79.2,125-80.2
			c8.6-0.2,17.2,0.5,25.6,1.9c1.6,0.3,2.5,1.7,2.4,3.2c-0.2,1.6-1.7,2.5-3.2,2.4c-8-1.3-16.4-1.9-24.6-1.8
			c-51.6,0.9-97.6,30.4-120.1,76.9C1210.2,1494.4,1209.2,1494.9,1208.1,1495z"/>
		<ellipse class="st29" cx="1336.4" cy="1555.5" rx="127.2" ry="127.2"/>
		<g>
			<path class="st8" d="M1325.7,1650.4l-0.3-13.8c-14.4-0.3-28.8-3.4-39-7.7c-3.6-1.6-5.6-5.6-4.6-9.4l3.2-12.9
				c1.2-4.7,6.3-7.3,10.9-5.5c10.1,4,22.6,7.2,36,6.9c13.9-0.3,24.2-5.2,24-14.8c-0.2-8.7-8.2-13.7-27.6-18.6
				c-27.7-7.1-47.7-18.7-48.1-42.9c-0.4-21.9,15.3-38.9,43-43.9l-0.3-13.8c-0.1-4.4,3.4-8.1,7.9-8.2l8.1-0.2
				c4.5-0.1,8.1,3.4,8.2,7.9l0.2,12.4c13.3,0.3,23.1,2.4,30.9,5c4,1.3,6.2,5.6,5.2,9.6l-3,12c-1.2,4.6-6.1,7.3-10.5,5.6
				c-7.2-2.5-17.2-5.2-30.3-4.9c-16.5,0.3-21.1,7.3-21,13.3c0.1,7.5,10.1,12.5,31.7,18.7c30.8,8.6,43.7,21.2,44.2,44
				c0.4,21-14.8,40.1-44.9,45.4l0.3,15.5c0.1,4.4-3.4,8.1-7.9,8.2l-8.1,0.2C1329.5,1658.3,1325.8,1654.8,1325.7,1650.4z"/>
		</g>
	</g>
	<g>
		<ellipse class="st27" cx="1673.9" cy="1299.2" rx="173.3" ry="173.3"/>
		<ellipse class="st8" cx="1673.9" cy="1299.2" rx="167.5" ry="167.5"/>
		<path class="st28" d="M1534.7,1235.3c-0.5,0-1-0.1-1.4-0.3c-1.6-0.8-2.3-2.6-1.5-4.2c26.1-54,79.5-88.2,139.4-89.3
			c9.6-0.2,19.1,0.5,28.5,2.1c1.7,0.3,2.8,1.9,2.5,3.6s-1.9,2.8-3.6,2.5c-9-1.5-18.2-2.2-27.3-2c-57.5,1.1-108.8,33.9-133.9,85.8
			C1536.8,1234.6,1535.7,1235.3,1534.7,1235.3z"/>
		<ellipse class="st29" cx="1677.6" cy="1302.8" rx="141.8" ry="141.8"/>
		<g>
			<path class="st8" d="M1665.7,1408.4l-0.3-15.4c-16.1-0.4-32-3.8-43.4-8.6c-4.1-1.7-6.2-6.2-5.1-10.5l3.6-14.4
				c1.4-5.3,7.1-8.1,12.1-6.1c11.3,4.5,25.2,7.9,40.1,7.6c15.5-0.3,26.9-5.7,26.8-16.5c-0.2-9.7-9.2-15.3-30.9-20.7
				c-30.9-7.8-53.1-20.9-53.6-47.8c-0.4-24.4,17.1-43.4,47.9-48.9l-0.3-15.4c-0.1-5,3.8-9,8.8-9.1l9.1-0.2c5-0.1,9,3.8,9.1,8.8
				l0.3,13.8c14.9,0.3,25.8,2.6,34.4,5.6c4.4,1.5,7,6.2,5.8,10.7l-3.3,13.3c-1.3,5.2-6.8,8-11.8,6.3c-7.9-2.8-19.2-5.8-33.7-5.5
				c-18.4,0.3-23.5,8-23.3,14.9c0.2,8.4,11.3,14,35.3,20.9c34.3,9.6,48.7,23.5,49.2,49c0.4,23.3-16.6,44.7-50.1,50.6l0.3,17.2
				c0.1,5-3.8,9-8.8,9.1l-9.1,0.2C1669.8,1417.3,1665.7,1413.4,1665.7,1408.4z"/>
		</g>
	</g>
	<g>
		
			<ellipse transform="matrix(0.7071 -0.7071 0.7071 0.7071 -200.8727 1242.4269)" class="st27" cx="1399.3" cy="863.7" rx="215.7" ry="215.7"/>
		
			<ellipse transform="matrix(0.7071 -0.7071 0.7071 0.7071 -200.8726 1242.421)" class="st8" cx="1399.3" cy="863.7" rx="208.5" ry="208.5"/>
		<path class="st28" d="M1226,784.1c-0.6,0-1.2-0.1-1.8-0.4c-2-1-2.7-3.2-1.9-5.2c32.4-67.2,98.9-109.9,173.5-111.1
			c11.9-0.2,23.8,0.7,35.5,2.5c2.2,0.4,3.5,2.4,3.2,4.5c-0.3,2.2-2.4,3.5-4.5,3.2c-11.2-1.9-22.6-2.6-34.1-2.5
			c-71.6,1.3-135.4,42.2-166.6,106.7C1228.7,783.2,1227.3,784.1,1226,784.1z"/>
		
			<ellipse transform="matrix(0.7071 -0.7071 0.7071 0.7071 -202.634 1247.0558)" class="st29" cx="1404" cy="868.1" rx="176.5" ry="176.5"/>
		<g>
			<path class="st8" d="M1389,999.7l-0.4-19.2c-20-0.4-39.9-4.8-54.1-10.7c-5.1-2.1-7.7-7.6-6.4-13l4.6-17.9
				c1.7-6.6,8.7-10.1,15.1-7.6c14,5.6,31.4,9.9,50,9.6c19.3-0.4,33.5-7.2,33.3-20.6c-0.2-12.1-11.5-19.1-38.4-25.8
				c-38.4-9.8-66.1-26-66.7-59.6c-0.6-30.4,21.3-54,59.7-60.9l-0.4-19.2c-0.1-6.2,4.8-11.3,11-11.4l11.3-0.2
				c6.2-0.1,11.3,4.8,11.4,11l0.3,17.2c18.5,0.4,32,3.3,42.8,6.9c5.5,1.9,8.6,7.6,7.2,13.3l-4.2,16.7c-1.6,6.4-8.3,10-14.6,7.8
				c-9.9-3.5-23.9-7.2-42-6.9c-22.8,0.4-29.2,10-29.1,18.5c0.2,10.5,14,17.4,43.9,26c42.7,12,60.7,29.3,61.3,61
				c0.5,29.1-20.6,55.6-62.2,62.9l0.4,21.5c0.1,6.2-4.8,11.3-11,11.4l-11.3,0.2C1394.2,1010.7,1389.1,1005.8,1389,999.7z"/>
		</g>
	</g>
	<g>
		<ellipse class="st27" cx="1749.7" cy="441" rx="265.8" ry="265.8"/>
		<ellipse class="st8" cx="1749.7" cy="441" rx="257" ry="257"/>
		<path class="st28" d="M1536,342.9c-0.7,0-1.5-0.1-2.2-0.5c-2.4-1.2-3.4-4-2.3-6.4c40-82.8,121.8-135.3,213.7-137
			c14.7-0.3,29.4,0.8,43.7,3.1c2.6,0.4,4.4,2.8,3.9,5.5s-2.8,4.4-5.5,3.9c-13.8-2.3-27.9-3.2-41.9-3c-88.3,1.6-166.9,52-205.3,131.5
			C1539.4,341.8,1537.7,342.9,1536,342.9z"/>
		<ellipse class="st29" cx="1755.3" cy="446.5" rx="217.5" ry="217.5"/>
		<g>
			<path class="st8" d="M1736.9,608.6l-0.4-23.6c-24.7-0.5-49.2-5.9-66.6-13.2c-6.3-2.6-9.5-9.5-7.8-16.1l5.6-22.1
				c2.1-8.1,10.8-12.4,18.5-9.4c17.3,6.9,38.6,12.3,61.5,11.8c23.7-0.4,41.4-8.8,41.1-25.3c-0.3-14.9-14.1-23.5-47.3-31.8
				c-47.3-12.1-81.5-31.9-82.3-73.4c-0.7-37.4,26.2-66.5,73.6-75.1l-0.4-23.6c-0.1-7.6,5.9-13.9,13.5-14l13.9-0.3
				c7.6-0.1,13.9,5.9,14,13.5l0.4,21.3c22.8,0.5,39.5,4.1,52.8,8.5c6.8,2.3,10.6,9.4,8.9,16.4l-5.2,20.5c-2,7.9-10.3,12.3-17.9,9.6
				c-12.3-4.4-29.5-8.8-51.7-8.4c-28.2,0.5-36.1,12.3-35.9,22.8c0.2,12.8,17.3,21.5,54.2,32c52.6,14.8,74.8,36.1,75.5,75.2
				c0.7,35.9-25.4,68.5-76.7,77.5l0.5,26.5c0.1,7.6-5.9,13.9-13.5,14l-13.9,0.3C1743.4,622.2,1737.1,616.1,1736.9,608.6z"/>
		</g>
	</g>
	<g>
		<path class="st8" d="M1530.9,2083.6c-0.3-5.7-6.2-8.1-10.6-4.7c-12.3,9.7-17.2,24.8-23.2,38.9c-7.1,16.4-13.7,32.9-19.7,49.8
			c-6.3,17.7-11.7,35.8-15.8,54.1c-8.1-21.9-17.5-43.2-29.5-63.4c-3.1-5.4-12.2-2.3-10.4,4.1c10.4,37,23.1,73.4,32.8,110.6
			c3.4,13.1,21.3,10.1,22.6-2.5c3.6-34.5,11.9-67.5,23.6-100.2c5.6-15.5,11.9-30.8,18.2-45.9
			C1524.8,2111,1531.7,2098.4,1530.9,2083.6z"/>
		<path class="st8" d="M1547.7,2111.1c-10.7-2.1-14.5,11.8-4.7,16.1c64.6,28.6,73,109.4,26.4,158.2c-21.6,22.6-50.2,40.2-77.3,55.2
			c-27.5,15.3-58.2,26.9-90.1,23.7c-73.9-7.4-84-83.4-61.9-141.9c21.3-56.3,66.8-99.8,122.6-120.6c7.2-2.7,4.4-14.5-2.9-11.9
			c-52.3,18.9-96.8,56.3-124.4,105.1c-25.4,44.9-40.6,108.2-7.4,153.3c34.4,46.6,99.6,47.4,148.8,28
			c54.1-21.4,121.3-61.1,142.9-118.7C1642,2197.3,1614.2,2123.6,1547.7,2111.1z"/>
	</g>
	<g>
		<path class="st8" d="M1147.9,2170c-0.2-3.8-4.2-5.5-7.2-3.1c-8.2,6.6-11.7,16.8-15.7,26.3c-4.7,11.1-9.3,22.2-13.3,33.6
			c-4.2,12-7.9,24.2-10.7,36.6c-5.5-14.8-11.9-29.2-20-42.9c-2.2-3.6-8.2-1.5-7.1,2.8c7,25.1,15.6,49.6,22.2,74.9
			c2.4,8.9,14.4,6.8,15.3-1.8c2.4-23.3,8-45.7,16-67.7c3.7-10.5,8-20.8,12.3-31.1C1143.7,2188.5,1148.4,2180.1,1147.9,2170z"/>
		<path class="st8" d="M1159.2,2188.6c-7.2-1.4-9.8,7.9-3.2,10.9c43.6,19.4,49.4,73.9,17.8,106.9c-14.6,15.3-33.9,27.1-52.2,37.3
			c-18.6,10.4-39.3,18.2-61,16.1c-50-5.1-56.8-56.4-41.8-95.9c14.4-38.1,45.2-67.4,82.9-81.5c4.9-1.9,2.9-9.8-2.1-8
			c-35.4,12.8-65.5,38-84.1,71.1c-17.2,30.4-27.4,73.2-5,103.7c23.2,31.6,67.3,32.1,100.5,18.9c36.6-14.5,82-41.3,96.6-80.3
			C1223,2246.9,1204.2,2197,1159.2,2188.6z"/>
	</g>
</g>
</svg>
